<svg id="_" data-name="＜" xmlns="http://www.w3.org/2000/svg" width="40" height="40" viewBox="0 0 40 40">
  <path id="パス_349" data-name="パス 349" d="M20,0A20,20,0,1,0,40,20,20,20,0,0,0,20,0Z" fill="#93040b"/>
  <path id="線_9" data-name="線 9" d="M0,9a1,1,0,0,1-.833-.445A1,1,0,0,1-.555,7.168l12-8a1,1,0,0,1,1.387.277A1,1,0,0,1,12.555.832l-12,8A1,1,0,0,1,0,9Z" transform="translate(12.001 12)" fill="#fff"/>
  <path id="線_10" data-name="線 10" d="M12,9a1,1,0,0,1-.554-.168l-12-8A1,1,0,0,1-.832-.555,1,1,0,0,1,.555-.832l12,8A1,1,0,0,1,12,9Z" transform="translate(12 20)" fill="#fff"/>
</svg>
