<svg xmlns="http://www.w3.org/2000/svg" width="21.249" height="27.713" viewBox="0 0 21.249 27.713">
  <g id="tel-btn" transform="translate(-79.712 -81.999)">
    <path id="パス_28813" data-name="パス 28813" d="M61.612,1.174c-1.9,1.235-2.278,5.1-1.559,8.241a28.418,28.418,0,0,0,3.757,8.832,29.513,29.513,0,0,0,6.531,7.033c2.58,1.939,6.257,3.172,8.161,1.937a9.643,9.643,0,0,0,2.459-2.637L79.938,23l-2.813-4.337c-.209-.322-1.52-.028-2.186.349a6.341,6.341,0,0,0-1.726,1.875c-.616.356-1.132,0-2.21-.495-1.325-.61-2.814-2.5-4-4.219-1.083-1.782-2.2-3.915-2.221-5.373-.013-1.187-.127-1.8.449-2.22a6.341,6.341,0,0,0,2.416-.811c.616-.454,1.42-1.531,1.211-1.853L66.045,1.581,65.022,0A9.644,9.644,0,0,0,61.612,1.174Z" transform="translate(20 82)" fill="#4b4b4b"/>
  </g>
</svg>
