<?xml version="1.0" encoding="UTF-8"?>
<svg id="_レイヤー_2" data-name="レイヤー 2" xmlns="http://www.w3.org/2000/svg" viewBox="0 0 570.44 35.53">
  <defs>
    <style>
      .cls-1 {
        stroke-width: 0px;
      }
    </style>
  </defs>
  <g id="design">
    <g>
      <path class="cls-1" d="m1.71,2.27v32.18H0V.56h12.44v1.71H1.71Z"/>
      <path class="cls-1" d="m30.61,30.8c-.93,0-1.53-.86-1.71-1.15-1.64-2.64-1.83-2.94-2.35-3.65-2.46,4.02-5.92,6.18-8.57,7.6l-.07-.22c2.98-2.46,4.95-5.85,6.55-9.39-1.3-.97-2.31-1.49-2.98-1.83-.26,1.45-.45,2.57-2.23,2.57-1.01,0-1.45-.56-1.45-.97,0-.15.04-.22.19-.89.89-3.58,1.04-4.32,2.76-12.96-1.9,0-2.79.11-3.5.22l-.63-1.38c1.64.15,2.64.19,4.32.22.75-3.69.93-6.07.93-6.82,0-.86-.11-1.42-.22-1.94l3.99,1.19c.48.15.71.26.71.6s-.15.48-1.15,1.08c-.19.93-1.01,5.07-1.19,5.89h2.83l1.19-1.12c.33-.33.45-.45.71-.45s.45.19.63.34l1.64,1.42c.15.11.37.37.37.67,0,.45-.26.67-1,1.3-.3,4.77-1.3,9.31-2.61,12.55.97.52,4.43,2.42,4.43,5.25,0,1.64-1.16,1.86-1.56,1.86Zm-6.82-20.93c-.67,3.31-1.23,6.29-2.2,11.7.52.07,1.64.26,3.46.93.86-2.31,2.27-8.42,2.01-12.63h-3.28Zm26.63,7.64h-8.49c0,1.86.15,10.06.15,11.73,0,2.83-.33,4.4-4.32,5.03-.52-2.57-2.53-3.87-3.91-4.43l.19-.26c2.68.22,3.09.26,3.99.26s1.04-.22,1.04-1.08v-11.25h-4.1c-2.27,0-3.09.07-4.02.22l-.6-1.34c2.27.19,4.88.22,5.29.22h3.43c-.08-2.42-.15-6.74-.78-8.49l1.71.48c.78-1.15,1.6-2.42,3.13-5.29h-6.78c-2.31,0-3.09.07-4.02.22l-.63-1.34c2.27.19,4.92.22,5.33.22h6.18l.86-.89c.52-.52.6-.6.82-.6s.6.22.78.37l2.42,1.64c.19.11.45.3.45.78,0,.78-.71.82-1.75.93-1.34.97-1.79,1.27-6.07,4.13l1.45.37c.37.11.67.19.67.6,0,.22-.11.41-.82.86-.04.3-.08,4.95-.08,6h3.24l1.83-2.16c.41-.48.41-.52.6-.52.22,0,.48.22.67.41l2.35,2.16c.22.22.37.37.37.6,0,.34-.34.41-.56.41Z"/>
      <path class="cls-1" d="m74.26,26.3c-.52,0-.67-.15-2.12-1.42-1.3-1.15-7.23-2.53-10.35-2.53-.93,0-4.99,0-4.99,3.54,0,4.1,5.81,4.1,7.19,4.1.89,0,2.16-.04,2.87-.11.15-.04,2.05-.19,2.09-.19,1.04,0,2.79.52,2.79,1.71,0,1.71-2.01,1.71-2.42,1.71-5.29,0-14.34,0-14.34-6.67,0-5.14,5.44-5.4,8.19-5.4s5.36.15,7.93.86c.08,0,.22.04.37.04s.3-.04.3-.22-.15-.56-.41-.93c-1.82-2.53-2.31-3.2-3.5-4.84-3.43,1.08-7,1.6-8.19,1.6-2.2,0-3.99-1.19-4.92-3.28,1,.45,2.61,1.15,4.88,1.15.33,0,3.32,0,6.89-1.42-.41-.67-.97-1.64-2.05-3.8-.41.15-3.35,1.01-4.8,1.01-.56,0-3.69-.22-4.39-2.83,1.45.63,1.94.86,3.5.86,2.27,0,3.61-.48,4.84-.89-.07-.19-.15-.37-.71-1.83-.41-1.12-1.15-2.98-3.84-2.98-.26,0-.45.04-.82.07.15-.56.6-2.23,3.39-2.23,1.34,0,2.64.45,3.09.89.41.41.41.89.41,1.6,0,.75,0,1.86.56,3.58,1.01-.52,1.49-.78,2.2-1.34,1.3-.97,1.45-1.08,2.05-1.08.97,0,1.83.56,1.83,1.19,0,1.23-3.76,2.76-5.29,3.31.15.45.75,1.75,1.94,3.61,1.68-.78,2.53-1.3,3.17-1.71,1.19-.78,1.34-.86,2.01-.86,1.04,0,1.9.56,1.9,1.23,0,.56-.52.97-1.04,1.27-.93.52-2.79,1.49-4.54,2.16.63.82,2.53,3.05,4.54,5.29,1.49,1.64,1.49,2.31,1.49,2.83,0,.67-.34,2.94-1.68,2.94Z"/>
      <path class="cls-1" d="m98.76,8.42c-2.5.86-5.07,1.56-7.64,2.12-4.66,10.24-5.59,12.25-7.23,14.49-.11.19-.48.63-1.04.63-.48,0-1.45-.41-1.45-1.71,0-.93.52-1.64.82-2.05,1.19-1.64,3.58-4.95,6.22-10.73-.82.19-1.86.41-3.13.41-3.28,0-3.95-1.86-3.95-2.72,0-.37.11-.71.26-1.08.6,1.12,1.71,1.64,3.87,1.64,1.16,0,2.27-.15,3.91-.52.19-.48,1.27-3.28,1.27-4.51,0-1.38-1.53-1.83-2.16-2.01.63-.56,1.3-.89,2.12-.89,1.42,0,3.84,1.56,3.84,2.64,0,.48-.48,1.12-.67,1.42-.71,1.08-.89,1.45-1.45,2.5.93-.3,1.86-.67,2.68-1.04,1.71-.78,1.9-.89,2.35-.89.52,0,2.23.63,2.23,1.45,0,.48-.52.75-.86.86Zm9.35,9.2c-.67,0-1.27-.3-1.49-.41-1.64-.89-2.2-1.19-3.54-1.19-3.58,0-3.8,2.91-3.8,4.36,0,1.97.41,3.65.67,4.8,3.54.63,7.15,2.46,7.15,4.51,0,.37-.22,1.64-1.23,1.64-.71,0-2.23-1.08-3.02-1.64-1.3-.97-1.75-1.15-2.53-1.49-.04.82-.15,2.46-1.42,3.61-1.53,1.42-4.17,1.53-4.73,1.53-2.98,0-5.92-1.79-5.92-4.36,0-2.98,3.28-4.25,7.23-4.25.67,0,1.12.04,1.6.07-.22-1.94-.3-2.61-.3-3.5,0-4.51,4.43-5.85,6-6.33.15-.04.86-.19.97-.26.15-.11.19-.26.19-.37,0-.74-1.97-2.12-5.14-2.79.93-.3,1.79-.48,2.79-.48,4.58,0,7.75,3.09,7.75,5.21,0,.75-.37,1.34-1.23,1.34Zm-13.97,9.13c-.71,0-4.51,0-4.51,2.2,0,1.56,2.53,2.09,3.91,2.09,3.76,0,3.72-2.98,3.69-3.91-.74-.22-1.27-.37-3.09-.37Z"/>
      <path class="cls-1" d="m146.43,9.42h-28.08c-2.27,0-3.09.11-4.02.26l-.63-1.38c2.27.22,4.92.22,5.33.22h21.86l1.83-2.31c.41-.48.45-.6.63-.6.26,0,.48.22.71.45l2.61,2.38c.19.19.33.37.33.56,0,.37-.33.41-.56.41Zm-5.51,4.88h-17.51c-2.31,0-3.09.11-4.06.26l-.6-1.38c2.27.22,4.92.22,5.33.22h11.7l1.64-2.23c.22-.33.37-.52.6-.52s.48.22.71.41l2.38,2.23c.37.34.41.48.41.6,0,.37-.37.41-.6.41Zm-.15-10.32h-17.32c-2.27,0-3.09.07-4.02.22l-.6-1.34c2.27.19,4.88.22,5.29.22h11.62l1.53-2.09c.33-.45.41-.56.63-.56s.45.19.71.41l2.35,2.12c.07.04.37.33.37.6,0,.34-.26.41-.56.41Zm.48,15.23h-17.77c-2.27,0-3.09.07-4.02.22l-.6-1.34c2.27.19,4.88.22,5.29.22h12.14l1.71-2.16c.26-.33.37-.45.56-.45.26,0,.56.26.78.48l2.05,1.97c.37.37.41.41.41.63,0,.34-.3.41-.56.41Zm.07,5.48c0,.37-.04.86-.04,1.53,0,.89.26,4.69.26,5.48,0,1.86-1.71,2.09-2.05,2.09-1.68,0-1.6-1.38-1.53-2.09h-15.35c-.07,1.15-.15,2.5-2.27,2.5-.78,0-1.27-.33-1.27-1.12s.19-1.94.22-2.68c.07-.89.07-2.09.07-3.43,0-1.45,0-4.77-.15-5.96l3.76,1.82h14.64l1.34-1.3c.19-.19.45-.45.63-.45.15,0,.26.07.41.19l2.12,1.45c.19.11.37.37.37.63,0,.41-.11.48-1.19,1.34Zm-3.35-.97h-15.35v7.08h15.35v-7.08Z"/>
      <path class="cls-1" d="m178.94,11.55l1.23-1.71c.19-.26.37-.52.56-.52s.41.22.71.45l2.2,1.71c.22.15.37.37.37.6,0,.34-.33.37-.6.37h-7.23c0,.89.04,3.65,0,3.87-.15.82-1.08,1.08-1.71,1.08-.82,0-1.12-.48-1.12-.71,0-.15.04-.56.04-.75h-5.33c0,.75,0,1.79-1.6,1.79-.52,0-1.3-.19-1.3-1.08,0-.67.04-3.61.04-4.21h-4.21c0,.97.04,5.18.04,6.03h15.83l1.49-1.68c.37-.41.41-.48.56-.48.26,0,.6.34.71.41l1.9,1.68c.22.22.37.34.37.6,0,.34-.33.37-.6.37h-20.26c-.04.63-.11,1.6-1.71,1.6-1.34,0-1.34-.67-1.34-1.15,0-.26.11-1.23.11-1.56.08-1.15.11-2.64.11-3.76v-2.05h-2.72c-2.27,0-3.09.11-4.02.26l-.6-1.38c2.27.22,4.88.22,5.29.22h2.01c0-.45-.04-2.05-.48-4.1l3.54.97c.33.11.63.19.63.52,0,.37-.52.89-.75,1.12-.04.63-.08.89-.08,1.49h4.13c0-.33-.15-2.38-.26-2.83-.63.74-1.49.74-1.68.74-1.27,0-1.27-.48-1.19-3.58h-5.51c-2.27,0-3.09.07-4.02.22l-.6-1.34c2.27.19,4.88.22,5.29.22h4.84c0-2.23,0-2.61-.63-4.43l4.17,1.23c.26.07.52.26.52.52,0,.45-.63.82-.93,1.01-.07,1.08-.07,1.23-.07,1.68h5.03c0-2.27-.22-3.28-.63-4.54l3.91,1.12c.37.11.56.22.56.48,0,.33-.15.45-.86,1.01-.04,1.27-.04,1.42,0,1.94h4.66l1.23-1.97c.07-.11.33-.48.6-.48.19,0,.48.22.67.41l2.27,1.97c.22.19.37.3.37.56,0,.34-.3.41-.56.41h-9.24c.04.41.07,1.56.07,1.97l3.35.89c.22.07.41.22.41.52,0,.37-.22.48-.74.86v1.42h2.76Zm-9.01,12.66c4.1,3.05,8.98,4.92,14.08,4.88v.3c-.63.22-1.42.6-2.5,1.79-.93,1.04-1.19,1.3-1.42,1.64-4.54-1.6-8.27-4.8-11.25-8.6h-.07c0,1.23.11,7.3.11,8.68,0,1.08-1.12,1.49-1.86,1.49-.93,0-1.42-.52-1.42-1.23,0-.26.15-1.53.15-1.79.08-1.56.08-2.68.11-6.33-2.01,2.2-8.23,7-14.71,8.38l-.15-.3c3.76-1.97,8.57-5.44,11.25-8.9h-5.74c-2.57,0-3.28.11-4.02.26l-.6-1.38c1.75.15,3.54.22,5.29.22h8.68c-.04-1.97-.04-2.01-.56-3.87l3.84.89c.67.15.86.22.86.52,0,.15-.11.33-.26.48-.15.11-.71.6-1,.82,0,.48.04.86.04,1.15h8.94l1.34-1.9c.08-.11.34-.48.56-.48s.56.3.71.41l2.16,1.9c.19.15.37.33.37.56,0,.37-.37.41-.56.41h-12.37Zm3.43-12.66c-.11-1.97-.15-2.2-.3-2.91-.15.3-.45.89-1.68.89s-1.42-.45-1.27-3.65h-5.03c0,.26.04,1.71.04,2.01l3.17.93c.11.04.45.07.45.33,0,.11-.22.34-.67.71v1.68h5.29Zm-5.33.89v2.61h5.36v-2.61h-5.36Z"/>
      <path class="cls-1" d="m188.47,32.22l-1.04-.63,15.94-27.94,1.04.6-15.94,27.97Z"/>
      <path class="cls-1" d="m240.05,18.51h-14.6c0,.97-.04,5.25-.04,6.11,0,.48.15,6.97.15,7.38,0,1.6,0,2.72-2.5,2.72-1.12,0-1.12-.74-1.12-1.97,0-2.98.26-7.71.3-10.69,0-.48,0-.78.04-3.54h-10.43c-2.27,0-3.09.07-4.02.26l-.6-1.38c2.27.19,4.88.22,5.29.22h9.76c.04-1.53.11-8.31.11-9.72h-7.08c-.15.22-2.94,4.92-6.03,7.19l-.19-.15c2.16-3.69,4.88-11.32,4.88-14.08,0-.3-.04-.48-.08-.86l4.47,1.9c.11.04.52.22.52.6,0,.33-.19.48-1.45.86-.3.93-.56,1.71-1.64,3.65h16.05l1.83-2.12c.15-.19.37-.48.56-.48s.41.22.67.41l2.76,2.12c.22.19.37.37.37.6,0,.33-.33.37-.56.37h-12.03v9.72h8.75l1.97-2.01c.19-.22.41-.45.6-.45.22,0,.45.22.71.41l2.79,1.97c.15.11.37.33.37.56,0,.37-.33.41-.6.41Z"/>
      <path class="cls-1" d="m256.17,10.73c-.63.93-1.45,2.16-3.17,4.13.89.63,1.01.67,1.01.93,0,.34-.67.75-1.08.97-.15,3.65-.15,9.09-.15,12.85,0,.37.04,2.23.04,2.64s0,.82-.37,1.19c-.45.45-1.38.71-1.97.71-.89,0-1.12-.37-1.12-1.15,0-.22.07-1.12.07-1.38.37-6.07.41-6.82.52-13.63-2.72,2.64-4.28,3.46-5.1,3.87l-.19-.22c2.38-2.61,8.53-10.21,9.24-14.94l3.2,2.46c.3.22.45.52.45.71,0,.48-.97.74-1.38.86Zm-.19-7.11c-4.8,4.54-8.49,5.85-10.28,6.44l-.11-.19c1.23-.89,7.15-5.74,8.12-9.72l3.58,2.05c.45.26.52.41.52.63,0,.45-.48.6-1.83.78Zm19.7,30.1c-4.84-1.12-7.49-3.02-9.46-4.92-4.25,3.39-7.97,4.54-11.81,4.88l-.07-.22c4.92-1.68,8.94-5.44,10.17-6.67-1.42-1.94-1.97-3.46-2.35-4.51-1.64,2.12-4.06,4.51-7.75,6.11l-.11-.19c3.58-3.2,6.67-8.75,7.56-11.17-1.49.19-4.02.56-4.47.6-.19.3-.56.97-.93.97-.33,0-.41-.26-.52-.67l-1.01-3.65c2.2.56,2.87.67,7.82.6.97-.97,6.82-7.3,7.86-10.62l3.43,2.09c.19.11.45.33.45.63,0,.71-.89.78-2.09.93-.56.48-.93.86-4.21,3.99-1.68,1.56-1.83,1.68-3.72,2.94.63-.04,7.08-.26,8.23-.3-.63-.93-1.68-2.16-2.27-2.83l.15-.15c4.92,1.27,7.04,4.47,7.04,6.03,0,.6-.37,1.79-1.68,1.79-.71,0-1.23-.41-1.53-1.01-.19-.45-1.12-2.61-1.34-3.09-2.16.52-7.34,1.23-9.91,1.56l2.12.97c.19.11.56.26.56.6,0,.41-.41.63-1.6.75-.3.48-.33.56-.63,1.04h4.99l1.68-1.45c.26-.22.37-.34.6-.34.19,0,.52.26.6.3l1.94,1.42c.26.15.45.41.45.67,0,.6-1.23,1.01-1.94,1.23-.6,1.01-1.75,3.02-4.06,5.33,2.68,1.75,5.85,2.57,9.09,2.57.78,0,1.3-.04,1.75-.07l.04.3c-1.64.93-2.46,1.82-3.05,3.58Zm-8.16-30.54c-.93,1.01-3.24,3.39-4.51,4.4,1.45,1.15,2.05,2.35,2.05,3.13,0,.63-.45,1.64-1.64,1.64-.86,0-1.15-.41-1.9-1.86-1.45-2.91-2.38-3.65-3.2-4.4l.07-.15c.78.04,1.9.11,3.61.97.75-1.19,2.27-3.72,2.83-6.78l3.91,1.71c.34.11.56.3.56.6,0,.52-.19.56-1.79.75Zm-4.47,17.92c-.26.34-.26.37-.37.48,1,1.86,2.05,3.09,2.98,4.02,1.9-2.05,2.76-3.31,3.2-4.51h-5.81Z"/>
      <path class="cls-1" d="m298.26,30.32c2.72-1.04,11.7-4.58,11.7-13.71,0-5.18-3.35-9.98-10.73-9.98-1.12,0-1.86.11-2.35.19,2.5,1.08,3.2,2.64,3.2,3.2,0,.52-2.76,6.59-4.8,10.43-3.87,7.3-5.14,7.56-6.18,7.56-.82,0-1.23-.56-2.38-2.2-.52-.75-.67-.86-1.49-1.56-1.12-.93-1.68-2.91-1.68-4.32,0-8.01,6.93-14.53,15.98-14.53,7.63,0,13.89,4.4,13.89,11.77,0,7.75-6.7,12.66-15.16,13.41v-.26Zm-11.96-11.06c0,2.38,1.12,5.59,2.5,5.59,1.19,0,2.64-2.76,3.43-4.21,1.19-2.27,4.51-9.01,4.51-11.25,0-.26-.04-1.27-1.27-2.35-5.07,1.15-9.16,7.41-9.16,12.22Z"/>
      <path class="cls-1" d="m333.15,5.55c-.19.07-.97.34-1.12.41-3.31,5.36-6.63,9.65-13.71,13.63l-.19-.3c6.33-6.11,10.73-13.74,10.73-16.61,0-.3-.04-.52-.07-.86l4.28,2.57c.22.15.41.41.41.63,0,.26-.15.41-.34.52Zm13.04,27.34c-1.08,0-1.6-.89-1.75-1.23-.3-.63-1.45-3.5-1.71-4.1-3.87,1.42-11.88,3.58-17.51,4.51-.15.19-.74.78-.89.89-.11.11-.22.19-.41.19-.41,0-.63-.48-.71-.74l-1.3-4.13c.82.15,1.79.33,3.02.33.56,0,1.53-.11,3.05-.26,2.01-4.1,4.54-10.76,4.84-13.22.11-.74.07-1.53.04-2.31l4.28,1.79c.19.07.6.37.6.75,0,.33-.11.41-1.04.86-1.12,1.53-2.72,4.25-3.91,6.29-1.3,2.23-2.46,4.06-3.65,5.74,9.91-.93,11.4-1.08,13.19-1.45-1.86-2.72-3.31-4.21-3.99-4.84v-.19c4.06.97,9.98,5.14,9.98,8.75,0,2.05-1.53,2.38-2.12,2.38Zm3.13-14.27c-4.66-2.27-9.39-7.52-10.47-15.27h-.97c-2.27,0-3.09.07-4.02.22l-.6-1.34c1.64.11,2.76.15,4.62.19l1.08-1.3c.15-.19.37-.45.63-.45.22,0,.52.19.75.37l1.86,1.42c.22.15.37.41.37.6,0,.3-.19.45-.52.63-.67.33-.86.41-2.01.97,1.56,4.43,6.29,9.27,13.04,10.06v.19c-1.71.89-3.02,1.56-3.76,3.72Z"/>
      <path class="cls-1" d="m383.13,2.94l1.34-1.04c.22-.19.41-.3.63-.3.19,0,.37.11.6.3l1.83,1.56c.19.19.45.45.45.56,0,.56-.26.75-1.23,1.45-.04,4.1.07,22.31.07,26,0,1.86-1.38,2.35-2.09,2.35-.3,0-1.27-.11-1.27-1.19,0-.15,0-.22.08-.89h-22.27c0,.37.04.89-.08,1.27-.22.71-1.27,1.27-2.05,1.27-1.19,0-1.19-1.12-1.19-1.42,0-.41.07-1.04.07-1.45.22-4.58.19-14.53.19-19.78,0-5.66,0-7.9-.41-10.39l3.61,1.71h21.71Zm-21.9.89v27h22.31V3.84h-22.31Zm19,18.03c.11.11.19.26.19.37,0,.75-.75.71-1.34.67-1.27.34-1.38.41-2.53.78,1.45.56,4.51,1.71,4.51,3.8,0,1.01-.71,1.49-1.42,1.49-.56,0-.89-.3-1.49-.97-2.05-2.42-3.05-3.54-4.73-4.66,0,.71.15,3.8.15,4.47,0,1.19-.89,1.97-1.86,1.97-1.12,0-1.12-1.12-1.12-1.45,0-.97.11-5.33.11-6.18-.93,1.01-4.1,3.91-9.09,5.55l-.19-.26c5.48-4.06,7.23-6.29,8.23-7.78h-1.53c.08,1.23-1.12,1.6-1.71,1.6-1.3,0-1.34-1.01-1.3-1.42,0,0,.19-2.53.19-3.02,0-2.27-.11-2.83-.3-3.95l3.58,1.49h7.45l.93-.86c.3-.26.45-.41.6-.41.22,0,.37.15.56.3l1.45,1.38c.15.11.3.37.3.56,0,.22-.11.3-.82,1.04,0,.45.07,2.42.07,2.83,0,.56-.04.86-.37,1.3l1.49,1.34Zm-4.13-13.97l.89-1.49c.15-.22.26-.45.52-.45s.6.22.75.37l1.6,1.45c.11.11.37.37.37.6,0,.34-.3.41-.56.41h-6.11v2.72h4.25l1.27-1.56c.3-.37.37-.48.56-.48s.33.11.71.41l1.9,1.56c.19.15.37.34.37.56,0,.37-.3.41-.56.41h-15.83c-2.27,0-3.09.07-4.02.26l-.6-1.38c2.27.19,4.88.22,5.29.22h3.76v-2.72h-2.76c-2.27,0-3.09.11-4.02.26l-.6-1.38c2.27.22,4.88.22,5.29.22h2.12c.04-1.56-.19-2.23-.82-3.61l4.02,1.12c.22.07.48.26.48.48,0,.48-.41.71-.82.93v1.08h2.53Zm.11,10.88v-3.5h-8.12v3.5h8.12Zm-2.76.89c0,.45-.04,2.68-.04,3.2.41.04,1.04.15,2.12.48.89-1.04,1.12-1.3,1.86-2.38-1.3-.07-1.27-.56-1.23-1.3h-2.72Z"/>
      <path class="cls-1" d="m393.85,34.16v-1.71h10.73V.26h1.71v33.89h-12.44Z"/>
      <path class="cls-1" d="m427,6.15h-6.48c.74.34,3.46,1.6,3.46,3.31,0,.3-.19,1.86-1.68,1.86s-1.56-.97-1.94-2.87c-.15-.86-.48-1.71-1.12-2.31h-.19c-2.46,3.61-4.51,5.4-6.33,6.85l-.19-.22c.86-1.3,4.02-7.26,4.73-9.98.08-.3.19-1.12.11-2.53l4.1,1.86c.22.11.48.26.48.48,0,.56-.11.6-1.27,1.04-.71,1.12-.82,1.27-1.04,1.6h3.35l.93-1.71c.11-.19.26-.45.56-.45.15,0,.37.11.67.37l2.01,1.71c.19.15.37.34.37.56,0,.37-.33.41-.56.41Zm16.65-.07h-11.25c.78.26,2.91,1.04,2.91,2.64,0,.48-.22.97-.6,1.3.41-.07,1.83-.41,2.57-.71.22-.07,1.01-.48,1.45-.74l3.13,2.46c.11.07.19.22.19.41,0,.22-.07.63-.67.63-.26,0-1.53-.15-1.79-.15-1.38.19-3.65.48-4.69.56-2.98.22-4.13.22-14.53.37,0,.3,0,1.83-.04,2.2h17.51l.97-1.23c.3-.37.48-.48.67-.48s.37.15.6.33l1.68,1.27c.22.15.48.41.48.6,0,.22-.11.3-.19.37-.11.11-.56.52-.78.75,0,.3.11,1.71.11,2.05,0,.75,0,2.16-1.9,2.16-1.01,0-1.27-.26-1.27-1.15h-18.03c-.37,4.43-.82,10.17-7.45,13.93l-.19-.07c3.91-5.51,4.92-10.06,4.92-16.54,0-2.31-.22-5.36-.41-6.74l3.61,1.6c4.25-.26,9.61-.93,12.66-1.56-.75-.26-.97-.67-1.12-1.42-.34-1.42-.41-1.83-1.19-2.53-1.34,1.86-2.53,3.13-4.58,4.51l-.22-.15c.63-.82,4.13-7.41,3.8-10.24l3.95,1.6c.3.11.41.3.41.45,0,.52-.41.78-1.34,1.08-.37.48-.45.6-1.16,1.56h7.49l1.15-1.83c.11-.19.33-.48.6-.48.19,0,.48.26.67.41l2.05,1.83c.15.15.37.33.37.56,0,.41-.37.41-.56.41Zm-5.44,9.87h-17.88c0,.41-.07,2.42-.11,2.87h17.99v-2.87Zm5.4,7.23c-.15.15-.82.67-.97.78.04,1.15.15,6.11.15,7.11,0,3.2-3.32,3.76-3.84,3.84.07-1.19-1.01-3.05-2.5-4.13l.04-.15c.67.19,2.09.26,2.83.26.41,0,.41-.22.41-.82v-2.5h-3.76c0,.63.15,3.35.15,3.91,0,.6,0,2.27-1.82,2.27-1.23,0-1.23-.78-1.23-1.27,0-.74.15-4.21.19-4.92h-3.69c0,.78.11,4.06.11,4.73,0,.48-.33,1.49-1.83,1.49-.82,0-1.12-.41-1.12-1.15,0-.78.11-4.32.11-5.07h-3.43c0,.15.04,5.74,0,5.89-.08.26-.56,1.23-1.64,1.23-1.42,0-1.42-.86-1.42-1.23,0-1.49.3-8.01.3-9.35,0-.22,0-2.42-.11-3.46l3.35,1.56h15.42l1.08-1.15c.15-.19.37-.37.67-.37.22,0,.48.19.71.34l1.49.97c.19.11.48.37.48.78,0,.15-.07.33-.15.41Zm-20.19-.07v3.58h3.43l.04-3.58h-3.46Zm6.18,0l-.04,3.58h3.69c0-.82.04-1.9.04-3.58h-3.69Zm10.13,0h-3.76v3.58h3.76v-3.58Z"/>
      <path class="cls-1" d="m474.05,27.65c0,3.24-2.74,6.17-6.65,6.17-3.6,0-5.61-2.51-5.61-4.24,0-.98.81-1.76,1.73-1.76.59,0,1.56.42,1.56,1.81,0,.36-.03.7-.17,1.03-.11.25-.2.5-.2.75,0,1.17,1.37,1.42,2.21,1.42,2.82,0,4.02-2.4,4.02-4.83,0-3.38-2.15-5.22-3.99-5.22-.14,0-.84.14-1.01.14-.36,0-.61-.14-.61-.56,0-.36.22-.67.64-.67.14,0,.87.14,1,.14,1.96,0,3.46-1.65,3.46-4.41,0-2.26-1.12-4.08-3.04-4.08-1.26,0-2.01.73-2.01,1.65,0,.25.28,1.4.28,1.65,0,1.01-.78,1.54-1.56,1.54-.84,0-1.65-.64-1.65-1.62,0-1.84,1.93-4.16,5.45-4.16s5.53,2.46,5.53,4.8c0,1.4-.78,3.83-4.5,5.03,1.59.53,5.11,1.79,5.11,5.42Z"/>
      <path class="cls-1" d="m488.46,23.1c0,6.09-2.57,10.72-6.28,10.72s-6.28-4.77-6.28-10.72,2.6-10.69,6.28-10.69,6.28,4.75,6.28,10.69Zm-9.47,0c0,3.71.28,9.83,3.18,9.83s3.18-5.92,3.18-9.83c0-3.66-.28-9.8-3.18-9.8s-3.18,5.95-3.18,9.8Z"/>
      <path class="cls-1" d="m498.44,18.05l.64-1.2c.08-.17.28-.34.45-.34s.33.14.5.28l1.23,1.2c.11.11.28.28.28.42,0,.25-.25.31-.42.31h-3.24v2.46c1.87.75,3.29,2.15,3.29,3.55,0,.56-.25,1.23-1.09,1.23-1.09,0-1.28-.59-1.59-2.07-.14-.61-.33-1.51-.61-1.93-.03,3.66-.03,4.83-.03,7.26,0,.84.08,4.44.08,5.17,0,1.06-1.23,1.15-1.7,1.15-.81,0-1.03-.28-1.03-1.01,0-.25.11-2.01.14-2.35.08-1.12.22-4.97.22-7.87-.53.81-2.6,3.66-5.84,5.81l-.14-.25c3.24-3.21,5.7-9.24,5.89-11.14h-1.28c-1.7,0-2.32.06-3.02.2l-.45-1.03c1.31.11,2.62.17,3.97.17h.92c0-.7,0-3.77-.03-4.41-2.07.42-3.71.47-4.83.53v-.17c3.52-.98,5.84-2.18,7.46-3.21.53-.33.84-.7,1.12-1.09l2.29,2.04c.08.08.17.25.17.42,0,.28-.39.33-.61.33-.2,0-.56-.14-.75-.28-.56.25-1.23.56-2.54.92v4.91h.56Zm16.59,5.31c.14.08.25.25.25.39,0,.36-.36.56-1.09.7-2.32,4.08-9.8,9.66-15.69,10.19l-.08-.22c3.57-1.79,9.52-5.19,12.57-9.72,1.28-1.87,1.28-2.51,1.26-3.29l2.79,1.95Zm-9.44-7.29c.33.11.39.22.39.34,0,.33-.31.5-.89.78-.47.75-2.62,4.24-4.27,5.61l-.25-.03c.98-1.65,2.09-5.78,2.09-6.9,0-.14-.08-.64-.14-.87l3.07,1.06Zm3.63-5.11c.39.08.47.2.47.33,0,.28-.2.47-.84,1.01,0,1.28-.03,12.01-.03,12.29-.03.87-.39,2.46-3.29,2.82-.33-2.09-1.48-2.82-2.09-3.21l.03-.17c.42.03,1.76.14,2.49.14.25,0,.47-.14.53-.45.06-.48.06-6.39.06-7.06,0-4.24-.08-5.28-.75-6.53l3.43.84Zm1.31,4.97c3.83.98,5.84,2.09,5.84,3.91,0,.95-.67,1.56-1.4,1.56-.89,0-1.15-.53-1.7-1.68-.75-1.56-1.17-1.98-2.82-3.63l.08-.17Z"/>
      <path class="cls-1" d="m528.91,29.33l4.69-12.93c.17-.5.2-1.01.2-1.2,0-.53-.08-1.37-1.87-1.37h-.59v-.92h6.48v.92h-.67c-1.54,0-2.23,1.51-2.68,2.76l-6.2,17.23h-.59l-6-17.9c-.14-.39-.84-2.09-2.43-2.09h-.56v-.92h7.93v.92h-.73c-1.48,0-1.65.61-1.65,1.09,0,.17.03.56.08.7l4.58,13.71Z"/>
      <path class="cls-1" d="m542.76,26.06c0,5.98,3.49,6.37,4.41,6.37.33,0,2.35,0,4.19-2.43l.64.61c-.64.89-2.4,3.21-5.75,3.21s-5.98-2.54-5.98-6.62c0-4.52,3.21-7.65,6.09-7.65s5.17,2.76,5.53,6.51h-9.13Zm6.42-.89c-.03-.98-.14-4.64-2.74-4.64-.42,0-2.88,0-3.6,4.64h6.34Z"/>
      <path class="cls-1" d="m554.24,20.92l4.66-1.51v3.8c2.21-3.43,4.08-3.66,4.69-3.66.81,0,1.76.61,1.76,1.7,0,.95-.73,1.73-1.59,1.73-.61,0-.89-.33-1.26-.73-.33-.36-.53-.45-.73-.45-1.65,0-2.88,3.41-2.88,4.19v4.89c0,.61.53,1.51,1.34,1.51h1.28v.89h-7.43v-.89h1.09c.53,0,1.51-.73,1.51-1.62v-8.24c0-.7-.39-1.17-1.06-1.17-.36,0-.89.14-1.23.28l-.17-.73Z"/>
      <path class="cls-1" d="m570.44,32.04c0,.98-.81,1.79-1.79,1.79s-1.79-.81-1.79-1.79.81-1.79,1.79-1.79,1.79.78,1.79,1.79Z"/>
    </g>
  </g>
</svg>