<?xml version="1.0" encoding="UTF-8"?>
<svg id="_レイヤー_2" data-name="レイヤー 2" xmlns="http://www.w3.org/2000/svg" viewBox="0 0 567.68 35.64">
  <defs>
    <style>
      .cls-1 {
        stroke-width: 0px;
      }
    </style>
  </defs>
  <g id="design">
    <g>
      <path class="cls-1" d="m1.71,2.38v32.18H0V.67h12.44v1.71H1.71Z"/>
      <path class="cls-1" d="m30.61,30.91c-.93,0-1.53-.86-1.71-1.15-1.64-2.64-1.83-2.94-2.35-3.65-2.46,4.02-5.92,6.18-8.57,7.6l-.07-.22c2.98-2.46,4.95-5.85,6.55-9.39-1.3-.97-2.31-1.49-2.98-1.82-.26,1.45-.45,2.57-2.23,2.57-1.01,0-1.45-.56-1.45-.97,0-.15.04-.22.19-.89.89-3.58,1.04-4.32,2.76-12.96-1.9,0-2.79.11-3.5.22l-.63-1.38c1.64.15,2.64.19,4.32.22.75-3.69.93-6.07.93-6.82,0-.86-.11-1.42-.22-1.94l3.99,1.19c.48.15.71.26.71.6s-.15.48-1.15,1.08c-.19.93-1.01,5.07-1.19,5.89h2.83l1.19-1.12c.33-.34.45-.45.71-.45s.45.19.63.34l1.64,1.42c.15.11.37.37.37.67,0,.45-.26.67-1,1.3-.3,4.77-1.3,9.31-2.61,12.55.97.52,4.43,2.42,4.43,5.25,0,1.64-1.16,1.86-1.56,1.86Zm-6.82-20.93c-.67,3.31-1.23,6.29-2.2,11.7.52.07,1.64.26,3.46.93.86-2.31,2.27-8.42,2.01-12.63h-3.28Zm26.63,7.64h-8.49c0,1.86.15,10.06.15,11.73,0,2.83-.33,4.4-4.32,5.03-.52-2.57-2.53-3.87-3.91-4.43l.19-.26c2.68.22,3.09.26,3.99.26s1.04-.22,1.04-1.08v-11.25h-4.1c-2.27,0-3.09.07-4.02.22l-.6-1.34c2.27.19,4.88.22,5.29.22h3.43c-.08-2.42-.15-6.74-.78-8.49l1.71.48c.78-1.15,1.6-2.42,3.13-5.29h-6.78c-2.31,0-3.09.07-4.02.22l-.63-1.34c2.27.19,4.92.22,5.33.22h6.18l.86-.89c.52-.52.6-.6.82-.6s.6.22.78.37l2.42,1.64c.19.11.45.3.45.78,0,.78-.71.82-1.75.93-1.34.97-1.79,1.27-6.07,4.13l1.45.37c.37.11.67.19.67.6,0,.22-.11.41-.82.86-.04.3-.08,4.95-.08,6h3.24l1.83-2.16c.41-.48.41-.52.6-.52.22,0,.48.22.67.41l2.35,2.16c.22.22.37.37.37.6,0,.34-.34.41-.56.41Z"/>
      <path class="cls-1" d="m74.26,26.41c-.52,0-.67-.15-2.12-1.42-1.3-1.15-7.23-2.53-10.35-2.53-.93,0-4.99,0-4.99,3.54,0,4.1,5.81,4.1,7.19,4.1.89,0,2.16-.04,2.87-.11.15-.04,2.05-.19,2.09-.19,1.04,0,2.79.52,2.79,1.71,0,1.71-2.01,1.71-2.42,1.71-5.29,0-14.34,0-14.34-6.67,0-5.14,5.44-5.4,8.19-5.4s5.36.15,7.93.86c.08,0,.22.04.37.04s.3-.04.3-.22-.15-.56-.41-.93c-1.82-2.53-2.31-3.2-3.5-4.84-3.43,1.08-7,1.6-8.19,1.6-2.2,0-3.99-1.19-4.92-3.28,1,.45,2.61,1.15,4.88,1.15.33,0,3.32,0,6.89-1.42-.41-.67-.97-1.64-2.05-3.8-.41.15-3.35,1.01-4.8,1.01-.56,0-3.69-.22-4.39-2.83,1.45.63,1.94.86,3.5.86,2.27,0,3.61-.48,4.84-.89-.07-.19-.15-.37-.71-1.82-.41-1.12-1.15-2.98-3.84-2.98-.26,0-.45.04-.82.07.15-.56.6-2.23,3.39-2.23,1.34,0,2.64.45,3.09.89.41.41.41.89.41,1.6,0,.74,0,1.86.56,3.58,1.01-.52,1.49-.78,2.2-1.34,1.3-.97,1.45-1.08,2.05-1.08.97,0,1.83.56,1.83,1.19,0,1.23-3.76,2.76-5.29,3.31.15.45.75,1.75,1.94,3.61,1.68-.78,2.53-1.3,3.17-1.71,1.19-.78,1.34-.86,2.01-.86,1.04,0,1.9.56,1.9,1.23,0,.56-.52.97-1.04,1.27-.93.52-2.79,1.49-4.54,2.16.63.82,2.53,3.05,4.54,5.29,1.49,1.64,1.49,2.31,1.49,2.83,0,.67-.34,2.94-1.68,2.94Z"/>
      <path class="cls-1" d="m98.76,8.53c-2.5.86-5.07,1.56-7.64,2.12-4.66,10.24-5.59,12.25-7.23,14.49-.11.19-.48.63-1.04.63-.48,0-1.45-.41-1.45-1.71,0-.93.52-1.64.82-2.05,1.19-1.64,3.58-4.95,6.22-10.73-.82.19-1.86.41-3.13.41-3.28,0-3.95-1.86-3.95-2.72,0-.37.11-.71.26-1.08.6,1.12,1.71,1.64,3.87,1.64,1.16,0,2.27-.15,3.91-.52.19-.48,1.27-3.28,1.27-4.51,0-1.38-1.53-1.82-2.16-2.01.63-.56,1.3-.89,2.12-.89,1.42,0,3.84,1.56,3.84,2.64,0,.48-.48,1.12-.67,1.42-.71,1.08-.89,1.45-1.45,2.5.93-.3,1.86-.67,2.68-1.04,1.71-.78,1.9-.89,2.35-.89.52,0,2.23.63,2.23,1.45,0,.48-.52.75-.86.86Zm9.35,9.2c-.67,0-1.27-.3-1.49-.41-1.64-.89-2.2-1.19-3.54-1.19-3.58,0-3.8,2.91-3.8,4.36,0,1.97.41,3.65.67,4.8,3.54.63,7.15,2.46,7.15,4.51,0,.37-.22,1.64-1.23,1.64-.71,0-2.23-1.08-3.02-1.64-1.3-.97-1.75-1.15-2.53-1.49-.04.82-.15,2.46-1.42,3.61-1.53,1.42-4.17,1.53-4.73,1.53-2.98,0-5.92-1.79-5.92-4.36,0-2.98,3.28-4.25,7.23-4.25.67,0,1.12.04,1.6.07-.22-1.94-.3-2.61-.3-3.5,0-4.51,4.43-5.85,6-6.33.15-.04.86-.19.97-.26.15-.11.19-.26.19-.37,0-.75-1.97-2.12-5.14-2.79.93-.3,1.79-.48,2.79-.48,4.58,0,7.75,3.09,7.75,5.21,0,.74-.37,1.34-1.23,1.34Zm-13.97,9.13c-.71,0-4.51,0-4.51,2.2,0,1.56,2.53,2.09,3.91,2.09,3.76,0,3.72-2.98,3.69-3.91-.74-.22-1.27-.37-3.09-.37Z"/>
      <path class="cls-1" d="m146.43,9.54h-28.08c-2.27,0-3.09.11-4.02.26l-.63-1.38c2.27.22,4.92.22,5.33.22h21.86l1.83-2.31c.41-.48.45-.6.63-.6.26,0,.48.22.71.45l2.61,2.38c.19.19.33.37.33.56,0,.37-.33.41-.56.41Zm-5.51,4.88h-17.51c-2.31,0-3.09.11-4.06.26l-.6-1.38c2.27.22,4.92.22,5.33.22h11.7l1.64-2.23c.22-.34.37-.52.6-.52s.48.22.71.41l2.38,2.23c.37.34.41.48.41.6,0,.37-.37.41-.6.41Zm-.15-10.32h-17.32c-2.27,0-3.09.07-4.02.22l-.6-1.34c2.27.19,4.88.22,5.29.22h11.62l1.53-2.09c.33-.45.41-.56.63-.56s.45.19.71.41l2.35,2.12c.07.04.37.34.37.6,0,.34-.26.41-.56.41Zm.48,15.23h-17.77c-2.27,0-3.09.07-4.02.22l-.6-1.34c2.27.19,4.88.22,5.29.22h12.14l1.71-2.16c.26-.34.37-.45.56-.45.26,0,.56.26.78.48l2.05,1.97c.37.37.41.41.41.63,0,.34-.3.41-.56.41Zm.07,5.48c0,.37-.04.86-.04,1.53,0,.89.26,4.69.26,5.48,0,1.86-1.71,2.09-2.05,2.09-1.68,0-1.6-1.38-1.53-2.09h-15.35c-.07,1.15-.15,2.5-2.27,2.5-.78,0-1.27-.34-1.27-1.12s.19-1.94.22-2.68c.07-.89.07-2.09.07-3.43,0-1.45,0-4.77-.15-5.96l3.76,1.83h14.64l1.34-1.3c.19-.19.45-.45.63-.45.15,0,.26.07.41.19l2.12,1.45c.19.11.37.37.37.63,0,.41-.11.48-1.19,1.34Zm-3.35-.97h-15.35v7.08h15.35v-7.08Z"/>
      <path class="cls-1" d="m178.94,11.66l1.23-1.71c.19-.26.37-.52.56-.52s.41.22.71.45l2.2,1.71c.22.15.37.37.37.6,0,.34-.33.37-.6.37h-7.23c0,.89.04,3.65,0,3.87-.15.82-1.08,1.08-1.71,1.08-.82,0-1.12-.48-1.12-.71,0-.15.04-.56.04-.74h-5.33c0,.74,0,1.79-1.6,1.79-.52,0-1.3-.19-1.3-1.08,0-.67.04-3.61.04-4.21h-4.21c0,.97.04,5.18.04,6.03h15.83l1.49-1.68c.37-.41.41-.48.56-.48.26,0,.6.34.71.41l1.9,1.68c.22.22.37.34.37.6,0,.34-.33.37-.6.37h-20.26c-.04.63-.11,1.6-1.71,1.6-1.34,0-1.34-.67-1.34-1.15,0-.26.11-1.23.11-1.56.08-1.15.11-2.64.11-3.76v-2.05h-2.72c-2.27,0-3.09.11-4.02.26l-.6-1.38c2.27.22,4.88.22,5.29.22h2.01c0-.45-.04-2.05-.48-4.1l3.54.97c.33.11.63.19.63.52,0,.37-.52.89-.75,1.12-.04.63-.08.89-.08,1.49h4.13c0-.34-.15-2.38-.26-2.83-.63.74-1.49.74-1.68.74-1.27,0-1.27-.48-1.19-3.58h-5.51c-2.27,0-3.09.07-4.02.22l-.6-1.34c2.27.19,4.88.22,5.29.22h4.84c0-2.23,0-2.61-.63-4.43l4.17,1.23c.26.07.52.26.52.52,0,.45-.63.82-.93,1.01-.07,1.08-.07,1.23-.07,1.68h5.03c0-2.27-.22-3.28-.63-4.54l3.91,1.12c.37.11.56.22.56.48,0,.34-.15.45-.86,1.01-.04,1.27-.04,1.42,0,1.94h4.66l1.23-1.97c.07-.11.33-.48.6-.48.19,0,.48.22.67.41l2.27,1.97c.22.19.37.3.37.56,0,.34-.3.41-.56.41h-9.24c.04.41.07,1.56.07,1.97l3.35.89c.22.07.41.22.41.52,0,.37-.22.48-.74.86v1.42h2.76Zm-9.01,12.66c4.1,3.05,8.98,4.92,14.08,4.88v.3c-.63.22-1.42.6-2.5,1.79-.93,1.04-1.19,1.3-1.42,1.64-4.54-1.6-8.27-4.8-11.25-8.6h-.07c0,1.23.11,7.3.11,8.68,0,1.08-1.12,1.49-1.86,1.49-.93,0-1.42-.52-1.42-1.23,0-.26.15-1.53.15-1.79.08-1.56.08-2.68.11-6.33-2.01,2.2-8.23,7-14.71,8.38l-.15-.3c3.76-1.97,8.57-5.44,11.25-8.9h-5.74c-2.57,0-3.28.11-4.02.26l-.6-1.38c1.75.15,3.54.22,5.29.22h8.68c-.04-1.97-.04-2.01-.56-3.87l3.84.89c.67.15.86.22.86.52,0,.15-.11.34-.26.48-.15.11-.71.6-1,.82,0,.48.04.86.04,1.15h8.94l1.34-1.9c.08-.11.34-.48.56-.48s.56.3.71.41l2.16,1.9c.19.15.37.34.37.56,0,.37-.37.41-.56.41h-12.37Zm3.43-12.66c-.11-1.97-.15-2.2-.3-2.91-.15.3-.45.89-1.68.89s-1.42-.45-1.27-3.65h-5.03c0,.26.04,1.71.04,2.01l3.17.93c.11.04.45.07.45.34,0,.11-.22.34-.67.71v1.68h5.29Zm-5.33.89v2.61h5.36v-2.61h-5.36Z"/>
      <path class="cls-1" d="m188.47,32.33l-1.04-.63,15.94-27.94,1.04.6-15.94,27.97Z"/>
      <path class="cls-1" d="m217.11,15.12c.45.11.71.26.71.63,0,.34-.15.45-.71.82-.07.74-.11,1.3-.11,2.01,0,2.2.19,11.96.19,13.93,0,1.15-1.12,1.9-2.09,1.9-1.42,0-1.42-1.01-1.42-1.53,0-.67.19-3.58.22-4.17.11-2.98.15-7.86.15-10.99-3.02,3.54-5.48,5.21-7.78,6.44l-.11-.22c3.99-4.43,7-9.27,8.23-11.4,1.01-1.75,2.01-3.61,1.94-5.48l3.76,1.94c.3.15.41.3.41.56,0,.37-.11.41-1.38.82-1.19,1.94-1.38,2.2-2.94,4.51l.93.22Zm18.14-9.05l1.75-1.9c.26-.3.37-.48.6-.48s.48.22.71.41l2.5,1.97c.19.15.33.26.33.52,0,.34-.3.37-.56.37h-28.08c-2.27,0-3.09.11-4.02.26l-.6-1.38c2.23.22,4.88.22,5.29.22h9.57c0-3.43-.41-4.92-1.12-6.07l4.73,1.01c.41.07.63.11.63.45,0,.45-.52.82-1.12,1.27v3.35h9.39Zm-17.8,26.78c3.24-1.83,5.14-3.02,8.64-7.26-2.27-3.02-3.24-5.85-3.54-7.71-1.45,1.68-2.94,2.87-5.18,4.47l-.07-.19c3.8-4.88,6.22-9.91,7.11-12.33.63-1.68.56-2.09.48-2.76l3.69,2.01c.33.19.45.41.45.56,0,.48-.56.67-1.45.97-.22.37-1.38,2.16-1.64,2.57h6.22l1.68-1.53c.26-.22.56-.48.74-.48.22,0,.56.22.75.37l2.31,1.75c.22.15.33.41.33.56,0,.71-.71.93-2.35,1.45-2.83,6.74-5.96,10.13-6.44,10.65,2.35,1.75,6.26,3.87,12.29,4.36v.22c-1.9.74-2.53,2.42-3.02,3.69-2.79-.86-6.74-2.46-10.76-6.7-2.79,2.64-6.22,4.8-10.17,5.55l-.07-.22Zm7.9-18.77c-.89,1.34-1.68,2.42-2.31,3.2.63,2.12,1.79,4.51,4.13,6.89,2.24-3.09,4.25-6.41,5.25-10.09h-7.08Zm-.45,1.12c2.5.37,4.66,1.64,4.66,3.43,0,1.12-.82,1.97-1.68,1.97-1.3,0-1.6-1.38-1.9-2.76-.26-1.27-.93-2.05-1.19-2.31l.11-.34Z"/>
      <path class="cls-1" d="m255.8,3.58l1.27-1.19c.19-.15.34-.26.56-.26s.45.15.67.34l1.83,1.42c.15.11.3.26.3.48,0,.26-.15.34-1.38,1.19,0,1.97.04,17.36,0,17.84-.11,1.42-1.64,1.53-1.97,1.53-1.19,0-1.19-.56-1.08-3.17h-5.59c.04.45.04,1.79,0,2.57-.07,1.86-1.86,2.01-2.16,2.01-1.38,0-1.38-1.12-1.38-1.45,0-.37.22-1.94.26-2.27.22-2.2.3-13.45.3-16.8,0-.82-.04-1.97-.37-4.4l3.69,2.16h5.07Zm-5.4.89v7.49h5.59v-7.49h-5.59Zm0,8.38v8.01h5.59v-8.01h-5.59Zm14.3,8.19c-1.68,7.41-6.03,10.5-12.7,12.78l-.11-.19c10.47-7.15,10.47-11.1,10.47-24.92,0-2.05-.11-5.62-.48-7.82l3.35,1.86h7.34l1.01-1.04c.26-.3.41-.41.6-.41s.45.19.67.34l2.2,1.53c.3.19.41.3.41.56,0,.56-1.23,1.19-1.56,1.38,0,2.38,0,6.59.08,10.76.11,7.9.15,12.74.15,13.67,0,1.79-.15,3.13-2.35,4.21-1.12.56-1.97.6-2.72.63-.45-1.45-.86-2.91-3.61-4.17v-.22c1.38.15,1.97.22,3.28.22,1.9,0,2.16-.07,2.16-1.79v-7.38h-8.16Zm8.16-.89v-7.78h-7.56c0,3.09-.15,6.03-.45,7.78h8.01Zm0-8.68V3.65h-7.56v7.82h7.56Z"/>
      <path class="cls-1" d="m289.1,26.48c0,.22.08,1.27.08,1.49,0,.97-.45,1.75-1.49,1.75-1.23,0-3.5-1.68-3.5-8.6,0-1.15.11-4.36.6-7.45.78-4.84.89-5.36.89-6.33,0-1.75-.37-2.35-1.15-3.61,3.32-.19,4.58,3.02,4.58,4.02s-1.68,5.03-1.94,5.85c-.89,2.72-.93,4.92-.93,5.89,0,.86.15,4.1.82,4.1.33,0,1-1.53,1.27-2.09.89-1.97,1.56-3.39,2.72-6.22h.19c-.41,1.9-2.12,9.98-2.12,11.21Zm22.68-14.49c-.82.19-4.4.78-5.14.93.22,3.87.3,5.77.3,7.23,0,5.14-1.3,10.76-9.8,14.34l-.22-.26c5.66-4.21,7.11-8.64,7.11-17.58,0-1.56-.04-2.57-.07-3.28-1.04.15-2.46.34-3.73.34-1.42,0-4.13-.26-5.59-2.76,1.01.26,1.68.37,2.46.37.22,0,3.13,0,6.74-.6-.11-1.6-.3-5.21-1.12-6.22-.45-.52-1.71-1.19-2.83-1.23.48-.71,1.49-1.56,2.57-1.56.89,0,2.42.37,3.5,1.23.52.45.6.89.6,1.6,0,.45-.11,2.46-.11,2.87,0,.56,0,1.45.07,2.79,1.6-.34,1.83-.41,4.1-1.19.33-.11.56-.11.71-.11.78,0,2.38.63,2.38,1.71s-1.56,1.34-1.94,1.38Z"/>
      <path class="cls-1" d="m333.11,30.43c2.72-1.04,11.7-4.58,11.7-13.71,0-5.18-3.35-9.98-10.73-9.98-1.12,0-1.86.11-2.35.19,2.5,1.08,3.2,2.64,3.2,3.2,0,.52-2.76,6.59-4.81,10.43-3.87,7.3-5.14,7.56-6.18,7.56-.82,0-1.23-.56-2.38-2.2-.52-.74-.67-.86-1.49-1.56-1.12-.93-1.68-2.91-1.68-4.32,0-8.01,6.93-14.53,15.98-14.53,7.63,0,13.89,4.4,13.89,11.77,0,7.75-6.7,12.66-15.16,13.41v-.26Zm-11.96-11.06c0,2.38,1.12,5.59,2.5,5.59,1.19,0,2.64-2.76,3.43-4.21,1.19-2.27,4.51-9.01,4.51-11.25,0-.26-.04-1.27-1.27-2.35-5.07,1.15-9.16,7.41-9.16,12.22Z"/>
      <path class="cls-1" d="m353.52,10.58c2.53.45,5.92,1.04,5.92,3.84,0,.97-.93,1.9-1.79,1.9-1,0-1.38-.86-1.9-2.16-.75-1.75-1.79-2.79-2.38-3.39l.15-.19Zm9.27-1.42c-1.42,6.63-1.56,7.37-3.43,14.38-.15.52-.56,2.16-.56,2.5,0,.74,1.3,4.73,1.3,5.62,0,1.12-.6,2.42-2.09,2.42-2.01,0-2.01-2.16-2.01-2.76s.3-3.17.3-3.69c0-.71,0-2.64-2.31-4.13v-.22c.97,0,1.68-.04,2.38-.52,1.08-.78,6.07-13.52,6.11-13.59h.3Zm-6.15-7.93c1.3.34,5.66,1.38,5.66,4.54,0,1.08-1.04,1.68-1.79,1.68-1.27,0-1.64-1.19-1.94-2.09-.6-1.94-1.68-3.35-2.09-3.91l.15-.22Zm14.23,1.12c.22.11.3.3.3.48,0,.34-.11.37-1.12.71-.41.78-.75,1.42-1.34,2.46h11.03l1.45-1.94c.22-.3.33-.48.56-.48.26,0,.6.3.71.41l2.16,1.94c.19.19.37.34.37.6,0,.37-.37.37-.6.37h-16.24c-1.75,2.87-4.95,5.4-5.96,6.22l-.19-.15c.3-.41,5.29-8.42,5.36-12.4l3.5,1.79Zm7.11,8.94l1.34-1.34c.22-.22.26-.22.41-.22.22,0,.3.07.56.3l1.75,1.45c.15.11.26.34.26.45,0,.3-.26.56-1.19,1.19-.04,1.23-.07,2.53-.19,5.4h1.3l1.23-1.75c.26-.37.45-.45.6-.45.19,0,.33.11.67.37l2.16,1.75c.15.11.37.34.37.56,0,.37-.33.41-.56.41h-5.81c-.04,1.08-.15,3.54-.63,7.67h1.15l1.45-1.86c.26-.34.37-.45.6-.45s.6.3.67.37l2.12,1.86c.19.15.37.34.37.56,0,.37-.37.41-.6.41h-5.88c-.41,2.53-1.12,6.74-5.85,6.7-.15-.82-.48-2.91-2.79-4.28l.11-.26c1.12.37,2.42.52,3.58.52,1.04,0,1.53-.07,2.01-2.68h-10.02c-.3,1.82-.45,2.79-2.27,2.79-.6,0-1.27-.41-1.27-1.08,0-.34.37-1.83.48-2.23.67-2.76,1.08-5.29,1.49-8.05-1.27.04-1.94.07-2.94.22l-.63-1.34c.93.07,1.79.15,3.69.19.07-.63.67-4.66.67-6.63,0-1.04-.11-1.71-.22-2.23l3.05,1.68h8.75Zm-9.65,8.12c-.6,4.84-.67,5.4-1.01,7.67h3.46c.33-2.16.82-5.7,1.01-7.67h-3.46Zm.86-7.23c-.22,2.01-.6,4.95-.75,6.33h3.46c.11-1.34.33-4.8.41-6.33h-3.13Zm8.12,14.9c.33-2.61.52-5.33.67-7.67h-3.46c-.22,1.86-.56,5.03-1.01,7.67h3.8Zm-2.24-14.9c-.15,2.83-.33,4.77-.48,6.33h3.39c.04-.89.19-5.33.22-6.33h-3.13Z"/>
      <path class="cls-1" d="m391.09,34.27v-1.71h10.73V.37h1.71v33.89h-12.44Z"/>
      <path class="cls-1" d="m424.24,6.26h-6.48c.74.34,3.46,1.6,3.46,3.31,0,.3-.19,1.86-1.68,1.86s-1.56-.97-1.94-2.87c-.15-.86-.48-1.71-1.12-2.31h-.19c-2.46,3.61-4.51,5.4-6.33,6.85l-.19-.22c.86-1.3,4.02-7.26,4.73-9.98.08-.3.19-1.12.11-2.53l4.1,1.86c.22.11.48.26.48.48,0,.56-.11.6-1.27,1.04-.71,1.12-.82,1.27-1.04,1.6h3.35l.93-1.71c.11-.19.26-.45.56-.45.15,0,.37.11.67.37l2.01,1.71c.19.15.37.34.37.56,0,.37-.33.41-.56.41Zm16.65-.07h-11.25c.78.26,2.91,1.04,2.91,2.64,0,.48-.22.97-.6,1.3.41-.07,1.83-.41,2.57-.71.22-.07,1.01-.48,1.45-.74l3.13,2.46c.11.07.19.22.19.41,0,.22-.07.63-.67.63-.26,0-1.53-.15-1.79-.15-1.38.19-3.65.48-4.69.56-2.98.22-4.13.22-14.53.37,0,.3,0,1.83-.04,2.2h17.51l.97-1.23c.3-.37.48-.48.67-.48s.37.15.6.34l1.68,1.27c.22.15.48.41.48.6,0,.22-.11.3-.19.37-.11.11-.56.52-.78.75,0,.3.11,1.71.11,2.05,0,.75,0,2.16-1.9,2.16-1.01,0-1.27-.26-1.27-1.15h-18.03c-.37,4.43-.82,10.17-7.45,13.93l-.19-.07c3.91-5.51,4.92-10.06,4.92-16.54,0-2.31-.22-5.36-.41-6.74l3.61,1.6c4.25-.26,9.61-.93,12.66-1.56-.75-.26-.97-.67-1.12-1.42-.34-1.42-.41-1.83-1.19-2.53-1.34,1.86-2.53,3.13-4.58,4.51l-.22-.15c.63-.82,4.13-7.41,3.8-10.24l3.95,1.6c.3.11.41.3.41.45,0,.52-.41.78-1.34,1.08-.37.48-.45.6-1.16,1.56h7.49l1.15-1.82c.11-.19.33-.48.6-.48.19,0,.48.26.67.41l2.05,1.82c.15.15.37.34.37.56,0,.41-.37.41-.56.41Zm-5.44,9.87h-17.88c0,.41-.07,2.42-.11,2.87h17.99v-2.87Zm5.4,7.23c-.15.15-.82.67-.97.78.04,1.15.15,6.11.15,7.11,0,3.2-3.32,3.76-3.84,3.84.07-1.19-1.01-3.05-2.5-4.13l.04-.15c.67.19,2.09.26,2.83.26.41,0,.41-.22.41-.82v-2.5h-3.76c0,.63.15,3.35.15,3.91,0,.6,0,2.27-1.82,2.27-1.23,0-1.23-.78-1.23-1.27,0-.75.15-4.21.19-4.92h-3.69c0,.78.11,4.06.11,4.73,0,.48-.33,1.49-1.83,1.49-.82,0-1.12-.41-1.12-1.15,0-.78.11-4.32.11-5.07h-3.43c0,.15.04,5.74,0,5.89-.08.26-.56,1.23-1.64,1.23-1.42,0-1.42-.86-1.42-1.23,0-1.49.3-8.01.3-9.35,0-.22,0-2.42-.11-3.46l3.35,1.56h15.42l1.08-1.15c.15-.19.37-.37.67-.37.22,0,.48.19.71.34l1.49.97c.19.11.48.37.48.78,0,.15-.07.34-.15.41Zm-20.19-.07v3.58h3.43l.04-3.58h-3.46Zm6.18,0l-.04,3.58h3.69c0-.82.04-1.9.04-3.58h-3.69Zm10.13,0h-3.76v3.58h3.76v-3.58Z"/>
      <path class="cls-1" d="m471.3,27.76c0,3.24-2.74,6.17-6.65,6.17-3.6,0-5.61-2.51-5.61-4.24,0-.98.81-1.76,1.73-1.76.59,0,1.56.42,1.56,1.82,0,.36-.03.7-.17,1.03-.11.25-.2.5-.2.75,0,1.17,1.37,1.42,2.21,1.42,2.82,0,4.02-2.4,4.02-4.83,0-3.38-2.15-5.22-3.99-5.22-.14,0-.84.14-1.01.14-.36,0-.61-.14-.61-.56,0-.36.22-.67.64-.67.14,0,.87.14,1,.14,1.96,0,3.46-1.65,3.46-4.41,0-2.26-1.12-4.08-3.04-4.08-1.26,0-2.01.73-2.01,1.65,0,.25.28,1.4.28,1.65,0,1.01-.78,1.54-1.56,1.54-.84,0-1.65-.64-1.65-1.62,0-1.84,1.93-4.16,5.45-4.16s5.53,2.46,5.53,4.8c0,1.4-.78,3.83-4.5,5.03,1.59.53,5.11,1.79,5.11,5.42Z"/>
      <path class="cls-1" d="m485.71,23.21c0,6.09-2.57,10.72-6.28,10.72s-6.28-4.77-6.28-10.72,2.6-10.69,6.28-10.69,6.28,4.75,6.28,10.69Zm-9.47,0c0,3.71.28,9.83,3.18,9.83s3.18-5.92,3.18-9.83c0-3.66-.28-9.8-3.18-9.8s-3.18,5.95-3.18,9.8Z"/>
      <path class="cls-1" d="m495.68,18.16l.64-1.2c.08-.17.28-.33.45-.33s.33.14.5.28l1.23,1.2c.11.11.28.28.28.42,0,.25-.25.31-.42.31h-3.24v2.46c1.87.75,3.29,2.15,3.29,3.55,0,.56-.25,1.23-1.09,1.23-1.09,0-1.28-.59-1.59-2.07-.14-.61-.33-1.51-.61-1.93-.03,3.66-.03,4.83-.03,7.26,0,.84.08,4.44.08,5.17,0,1.06-1.23,1.14-1.7,1.14-.81,0-1.03-.28-1.03-1.01,0-.25.11-2.01.14-2.35.08-1.12.22-4.97.22-7.87-.53.81-2.6,3.66-5.84,5.81l-.14-.25c3.24-3.21,5.7-9.24,5.89-11.14h-1.28c-1.7,0-2.32.06-3.02.2l-.45-1.03c1.31.11,2.62.17,3.97.17h.92c0-.7,0-3.77-.03-4.41-2.07.42-3.71.47-4.83.53v-.17c3.52-.98,5.84-2.18,7.46-3.21.53-.34.84-.7,1.12-1.09l2.29,2.04c.08.08.17.25.17.42,0,.28-.39.34-.61.34-.2,0-.56-.14-.75-.28-.56.25-1.23.56-2.54.92v4.91h.56Zm16.59,5.31c.14.08.25.25.25.39,0,.36-.36.56-1.09.7-2.32,4.08-9.8,9.66-15.69,10.19l-.08-.22c3.57-1.79,9.52-5.19,12.57-9.72,1.28-1.87,1.28-2.51,1.26-3.29l2.79,1.95Zm-9.44-7.29c.33.11.39.22.39.33,0,.34-.31.5-.89.78-.47.75-2.62,4.24-4.27,5.61l-.25-.03c.98-1.65,2.09-5.78,2.09-6.9,0-.14-.08-.64-.14-.87l3.07,1.06Zm3.63-5.11c.39.08.47.2.47.33,0,.28-.2.47-.84,1.01,0,1.28-.03,12.01-.03,12.29-.03.87-.39,2.46-3.29,2.82-.33-2.09-1.48-2.82-2.09-3.21l.03-.17c.42.03,1.76.14,2.49.14.25,0,.47-.14.53-.45.06-.47.06-6.39.06-7.06,0-4.24-.08-5.28-.75-6.53l3.43.84Zm1.31,4.97c3.83.98,5.84,2.09,5.84,3.91,0,.95-.67,1.56-1.4,1.56-.89,0-1.15-.53-1.7-1.68-.75-1.56-1.17-1.98-2.82-3.63l.08-.17Z"/>
      <path class="cls-1" d="m526.15,29.44l4.69-12.93c.17-.5.2-1.01.2-1.2,0-.53-.08-1.37-1.87-1.37h-.59v-.92h6.48v.92h-.67c-1.54,0-2.23,1.51-2.68,2.76l-6.2,17.23h-.59l-6-17.9c-.14-.39-.84-2.09-2.43-2.09h-.56v-.92h7.93v.92h-.73c-1.48,0-1.65.61-1.65,1.09,0,.17.03.56.08.7l4.58,13.71Z"/>
      <path class="cls-1" d="m540,26.17c0,5.98,3.49,6.37,4.41,6.37.33,0,2.35,0,4.19-2.43l.64.61c-.64.89-2.4,3.21-5.75,3.21s-5.98-2.54-5.98-6.62c0-4.52,3.21-7.65,6.09-7.65s5.17,2.76,5.53,6.51h-9.13Zm6.42-.89c-.03-.98-.14-4.64-2.74-4.64-.42,0-2.88,0-3.6,4.64h6.34Z"/>
      <path class="cls-1" d="m551.48,21.03l4.66-1.51v3.8c2.21-3.43,4.08-3.66,4.69-3.66.81,0,1.76.61,1.76,1.7,0,.95-.73,1.73-1.59,1.73-.61,0-.89-.34-1.26-.73-.33-.36-.53-.45-.73-.45-1.65,0-2.88,3.41-2.88,4.19v4.89c0,.61.53,1.51,1.34,1.51h1.28v.89h-7.43v-.89h1.09c.53,0,1.51-.73,1.51-1.62v-8.24c0-.7-.39-1.17-1.06-1.17-.36,0-.89.14-1.23.28l-.17-.73Z"/>
      <path class="cls-1" d="m567.68,32.15c0,.98-.81,1.79-1.79,1.79s-1.79-.81-1.79-1.79.81-1.79,1.79-1.79,1.79.78,1.79,1.79Z"/>
    </g>
  </g>
</svg>