<?xml version="1.0" encoding="UTF-8"?>
<svg id="_レイヤー_2" data-name="レイヤー 2" xmlns="http://www.w3.org/2000/svg" viewBox="0 0 426.83 26.79">
  <defs>
    <style>
      .cls-1 {
        stroke-width: 0px;
      }
    </style>
  </defs>
  <g id="design">
    <g>
      <path class="cls-1" d="m1.29,1.79v24.19H0V.5h9.35v1.29H1.29Z"/>
      <path class="cls-1" d="m23.02,23.24c-.7,0-1.15-.64-1.29-.87-1.23-1.99-1.37-2.21-1.76-2.74-1.85,3.02-4.45,4.65-6.44,5.71l-.06-.17c2.24-1.85,3.72-4.4,4.93-7.06-.98-.73-1.74-1.12-2.24-1.37-.2,1.09-.34,1.93-1.68,1.93-.76,0-1.09-.42-1.09-.73,0-.11.03-.17.14-.67.67-2.69.78-3.25,2.07-9.74-1.43,0-2.1.08-2.63.17l-.48-1.04c1.23.11,1.99.14,3.25.17.56-2.77.7-4.56.7-5.12,0-.64-.08-1.06-.17-1.46l3,.9c.36.11.53.2.53.45s-.11.36-.87.81c-.14.7-.76,3.81-.9,4.42h2.13l.9-.84c.25-.25.34-.34.53-.34s.34.14.48.25l1.23,1.06c.11.08.28.28.28.5,0,.34-.2.5-.76.98-.22,3.58-.98,7-1.96,9.44.73.39,3.33,1.82,3.33,3.95,0,1.23-.87,1.4-1.18,1.4Zm-5.12-15.74c-.5,2.49-.92,4.73-1.65,8.79.39.06,1.23.2,2.6.7.64-1.74,1.71-6.33,1.51-9.49h-2.46Zm20.02,5.74h-6.38c0,1.4.11,7.56.11,8.82,0,2.13-.25,3.3-3.25,3.78-.39-1.93-1.9-2.91-2.94-3.33l.14-.2c2.02.17,2.32.2,3,.2s.78-.17.78-.81v-8.46h-3.08c-1.71,0-2.32.06-3.02.17l-.45-1.01c1.71.14,3.67.17,3.98.17h2.58c-.06-1.82-.11-5.07-.59-6.38l1.29.36c.59-.87,1.2-1.82,2.35-3.98h-5.1c-1.74,0-2.32.06-3.02.17l-.48-1.01c1.71.14,3.7.17,4,.17h4.65l.64-.67c.39-.39.45-.45.62-.45s.45.17.59.28l1.82,1.23c.14.08.34.22.34.59,0,.59-.53.62-1.32.7-1.01.73-1.34.95-4.56,3.11l1.09.28c.28.08.5.14.5.45,0,.17-.08.31-.62.64-.03.22-.06,3.72-.06,4.51h2.44l1.37-1.62c.31-.36.31-.39.45-.39.17,0,.36.17.5.31l1.76,1.62c.17.17.28.28.28.45,0,.25-.25.31-.42.31Z"/>
      <path class="cls-1" d="m55.83,19.85c-.39,0-.5-.11-1.6-1.06-.98-.87-5.43-1.9-7.78-1.9-.7,0-3.75,0-3.75,2.66,0,3.08,4.37,3.08,5.4,3.08.67,0,1.62-.03,2.16-.08.11-.03,1.54-.14,1.57-.14.78,0,2.1.39,2.1,1.29,0,1.29-1.51,1.29-1.82,1.29-3.98,0-10.78,0-10.78-5.01,0-3.86,4.09-4.06,6.16-4.06s4.03.11,5.96.64c.06,0,.17.03.28.03s.22-.03.22-.17-.11-.42-.31-.7c-1.37-1.9-1.74-2.41-2.63-3.64-2.58.81-5.26,1.2-6.16,1.2-1.65,0-3-.9-3.7-2.46.76.34,1.96.87,3.67.87.25,0,2.49,0,5.18-1.06-.31-.5-.73-1.23-1.54-2.86-.31.11-2.52.76-3.61.76-.42,0-2.77-.17-3.3-2.13,1.09.48,1.46.64,2.63.64,1.71,0,2.72-.36,3.64-.67-.06-.14-.11-.28-.53-1.37-.31-.84-.87-2.24-2.88-2.24-.2,0-.34.03-.62.06.11-.42.45-1.68,2.55-1.68,1.01,0,1.99.34,2.32.67.31.31.31.67.31,1.2,0,.56,0,1.4.42,2.69.76-.39,1.12-.59,1.65-1.01.98-.73,1.09-.81,1.54-.81.73,0,1.37.42,1.37.9,0,.92-2.83,2.07-3.98,2.49.11.34.56,1.32,1.46,2.72,1.26-.59,1.9-.98,2.38-1.29.9-.59,1.01-.64,1.51-.64.78,0,1.43.42,1.43.92,0,.42-.39.73-.78.95-.7.39-2.1,1.12-3.42,1.62.48.62,1.9,2.3,3.42,3.98,1.12,1.23,1.12,1.74,1.12,2.13,0,.5-.25,2.21-1.26,2.21Z"/>
      <path class="cls-1" d="m74.26,6.41c-1.88.64-3.81,1.18-5.74,1.6-3.5,7.7-4.2,9.21-5.43,10.89-.08.14-.36.48-.78.48-.36,0-1.09-.31-1.09-1.29,0-.7.39-1.23.62-1.54.9-1.23,2.69-3.72,4.68-8.06-.62.14-1.4.31-2.35.31-2.46,0-2.97-1.4-2.97-2.04,0-.28.08-.53.2-.81.45.84,1.29,1.23,2.91,1.23.87,0,1.71-.11,2.94-.39.14-.36.95-2.46.95-3.39,0-1.04-1.15-1.37-1.62-1.51.48-.42.98-.67,1.6-.67,1.06,0,2.88,1.18,2.88,1.99,0,.36-.36.84-.5,1.06-.53.81-.67,1.09-1.09,1.88.7-.22,1.4-.5,2.02-.78,1.29-.59,1.43-.67,1.76-.67.39,0,1.68.48,1.68,1.09,0,.36-.39.56-.64.64Zm7.03,6.92c-.5,0-.95-.22-1.12-.31-1.23-.67-1.65-.9-2.66-.9-2.69,0-2.86,2.18-2.86,3.28,0,1.48.31,2.74.5,3.61,2.66.48,5.38,1.85,5.38,3.39,0,.28-.17,1.23-.92,1.23-.53,0-1.68-.81-2.27-1.23-.98-.73-1.32-.87-1.9-1.12-.03.62-.11,1.85-1.06,2.72-1.15,1.06-3.14,1.15-3.56,1.15-2.24,0-4.45-1.34-4.45-3.28,0-2.24,2.46-3.19,5.43-3.19.5,0,.84.03,1.2.06-.17-1.46-.22-1.96-.22-2.63,0-3.39,3.33-4.4,4.51-4.76.11-.03.64-.14.73-.2.11-.08.14-.2.14-.28,0-.56-1.48-1.6-3.86-2.1.7-.22,1.34-.36,2.1-.36,3.44,0,5.82,2.32,5.82,3.92,0,.56-.28,1.01-.92,1.01Zm-10.5,6.86c-.53,0-3.39,0-3.39,1.65,0,1.18,1.9,1.57,2.94,1.57,2.83,0,2.8-2.24,2.77-2.94-.56-.17-.95-.28-2.32-.28Z"/>
      <path class="cls-1" d="m110.1,7.17h-21.11c-1.71,0-2.32.08-3.02.2l-.48-1.04c1.71.17,3.7.17,4,.17h16.44l1.37-1.74c.31-.36.34-.45.48-.45.2,0,.36.17.53.34l1.96,1.79c.14.14.25.28.25.42,0,.28-.25.31-.42.31Zm-4.14,3.67h-13.16c-1.74,0-2.32.08-3.05.2l-.45-1.04c1.71.17,3.7.17,4,.17h8.79l1.23-1.68c.17-.25.28-.39.45-.39s.36.17.53.31l1.79,1.68c.28.25.31.36.31.45,0,.28-.28.31-.45.31Zm-.11-7.76h-13.02c-1.71,0-2.32.06-3.02.17l-.45-1.01c1.71.14,3.67.17,3.98.17h8.74l1.15-1.57c.25-.34.31-.42.48-.42s.34.14.53.31l1.76,1.6c.06.03.28.25.28.45,0,.25-.2.31-.42.31Zm.36,11.45h-13.36c-1.71,0-2.32.06-3.02.17l-.45-1.01c1.71.14,3.67.17,3.98.17h9.13l1.29-1.62c.2-.25.28-.34.42-.34.2,0,.42.2.59.36l1.54,1.48c.28.28.31.31.31.48,0,.25-.22.31-.42.31Zm.06,4.12c0,.28-.03.64-.03,1.15,0,.67.2,3.53.2,4.12,0,1.4-1.29,1.57-1.54,1.57-1.26,0-1.2-1.04-1.15-1.57h-11.54c-.06.87-.11,1.88-1.71,1.88-.59,0-.95-.25-.95-.84s.14-1.46.17-2.02c.06-.67.06-1.57.06-2.58,0-1.09,0-3.58-.11-4.48l2.83,1.37h11l1.01-.98c.14-.14.34-.34.48-.34.11,0,.2.06.31.14l1.6,1.09c.14.08.28.28.28.48,0,.31-.08.36-.9,1.01Zm-2.52-.73h-11.54v5.32h11.54v-5.32Z"/>
      <path class="cls-1" d="m134.54,8.76l.92-1.29c.14-.2.28-.39.42-.39s.31.17.53.34l1.65,1.29c.17.11.28.28.28.45,0,.25-.25.28-.45.28h-5.43c0,.67.03,2.74,0,2.91-.11.62-.81.81-1.29.81-.62,0-.84-.36-.84-.53,0-.11.03-.42.03-.56h-4c0,.56,0,1.34-1.2,1.34-.39,0-.98-.14-.98-.81,0-.5.03-2.72.03-3.16h-3.16c0,.73.03,3.89.03,4.54h11.9l1.12-1.26c.28-.31.31-.36.42-.36.2,0,.45.25.53.31l1.43,1.26c.17.17.28.25.28.45,0,.25-.25.28-.45.28h-15.23c-.03.48-.08,1.2-1.29,1.2-1.01,0-1.01-.5-1.01-.87,0-.2.08-.92.08-1.18.06-.87.08-1.99.08-2.83v-1.54h-2.04c-1.71,0-2.32.08-3.02.2l-.45-1.04c1.71.17,3.67.17,3.98.17h1.51c0-.34-.03-1.54-.36-3.08l2.66.73c.25.08.48.14.48.39,0,.28-.39.67-.56.84-.03.48-.06.67-.06,1.12h3.11c0-.25-.11-1.79-.2-2.13-.48.56-1.12.56-1.26.56-.95,0-.95-.36-.9-2.69h-4.14c-1.71,0-2.32.06-3.02.17l-.45-1.01c1.71.14,3.67.17,3.98.17h3.64c0-1.68,0-1.96-.48-3.33l3.14.92c.2.06.39.2.39.39,0,.34-.48.62-.7.76-.06.81-.06.92-.06,1.26h3.78c0-1.71-.17-2.46-.48-3.42l2.94.84c.28.08.42.17.42.36,0,.25-.11.34-.64.76-.03.95-.03,1.06,0,1.46h3.5l.92-1.48c.06-.08.25-.36.45-.36.14,0,.36.17.5.31l1.71,1.48c.17.14.28.22.28.42,0,.25-.22.31-.42.31h-6.94c.03.31.06,1.18.06,1.48l2.52.67c.17.06.31.17.31.39,0,.28-.17.36-.56.64v1.06h2.07Zm-6.78,9.52c3.08,2.3,6.75,3.7,10.58,3.67v.22c-.48.17-1.06.45-1.88,1.34-.7.78-.9.98-1.06,1.23-3.42-1.2-6.22-3.61-8.46-6.47h-.06c0,.92.08,5.49.08,6.52,0,.81-.84,1.12-1.4,1.12-.7,0-1.06-.39-1.06-.92,0-.2.11-1.15.11-1.34.06-1.18.06-2.02.08-4.76-1.51,1.65-6.19,5.26-11.06,6.3l-.11-.22c2.83-1.48,6.44-4.09,8.46-6.69h-4.31c-1.93,0-2.46.08-3.02.2l-.45-1.04c1.32.11,2.66.17,3.98.17h6.52c-.03-1.48-.03-1.51-.42-2.91l2.88.67c.5.11.64.17.64.39,0,.11-.08.25-.2.36-.11.08-.53.45-.76.62,0,.36.03.64.03.87h6.72l1.01-1.43c.06-.08.25-.36.42-.36s.42.22.53.31l1.62,1.43c.14.11.28.25.28.42,0,.28-.28.31-.42.31h-9.3Zm2.58-9.52c-.08-1.48-.11-1.65-.22-2.18-.11.22-.34.67-1.26.67s-1.06-.34-.95-2.74h-3.78c0,.2.03,1.29.03,1.51l2.38.7c.08.03.34.06.34.25,0,.08-.17.25-.5.53v1.26h3.98Zm-4,.67v1.96h4.03v-1.96h-4.03Z"/>
      <path class="cls-1" d="m141.71,24.3l-.78-.48,11.98-21,.78.45-11.98,21.03Z"/>
      <path class="cls-1" d="m163.24,11.37c.34.08.53.2.53.48,0,.25-.11.34-.53.62-.06.56-.08.98-.08,1.51,0,1.65.14,8.99.14,10.47,0,.87-.84,1.43-1.57,1.43-1.06,0-1.06-.76-1.06-1.15,0-.5.14-2.69.17-3.14.08-2.24.11-5.91.11-8.26-2.27,2.66-4.12,3.92-5.85,4.84l-.08-.17c3-3.33,5.26-6.97,6.19-8.57.76-1.32,1.51-2.72,1.46-4.12l2.83,1.46c.22.11.31.22.31.42,0,.28-.08.31-1.04.62-.9,1.46-1.04,1.65-2.21,3.39l.7.17Zm13.64-6.8l1.32-1.43c.2-.22.28-.36.45-.36s.36.17.53.31l1.88,1.48c.14.11.25.2.25.39,0,.25-.22.28-.42.28h-21.11c-1.71,0-2.32.08-3.02.2l-.45-1.04c1.68.17,3.67.17,3.98.17h7.2c0-2.58-.31-3.7-.84-4.56l3.56.76c.31.06.48.08.48.34,0,.34-.39.62-.84.95v2.52h7.06Zm-13.38,20.13c2.44-1.37,3.86-2.27,6.5-5.46-1.71-2.27-2.44-4.4-2.66-5.8-1.09,1.26-2.21,2.16-3.89,3.36l-.06-.14c2.86-3.67,4.68-7.45,5.35-9.27.48-1.26.42-1.57.36-2.07l2.77,1.51c.25.14.34.31.34.42,0,.36-.42.5-1.09.73-.17.28-1.04,1.62-1.23,1.93h4.68l1.26-1.15c.2-.17.42-.36.56-.36.17,0,.42.17.56.28l1.74,1.32c.17.11.25.31.25.42,0,.53-.53.7-1.76,1.09-2.13,5.07-4.48,7.62-4.84,8.01,1.76,1.32,4.7,2.91,9.24,3.28v.17c-1.43.56-1.9,1.82-2.27,2.77-2.1-.64-5.07-1.85-8.09-5.04-2.1,1.99-4.68,3.61-7.64,4.17l-.06-.17Zm5.94-14.11c-.67,1.01-1.26,1.82-1.74,2.41.48,1.6,1.34,3.39,3.11,5.18,1.68-2.32,3.19-4.82,3.95-7.59h-5.32Zm-.34.84c1.88.28,3.5,1.23,3.5,2.58,0,.84-.62,1.48-1.26,1.48-.98,0-1.2-1.04-1.43-2.07-.2-.95-.7-1.54-.9-1.74l.08-.25Z"/>
      <path class="cls-1" d="m192.33,2.69l.95-.9c.14-.11.25-.2.42-.2s.34.11.5.25l1.37,1.06c.11.08.22.2.22.36,0,.2-.11.25-1.04.9,0,1.48.03,13.05,0,13.41-.08,1.06-1.23,1.15-1.48,1.15-.9,0-.9-.42-.81-2.38h-4.2c.03.34.03,1.34,0,1.93-.06,1.4-1.4,1.51-1.62,1.51-1.04,0-1.04-.84-1.04-1.09,0-.28.17-1.46.2-1.71.17-1.65.22-10.11.22-12.63,0-.62-.03-1.48-.28-3.3l2.77,1.62h3.81Zm-4.06.67v5.63h4.2V3.36h-4.2Zm0,6.3v6.02h4.2v-6.02h-4.2Zm10.75,6.16c-1.26,5.57-4.54,7.9-9.55,9.6l-.08-.14c7.87-5.38,7.87-8.34,7.87-18.73,0-1.54-.08-4.23-.36-5.88l2.52,1.4h5.52l.76-.78c.2-.22.31-.31.45-.31s.34.14.5.25l1.65,1.15c.22.14.31.22.31.42,0,.42-.92.9-1.18,1.04,0,1.79,0,4.96.06,8.09.08,5.94.11,9.58.11,10.28,0,1.34-.11,2.35-1.76,3.16-.84.42-1.48.45-2.04.48-.34-1.09-.64-2.18-2.72-3.14v-.17c1.04.11,1.48.17,2.46.17,1.43,0,1.62-.06,1.62-1.34v-5.54h-6.13Zm6.13-.67v-5.85h-5.68c0,2.32-.11,4.54-.34,5.85h6.02Zm0-6.52V2.74h-5.68v5.88h5.68Z"/>
      <path class="cls-1" d="m217.37,19.91c0,.17.06.95.06,1.12,0,.73-.34,1.32-1.12,1.32-.92,0-2.63-1.26-2.63-6.47,0-.87.08-3.28.45-5.6.59-3.64.67-4.03.67-4.76,0-1.32-.28-1.76-.87-2.72,2.49-.14,3.44,2.27,3.44,3.02s-1.26,3.78-1.46,4.4c-.67,2.04-.7,3.7-.7,4.42,0,.64.11,3.08.62,3.08.25,0,.76-1.15.95-1.57.67-1.48,1.18-2.55,2.04-4.68h.14c-.31,1.43-1.6,7.5-1.6,8.43Zm17.05-10.89c-.62.14-3.3.59-3.86.7.17,2.91.22,4.34.22,5.43,0,3.86-.98,8.09-7.36,10.78l-.17-.2c4.26-3.16,5.35-6.5,5.35-13.22,0-1.18-.03-1.93-.06-2.46-.78.11-1.85.25-2.8.25-1.06,0-3.11-.2-4.2-2.07.76.2,1.26.28,1.85.28.17,0,2.35,0,5.07-.45-.08-1.2-.22-3.92-.84-4.68-.34-.39-1.29-.9-2.13-.92.36-.53,1.12-1.18,1.93-1.18.67,0,1.82.28,2.63.92.39.34.45.67.45,1.2,0,.34-.08,1.85-.08,2.16,0,.42,0,1.09.06,2.1,1.2-.25,1.37-.31,3.08-.9.25-.08.42-.08.53-.08.59,0,1.79.48,1.79,1.29s-1.18,1.01-1.46,1.04Z"/>
      <path class="cls-1" d="m250.46,22.88c2.04-.78,8.79-3.44,8.79-10.3,0-3.89-2.52-7.5-8.06-7.5-.84,0-1.4.08-1.76.14,1.88.81,2.41,1.99,2.41,2.41,0,.39-2.07,4.96-3.61,7.84-2.91,5.49-3.86,5.68-4.65,5.68-.62,0-.92-.42-1.79-1.65-.39-.56-.5-.64-1.12-1.18-.84-.7-1.26-2.18-1.26-3.25,0-6.02,5.21-10.92,12.01-10.92,5.74,0,10.44,3.3,10.44,8.85,0,5.82-5.04,9.52-11.4,10.08v-.2Zm-8.99-8.32c0,1.79.84,4.2,1.88,4.2.9,0,1.99-2.07,2.58-3.16.9-1.71,3.39-6.78,3.39-8.46,0-.2-.03-.95-.95-1.76-3.81.87-6.89,5.57-6.89,9.18Z"/>
      <path class="cls-1" d="m265.81,7.95c1.9.34,4.45.78,4.45,2.88,0,.73-.7,1.43-1.34,1.43-.76,0-1.04-.64-1.43-1.62-.56-1.32-1.34-2.1-1.79-2.55l.11-.14Zm6.97-1.06c-1.06,4.98-1.18,5.54-2.58,10.81-.11.39-.42,1.62-.42,1.88,0,.56.98,3.56.98,4.23,0,.84-.45,1.82-1.57,1.82-1.51,0-1.51-1.62-1.51-2.07s.22-2.38.22-2.77c0-.53,0-1.99-1.74-3.11v-.17c.73,0,1.26-.03,1.79-.39.81-.59,4.56-10.16,4.59-10.22h.22Zm-4.62-5.96c.98.25,4.26,1.04,4.26,3.42,0,.81-.78,1.26-1.34,1.26-.95,0-1.23-.9-1.46-1.57-.45-1.46-1.26-2.52-1.57-2.94l.11-.17Zm10.7.84c.17.08.22.22.22.36,0,.25-.08.28-.84.53-.31.59-.56,1.06-1.01,1.85h8.29l1.09-1.46c.17-.22.25-.36.42-.36.2,0,.45.22.53.31l1.62,1.46c.14.14.28.25.28.45,0,.28-.28.28-.45.28h-12.21c-1.32,2.16-3.72,4.06-4.48,4.68l-.14-.11c.22-.31,3.98-6.33,4.03-9.32l2.63,1.34Zm5.35,6.72l1.01-1.01c.17-.17.2-.17.31-.17.17,0,.22.06.42.22l1.32,1.09c.11.08.2.25.2.34,0,.22-.2.42-.9.9-.03.92-.06,1.9-.14,4.06h.98l.92-1.32c.2-.28.34-.34.45-.34.14,0,.25.08.5.28l1.62,1.32c.11.08.28.25.28.42,0,.28-.25.31-.42.31h-4.37c-.03.81-.11,2.66-.48,5.77h.87l1.09-1.4c.2-.25.28-.34.45-.34s.45.22.5.28l1.6,1.4c.14.11.28.25.28.42,0,.28-.28.31-.45.31h-4.42c-.31,1.9-.84,5.07-4.4,5.04-.11-.62-.36-2.18-2.1-3.22l.08-.2c.84.28,1.82.39,2.69.39.78,0,1.15-.06,1.51-2.02h-7.53c-.22,1.37-.34,2.1-1.71,2.1-.45,0-.95-.31-.95-.81,0-.25.28-1.37.36-1.68.5-2.07.81-3.98,1.12-6.05-.95.03-1.46.06-2.21.17l-.48-1.01c.7.06,1.34.11,2.77.14.06-.48.5-3.5.5-4.98,0-.78-.08-1.29-.17-1.68l2.3,1.26h6.58Zm-7.25,6.1c-.45,3.64-.5,4.06-.76,5.77h2.6c.25-1.62.62-4.28.76-5.77h-2.6Zm.64-5.43c-.17,1.51-.45,3.72-.56,4.76h2.6c.08-1.01.25-3.61.31-4.76h-2.35Zm6.1,11.2c.25-1.96.39-4,.5-5.77h-2.6c-.17,1.4-.42,3.78-.76,5.77h2.86Zm-1.68-11.2c-.11,2.13-.25,3.58-.36,4.76h2.55c.03-.67.14-4,.17-4.76h-2.35Z"/>
      <path class="cls-1" d="m294.06,25.76v-1.29h8.06V.28h1.29v25.48h-9.35Z"/>
      <path class="cls-1" d="m318.98,4.7h-4.87c.56.25,2.6,1.2,2.6,2.49,0,.22-.14,1.4-1.26,1.4s-1.18-.73-1.46-2.16c-.11-.64-.36-1.29-.84-1.74h-.14c-1.85,2.72-3.39,4.06-4.76,5.15l-.14-.17c.64-.98,3.02-5.46,3.56-7.5.06-.22.14-.84.08-1.9l3.08,1.4c.17.08.36.2.36.36,0,.42-.08.45-.95.78-.53.84-.62.95-.78,1.2h2.52l.7-1.29c.08-.14.2-.34.42-.34.11,0,.28.08.5.28l1.51,1.29c.14.11.28.25.28.42,0,.28-.25.31-.42.31Zm12.52-.06h-8.46c.59.2,2.18.78,2.18,1.99,0,.36-.17.73-.45.98.31-.06,1.37-.31,1.93-.53.17-.06.76-.36,1.09-.56l2.35,1.85c.08.06.14.17.14.31,0,.17-.06.48-.5.48-.2,0-1.15-.11-1.34-.11-1.04.14-2.74.36-3.53.42-2.24.17-3.11.17-10.92.28,0,.22,0,1.37-.03,1.65h13.16l.73-.92c.22-.28.36-.36.5-.36s.28.11.45.25l1.26.95c.17.11.36.31.36.45,0,.17-.08.22-.14.28-.08.08-.42.39-.59.56,0,.22.08,1.29.08,1.54,0,.56,0,1.62-1.43,1.62-.76,0-.95-.2-.95-.87h-13.55c-.28,3.33-.62,7.64-5.6,10.47l-.14-.06c2.94-4.14,3.7-7.56,3.7-12.43,0-1.74-.17-4.03-.31-5.07l2.72,1.2c3.19-.2,7.22-.7,9.52-1.18-.56-.2-.73-.5-.84-1.06-.25-1.06-.31-1.37-.9-1.9-1.01,1.4-1.9,2.35-3.44,3.39l-.17-.11c.48-.62,3.11-5.57,2.86-7.7l2.97,1.2c.22.08.31.22.31.34,0,.39-.31.59-1.01.81-.28.36-.34.45-.87,1.18h5.63l.87-1.37c.08-.14.25-.36.45-.36.14,0,.36.2.5.31l1.54,1.37c.11.11.28.25.28.42,0,.31-.28.31-.42.31Zm-4.09,7.42h-13.44c0,.31-.06,1.82-.08,2.16h13.52v-2.16Zm4.06,5.43c-.11.11-.62.5-.73.59.03.87.11,4.59.11,5.35,0,2.41-2.49,2.83-2.88,2.88.06-.9-.76-2.3-1.88-3.11l.03-.11c.5.14,1.57.2,2.13.2.31,0,.31-.17.31-.62v-1.88h-2.83c0,.48.11,2.52.11,2.94,0,.45,0,1.71-1.37,1.71-.92,0-.92-.59-.92-.95,0-.56.11-3.16.14-3.7h-2.77c0,.59.08,3.05.08,3.56,0,.36-.25,1.12-1.37,1.12-.62,0-.84-.31-.84-.87,0-.59.08-3.25.08-3.81h-2.58c0,.11.03,4.31,0,4.42-.06.2-.42.92-1.23.92-1.06,0-1.06-.64-1.06-.92,0-1.12.22-6.02.22-7.03,0-.17,0-1.82-.08-2.6l2.52,1.18h11.59l.81-.87c.11-.14.28-.28.5-.28.17,0,.36.14.53.25l1.12.73c.14.08.36.28.36.59,0,.11-.06.25-.11.31Zm-15.18-.06v2.69h2.58l.03-2.69h-2.6Zm4.65,0l-.03,2.69h2.77c0-.62.03-1.43.03-2.69h-2.77Zm7.62,0h-2.83v2.69h2.83v-2.69Z"/>
      <path class="cls-1" d="m354.36,20.87c0,2.44-2.06,4.64-5,4.64-2.71,0-4.22-1.89-4.22-3.19,0-.73.61-1.32,1.3-1.32.44,0,1.18.31,1.18,1.36,0,.27-.02.52-.13.78-.08.19-.15.38-.15.57,0,.88,1.03,1.07,1.66,1.07,2.12,0,3.02-1.81,3.02-3.63,0-2.54-1.62-3.93-3-3.93-.11,0-.63.1-.76.1-.27,0-.46-.1-.46-.42,0-.27.17-.5.48-.5.1,0,.65.1.76.1,1.47,0,2.6-1.24,2.6-3.32,0-1.7-.84-3.07-2.29-3.07-.95,0-1.51.55-1.51,1.24,0,.19.21,1.05.21,1.24,0,.76-.59,1.15-1.18,1.15-.63,0-1.24-.48-1.24-1.22,0-1.39,1.45-3.13,4.09-3.13s4.16,1.85,4.16,3.61c0,1.05-.59,2.88-3.38,3.78,1.2.4,3.84,1.34,3.84,4.07Z"/>
      <path class="cls-1" d="m365.2,17.45c0,4.58-1.93,8.06-4.72,8.06s-4.72-3.59-4.72-8.06,1.95-8.04,4.72-8.04,4.72,3.57,4.72,8.04Zm-7.12,0c0,2.79.21,7.39,2.39,7.39s2.39-4.45,2.39-7.39c0-2.75-.21-7.37-2.39-7.37s-2.39,4.47-2.39,7.37Z"/>
      <path class="cls-1" d="m372.69,13.65l.48-.9c.06-.13.21-.25.34-.25s.25.1.38.21l.92.9c.08.08.21.21.21.31,0,.19-.19.23-.31.23h-2.44v1.85c1.41.57,2.48,1.62,2.48,2.67,0,.42-.19.92-.82.92-.82,0-.96-.44-1.2-1.55-.1-.46-.25-1.13-.46-1.45-.02,2.75-.02,3.63-.02,5.46,0,.63.06,3.34.06,3.88,0,.8-.92.86-1.28.86-.61,0-.78-.21-.78-.76,0-.19.08-1.51.11-1.76.06-.84.17-3.74.17-5.92-.4.61-1.95,2.75-4.39,4.37l-.11-.19c2.44-2.41,4.28-6.95,4.43-8.38h-.97c-1.28,0-1.74.04-2.27.15l-.34-.78c.99.08,1.97.13,2.98.13h.69c0-.52,0-2.83-.02-3.32-1.55.31-2.79.36-3.63.4v-.13c2.64-.73,4.39-1.64,5.61-2.41.4-.25.63-.52.84-.82l1.72,1.53c.06.06.13.19.13.31,0,.21-.29.25-.46.25-.15,0-.42-.1-.57-.21-.42.19-.92.42-1.91.69v3.7h.42Zm12.47,3.99c.1.06.19.19.19.29,0,.27-.27.42-.82.52-1.74,3.07-7.37,7.26-11.8,7.66l-.06-.17c2.69-1.34,7.16-3.91,9.45-7.31.96-1.41.96-1.89.94-2.48l2.1,1.47Zm-7.1-5.48c.25.08.29.17.29.25,0,.25-.23.38-.67.59-.36.57-1.97,3.19-3.21,4.22l-.19-.02c.73-1.24,1.57-4.35,1.57-5.19,0-.1-.06-.48-.1-.65l2.31.8Zm2.73-3.84c.29.06.36.15.36.25,0,.21-.15.36-.63.76,0,.97-.02,9.03-.02,9.24-.02.65-.29,1.85-2.48,2.12-.25-1.57-1.11-2.12-1.58-2.41l.02-.13c.31.02,1.32.1,1.87.1.19,0,.36-.1.4-.34.04-.36.04-4.81.04-5.31,0-3.19-.06-3.97-.57-4.91l2.58.63Zm.99,3.74c2.88.73,4.39,1.57,4.39,2.94,0,.71-.5,1.18-1.05,1.18-.67,0-.86-.4-1.28-1.26-.57-1.18-.88-1.49-2.12-2.73l.06-.13Z"/>
      <path class="cls-1" d="m395.6,22.13l3.53-9.72c.13-.38.15-.76.15-.9,0-.4-.06-1.03-1.41-1.03h-.44v-.69h4.87v.69h-.5c-1.16,0-1.68,1.13-2.02,2.08l-4.66,12.95h-.44l-4.51-13.46c-.11-.29-.63-1.57-1.83-1.57h-.42v-.69h5.96v.69h-.55c-1.11,0-1.24.46-1.24.82,0,.13.02.42.06.52l3.44,10.31Z"/>
      <path class="cls-1" d="m406.02,19.67c0,4.49,2.62,4.79,3.32,4.79.25,0,1.76,0,3.15-1.83l.48.46c-.48.67-1.81,2.41-4.33,2.41s-4.49-1.91-4.49-4.98c0-3.4,2.41-5.75,4.58-5.75s3.88,2.08,4.16,4.89h-6.87Zm4.83-.67c-.02-.73-.11-3.49-2.06-3.49-.32,0-2.16,0-2.71,3.49h4.77Z"/>
      <path class="cls-1" d="m414.65,15.81l3.51-1.13v2.86c1.66-2.58,3.07-2.75,3.53-2.75.61,0,1.32.46,1.32,1.28,0,.71-.54,1.3-1.2,1.3-.46,0-.67-.25-.94-.55-.25-.27-.4-.34-.55-.34-1.24,0-2.16,2.56-2.16,3.15v3.67c0,.46.4,1.13,1.01,1.13h.97v.67h-5.58v-.67h.82c.4,0,1.13-.55,1.13-1.22v-6.19c0-.52-.29-.88-.8-.88-.27,0-.67.1-.92.21l-.12-.55Z"/>
      <path class="cls-1" d="m426.83,24.17c0,.73-.61,1.34-1.34,1.34s-1.34-.61-1.34-1.34.61-1.34,1.34-1.34,1.34.59,1.34,1.34Z"/>
    </g>
  </g>
</svg>