<svg xmlns="http://www.w3.org/2000/svg" width="197.351" height="34.618" viewBox="0 0 197.351 34.618">
  <g id="グループ_4" data-name="グループ 4" transform="translate(-98 -11.712)">
    <g id="グループ_5" data-name="グループ 5">
      <path id="パス_6" data-name="パス 6" d="M3.388-3.118c-.1.169-.1.169-.223.37-.4.67-.4.67-.647,1.086-.169.285-.169.285-.254.408a1.118,1.118,0,0,1-.4-.6,3.3,3.3,0,0,1-.177-1.117A6.022,6.022,0,0,1,1.825-4.12a1.313,1.313,0,0,0,.023-.2A.929.929,0,0,0,1.5-4.928a1.143,1.143,0,0,0-.577-.377H.855a1.686,1.686,0,0,1,.393,1.324A8.716,8.716,0,0,0,1.3-2.626a3.53,3.53,0,0,0,.524,1.54,1.449,1.449,0,0,0,.847.655.182.182,0,0,0,.169-.192.674.674,0,0,0-.015-.123.923.923,0,0,1-.046-.262A6.7,6.7,0,0,1,3.5-3.065ZM5.105-4.366A2.128,2.128,0,0,1,6.06-3.357,2.8,2.8,0,0,1,6.3-2.349c0,.146-.023.177-.177.231-.069.023-.416.123-1.039.293l.023.116c.262-.015.408-.015.585-.015a1.025,1.025,0,0,1,.577.092.372.372,0,0,0,.231.085c.231,0,.385-.239.385-.608a2.4,2.4,0,0,0-1.74-2.3ZM10.911-.393a6.052,6.052,0,0,0,1.9-.447A2.533,2.533,0,0,0,14.584-3.1a1.756,1.756,0,0,0-1.971-1.694,6.875,6.875,0,0,0-2.818.739,2.6,2.6,0,0,1-.932.277A.514.514,0,0,1,8.547-3.9a.627.627,0,0,1-.216-.285.414.414,0,0,0-.062.192,1.184,1.184,0,0,0,.924.886.439.439,0,0,0,.293-.131,5.528,5.528,0,0,1,3.1-1.286,1.286,1.286,0,0,1,1.409,1.294,2.458,2.458,0,0,1-1.417,2.071,6.389,6.389,0,0,1-1.7.647Zm5.821-4.466a1.465,1.465,0,0,0,1.432.662c.262,0,.57-.015.993-.054v.092l.015.562v.539A6.341,6.341,0,0,1,18.426-3a1.625,1.625,0,0,1-.9-.169c-.115-.092-.154-.2-.162-.439l-.115-.008c-.008.085-.015.162-.015.216a.67.67,0,0,0,.347.585,2.107,2.107,0,0,0,1.024.169c.116,0,.262-.008.57-.023V-2c0,.108,0,.162.008.531-.185-.008-.262-.008-.385-.008-1.024,0-1.74.385-1.74.932,0,.485.531.824,1.3.824a1.73,1.73,0,0,0,1.032-.285.768.768,0,0,0,.262-.647c0-.092-.008-.169-.023-.339a2.758,2.758,0,0,1,.77.323,4.411,4.411,0,0,1,.647.477c.2.192.231.216.308.216.1,0,.169-.108.169-.269A.665.665,0,0,0,21.3-.755,3.994,3.994,0,0,0,19.6-1.417c-.023-.192-.031-.308-.046-.6-.008-.269-.008-.393-.023-.693a8.277,8.277,0,0,0,1.255-.223c.485-.131.593-.192.593-.331a.158.158,0,0,0-.092-.146.892.892,0,0,0-.393-.115.186.186,0,0,0-.116.031A1.2,1.2,0,0,1,20.4-3.3a6.4,6.4,0,0,1-.878.208c-.008-.339-.008-.493-.008-.7,0-.177,0-.293.008-.493a13.053,13.053,0,0,0,1.471-.27c.477-.115.6-.177.6-.285a.231.231,0,0,0-.131-.185.982.982,0,0,0-.4-.131.219.219,0,0,0-.092.031,3.919,3.919,0,0,1-1.432.454,2.486,2.486,0,0,1,.139-.816c.1-.216.1-.216.1-.262,0-.116-.077-.193-.262-.254a2.149,2.149,0,0,0-.647-.1c-.216,0-.277.015-.385.123.585.085.639.193.67,1.371a7.025,7.025,0,0,1-1.1.092,1.579,1.579,0,0,1-1.24-.416Zm2.433,3.765v.023c0,.062-.008.239-.015.293a.588.588,0,0,1-.169.4A1.275,1.275,0,0,1,18.1-.1c-.524,0-.839-.162-.839-.439q0-.3.416-.462a2.4,2.4,0,0,1,.839-.146A4.525,4.525,0,0,1,19.165-1.093Zm4.659-3.9a.334.334,0,0,0-.085.208,1.1,1.1,0,0,0,.2.516.85.85,0,0,0,.593.454.507.507,0,0,0,.308-.108,13.02,13.02,0,0,1,3.442-1.032,3.991,3.991,0,0,0-1.255.885,2.853,2.853,0,0,0-.839,1.879,2.045,2.045,0,0,0,.893,1.725,3.18,3.18,0,0,0,1.571.554c.162,0,.277-.092.277-.216a.63.63,0,0,0-.231-.37.384.384,0,0,0-.323-.123A2.327,2.327,0,0,1,27.6-.8a1.563,1.563,0,0,1-1.024-1.5A2.731,2.731,0,0,1,29.16-4.874a1.053,1.053,0,0,1,.216.015,1.09,1.09,0,0,0,.146.008c.146,0,.239-.077.239-.192,0-.1-.069-.2-.223-.293a1.028,1.028,0,0,0-.416-.162.97.97,0,0,0-.27.062,8.434,8.434,0,0,1-1.039.254c-.531.1-.97.2-1.247.269a12.38,12.38,0,0,1-2.141.454.436.436,0,0,1-.347-.131A.838.838,0,0,1,23.824-4.99ZM28.552-3.8a3.694,3.694,0,0,1,.593.816c.239.5.239.5.339.5.131,0,.239-.139.239-.323s-.108-.362-.385-.616a3.927,3.927,0,0,0-.685-.477Zm.809-.439a3.675,3.675,0,0,1,.847,1.093c.062.108.108.146.177.146.116,0,.193-.131.193-.316,0-.208-.1-.37-.393-.593a3.745,3.745,0,0,0-.739-.439Zm3-.824a1.906,1.906,0,0,0,.4.678,1.945,1.945,0,0,0,.747.477,1.624,1.624,0,0,0-.747.408.8.8,0,0,0-.239.531,1.149,1.149,0,0,0,.339.762,1.889,1.889,0,0,0,.616.393c-.008.193-.015.293-.015.385A1.651,1.651,0,0,0,34.057.008,1.76,1.76,0,0,0,35.1.323a1.728,1.728,0,0,0,1.871-1.64c0-.785-.485-1.424-1.625-2.125l-.085.1a2.631,2.631,0,0,1,1.163,1.925,1.3,1.3,0,0,1-.254.785,1.5,1.5,0,0,1-1.217.524,1.106,1.106,0,0,1-1.217-1.224c0-.1.008-.192.023-.377a3.121,3.121,0,0,0,.816.139c.162,0,.262-.069.262-.177a.534.534,0,0,0-.462-.416.509.509,0,0,0-.085.008.17.17,0,0,1-.062.008,2.135,2.135,0,0,1-.393-.054,9.159,9.159,0,0,1,.308-1.424,1.77,1.77,0,0,0,.3.038c.154,0,.246-.062.246-.162A.436.436,0,0,0,34.588-4a.559.559,0,0,0-.308-.169,3.646,3.646,0,0,1,.424-1.07.332.332,0,0,0,.1-.223.8.8,0,0,0-.4-.554,1.181,1.181,0,0,0-.57-.239.318.318,0,0,0-.131.031c.308.216.416.377.416.639A8.123,8.123,0,0,1,33.88-4.22a2.342,2.342,0,0,1-.9-.331,1.676,1.676,0,0,1-.531-.554Zm1.394,1.378a12.728,12.728,0,0,0-.231,1.4c-.531-.162-.793-.4-.793-.724a.533.533,0,0,1,.169-.385A1.161,1.161,0,0,1,33.757-3.681Zm6.73.2V-.9a4.789,4.789,0,0,1-.554.239,4.873,4.873,0,0,0,.308.608c.031.046.046.062.069.062.046,0,.069-.038.069-.123,0-.046.008-.115.015-.2.154-.139.154-.139.654-.57a9.576,9.576,0,0,0,.716-.662L41.7-1.64a7.933,7.933,0,0,1-.793.516V-3.48H41.7a.05.05,0,0,0,.046-.046c0-.015-.015-.039-.046-.062-.193-.223-.262-.285-.477-.508-.146.185-.193.246-.331.439h-.5v-2.4c.316-.108.316-.108.316-.162,0-.085-.231-.139-.816-.177a3.288,3.288,0,0,1,.046.67v2.071H39.3a2.973,2.973,0,0,1-.539-.054l.046.27A1.792,1.792,0,0,1,39.3-3.48h.254c.008.2.008.2.008.346a7.689,7.689,0,0,1-.208,1.948A3.988,3.988,0,0,1,38.662.239l.1.077A4.137,4.137,0,0,0,39.555-.8a5.817,5.817,0,0,0,.47-2.456V-3.48ZM45.2-5.79a1.808,1.808,0,0,1-.285.516l.069.062a3.145,3.145,0,0,0,.6-.439c.339-.015.424-.038.424-.1,0-.031-.015-.054-.054-.1a4.51,4.51,0,0,0-.539-.477c-.154.154-.2.2-.347.362h-2.8a2.377,2.377,0,0,0-.015-.393h-.131a2.134,2.134,0,0,1-.154.731,1.017,1.017,0,0,1-.308.393c-.131.085-.146.115-.146.216,0,.2.1.385.208.385.069,0,.139-.046.239-.154l.062.223a2.1,2.1,0,0,1,.508-.046h.832v.685h-.9a4.771,4.771,0,0,0-.547-.354,4.664,4.664,0,0,1,.031.685,19.387,19.387,0,0,1-.054,2.171c.008.062.023.077.062.085a.853.853,0,0,0,.146.015,1.833,1.833,0,0,0,.246-.031c.054-.008.062-.015.085-.069v-.308h.932c0,.393-.008.655-.008.778H41.942a1.932,1.932,0,0,1-.554-.062l.054.285a3.991,3.991,0,0,1,.5-.046h1.409L43.328.485c.008.077.039.1.108.1a2.022,2.022,0,0,0,.377-.046c.054-.015.069-.031.077-.077-.008-.662-.008-.662-.023-1.24H46c.046,0,.054-.008.054-.031a.134.134,0,0,0-.023-.054c-.262-.246-.347-.323-.616-.562-.169.2-.223.262-.393.47H43.859v-.778h1.063v.169c.015.046.031.054.069.054a1.442,1.442,0,0,0,.377-.039c.031-.008.046-.038.054-.092-.015-.955-.015-1.178-.015-1.563v-.454a.661.661,0,0,0,.239-.177c0-.008-.008-.023-.031-.046a.293.293,0,0,1-.038-.046c-.185-.162-.239-.208-.424-.354-.139.154-.177.2-.308.354h-.993v-.685h1.886c.054,0,.085-.023.085-.046s-.008-.038-.039-.077l-.547-.493-.431.439h-.955v-.439a1.191,1.191,0,0,0,.246-.085c.054-.046.054-.054.054-.054-.008-.023-.015-.046-.031-.054a2.373,2.373,0,0,0-.8-.139,3.742,3.742,0,0,1,.039.631v.139h-.832A2.2,2.2,0,0,1,42-4.836a1.984,1.984,0,0,0,.27-.955ZM44.914-1.9H43.852V-2.78h1.063Zm.008-1.039h-1.07v-.824h1.07ZM43.359-1.9h-.932V-2.78h.932Zm0-1.039h-.932v-.824h.932Zm-4.5-2.672a2.384,2.384,0,0,1,.262.716c.054.239.1.485.123.647.015.208.039.254.116.254a.223.223,0,0,0,.162-.092.763.763,0,0,0,.154-.37,1.369,1.369,0,0,0-.246-.57,2.856,2.856,0,0,0-.485-.639Zm1.771,1.686a7.3,7.3,0,0,0,.385-.67c.316-.654.316-.654.385-.793.254-.069.254-.069.254-.108,0-.054-.223-.146-.662-.262a7.22,7.22,0,0,1-.431,1.8Zm9.209-2.279c.323.208.424.323.424.454,0,.185-.231.508-1.163,1.64-.47.577-.593.785-.593,1.032a1,1,0,0,0,.293.647,14.237,14.237,0,0,1,1.124,1.394A7.256,7.256,0,0,1,50.574.046c.131.277.162.316.262.316C51,.362,51.1.192,51.1-.1a.991.991,0,0,0-.116-.508,6.728,6.728,0,0,0-1.417-1.571,7.392,7.392,0,0,1-.539-.508.645.645,0,0,1-.231-.4c0-.146.1-.323.37-.624a19.159,19.159,0,0,1,1.417-1.332c.408-.331.447-.377.447-.477s-.046-.185-.169-.308A1.621,1.621,0,0,0,50-6.237.357.357,0,0,0,49.842-6.206Zm10.6,3.989a6.92,6.92,0,0,1-.308,1.863C60.052-.139,60-.1,59.814-.1c-.208,0-.639-.031-1.417-.1l-.008.131a2.619,2.619,0,0,1,.839.177c.177.077.239.169.331.462.524-.092.785-.216.916-.416a5.461,5.461,0,0,0,.5-2.218c.239-.123.316-.169.316-.223,0-.023-.023-.054-.1-.108-.208-.146-.27-.193-.477-.331-.131.139-.169.185-.308.331H59.86c.023-.092.054-.208.085-.339.054-.2.1-.4.154-.608.254-.116.293-.146.293-.193,0-.023-.023-.054-.108-.123-.169-.131-.223-.177-.4-.3-.139.123-.185.162-.323.3h-.347c.062-.262.062-.262.223-1.016.239-.146.3-.193.3-.239,0-.023-.023-.054-.085-.1-.193-.146-.254-.185-.454-.316-.162.177-.162.177-.285.323H57.55c.123-.377.177-.578.293-1.063.269-.054.37-.1.37-.162,0-.031-.039-.062-.108-.085-.123-.039-.462-.108-.785-.162A6.893,6.893,0,0,1,57-5H55.117a2.577,2.577,0,0,1-.724-.077l.062.3a3.163,3.163,0,0,1,.662-.046h1.833A10.118,10.118,0,0,1,56-2.8,9.04,9.04,0,0,1,54.054-.539l.054.085a6.779,6.779,0,0,0,1.963-1.763ZM56.21-2.395a7.866,7.866,0,0,0,.708-1.086H59.59a9.289,9.289,0,0,1-.239,1.086Zm2.7-2.433c-.046.239-.116.624-.223,1.17H57a9.226,9.226,0,0,0,.493-1.17ZM55.278-6.275a3.549,3.549,0,0,1,.685,1.055c.046.115.085.154.146.154.116,0,.27-.254.27-.439a.411.411,0,0,0-.193-.323,3.186,3.186,0,0,0-.862-.508Zm.762,4.682a1.837,1.837,0,0,1-.5,1.1c-.192.154-.223.2-.223.308,0,.216.123.477.231.477s.254-.131.362-.331a3.049,3.049,0,0,0,.246-1.3c0-.054,0-.139-.008-.254Zm.755-.038a7.562,7.562,0,0,1,.262,1.3c.015.254.015.254.046.316a.117.117,0,0,0,.077.046c.139,0,.347-.323.347-.531a2.542,2.542,0,0,0-.662-1.17Zm.986-.115a6.211,6.211,0,0,1,.47,1.2c.031.116.069.162.123.162.116,0,.254-.254.254-.477s-.192-.454-.785-.932Zm.939-.169a4.076,4.076,0,0,1,.577,1c.054.146.092.2.154.2.108,0,.208-.223.208-.454,0-.185-.077-.3-.347-.493a2.741,2.741,0,0,0-.554-.316Zm5.205-.955-.408,1.078a6.1,6.1,0,0,1-.277.654,2.918,2.918,0,0,1-.146-1.016,4.224,4.224,0,0,1,.1-.955,6.549,6.549,0,0,1,.416-1.224c.154-.308.162-.339.162-.462a1.039,1.039,0,0,0-.285-.608c-.208-.269-.347-.37-.516-.377a1.369,1.369,0,0,1,.216.724,3.6,3.6,0,0,1-.108.716,11.78,11.78,0,0,0-.27,1.455,6.938,6.938,0,0,0-.062.824,4.563,4.563,0,0,0,.27,1.64c.085.208.2.316.331.316a.189.189,0,0,0,.185-.131,1.125,1.125,0,0,0,.023-.331,3.028,3.028,0,0,1,.131-.816c.216-.893.331-1.378.346-1.448ZM64.919-4.8a1.357,1.357,0,0,0,1.047.431c.069,0,.154-.008.316-.015-.123.092-.385.308-.732.6l.077.077a7.863,7.863,0,0,1,.993-.547,4.414,4.414,0,0,1,1.093-.27c.162-.031.216-.077.216-.177s-.077-.192-.239-.285a.586.586,0,0,0-.27-.108c-.054,0-.069.008-.169.062a4.089,4.089,0,0,1-1.548.346,1.205,1.205,0,0,1-.716-.208Zm-.046,2.325a2.087,2.087,0,0,0-.092.608,1.279,1.279,0,0,0,.416,1A3.143,3.143,0,0,0,67.19-.4a3.872,3.872,0,0,0,.962-.085c.108-.039.169-.1.169-.192a.593.593,0,0,0-.485-.454.38.38,0,0,0-.116.023,1.2,1.2,0,0,1-.408.123,3.634,3.634,0,0,1-.655.054c-1.193,0-1.679-.346-1.679-1.193A3,3,0,0,1,65-2.449Zm4.882,1.371A6.007,6.007,0,0,1,70.94.115c.339.508.339.508.393.554a.253.253,0,0,0,.108.046c.131,0,.277-.262.277-.508A.778.778,0,0,0,71.31-.47a6.975,6.975,0,0,0-1.5-.739Zm7.484-1.555a7.789,7.789,0,0,0,1.8-1.194A11.368,11.368,0,0,0,80.865-5.9a10.821,10.821,0,0,0,.616.932,12.148,12.148,0,0,0,1.471,1.548,4.157,4.157,0,0,0,.924.655c.139-.377.246-.477.585-.547v-.115a3.539,3.539,0,0,1-.986-.385A7.955,7.955,0,0,1,81.7-5.144,3.876,3.876,0,0,1,81.012-6c.246-.039.323-.077.323-.139,0-.038-.023-.062-.069-.077-.108-.038-.462-.116-.832-.185a1.5,1.5,0,0,1-.177.37,11.743,11.743,0,0,1-.939,1.278,10.161,10.161,0,0,1-2.148,1.987Zm1.948-.855a2.788,2.788,0,0,1,.524-.039h2.633c.062,0,.069,0,.069-.031a.138.138,0,0,0-.038-.054c-.27-.239-.354-.316-.631-.539a5.425,5.425,0,0,0-.37.447h-1.6a2.426,2.426,0,0,1-.631-.062ZM78.24-2.295a3.158,3.158,0,0,1,.6-.046h3.373A18.091,18.091,0,0,1,80.765.308a.28.28,0,0,0-.023.085.079.079,0,0,0,.038.062,2.041,2.041,0,0,0,.47.062.13.13,0,0,0,.131-.077c.346-.585.539-.939.716-1.286.547-1.116.547-1.116.662-1.347.254-.108.316-.154.316-.216,0-.031-.023-.062-.077-.108-.208-.154-.277-.2-.485-.354-.131.146-.169.193-.3.354h-3.3a3.465,3.465,0,0,1-.739-.062Zm8.655-.986c-.323.708-.323.708-.616,1.278a5.168,5.168,0,0,1-.57.909.506.506,0,0,0-.177.431c0,.331.085.531.223.531.069,0,.131-.046.185-.146.123-.216.377-.77.685-1.494.27-.639.424-1,.454-1.078.339-.785.339-.785.447-1.047a2.492,2.492,0,0,1,.809-.162c.408,0,.547.185.547.7a5.956,5.956,0,0,1-.454,2.071c-.2.485-.323.647-.5.647a3.876,3.876,0,0,1-1.194-.531l-.069.1c.816.67.832.685.855.9a.179.179,0,0,0,.208.177,1.091,1.091,0,0,0,.739-.346A4.967,4.967,0,0,0,89.3-3.1c0-.809-.316-1.2-.978-1.2a2.68,2.68,0,0,0-.67.092,7.454,7.454,0,0,1,.493-1.047c.092-.131.108-.162.108-.223,0-.162-.193-.3-.539-.4a2.11,2.11,0,0,0-.516-.1.348.348,0,0,0-.231.077c.447.146.593.277.593.516a4.341,4.341,0,0,1-.316,1.263,7.962,7.962,0,0,1-1.309.27c-.285,0-.424-.1-.585-.424a.509.509,0,0,0-.046.169,1.221,1.221,0,0,0,.254.585A.569.569,0,0,0,85.9-3.3a.4.4,0,0,0,.223-.085,5.961,5.961,0,0,1,1-.4Zm3.172-.885a2.235,2.235,0,0,1,1.055,1.024,1.978,1.978,0,0,1,.239.739,11.72,11.72,0,0,1-1.178.393l.031.108a6.81,6.81,0,0,1,.963-.069.5.5,0,0,1,.316.077.292.292,0,0,0,.177.054c.193,0,.308-.154.308-.416a1.815,1.815,0,0,0-.439-1.093,2.676,2.676,0,0,0-1.409-.924Zm5.136-2a1.6,1.6,0,0,0,.393.616,2.432,2.432,0,0,0,.7.439,6.844,6.844,0,0,1-.909.293,1.9,1.9,0,0,0-.793.354c-.1.1-.123.169-.123.439a8.593,8.593,0,0,1-.146,1.016c-.039.27-.077.485-.092.639a3.189,3.189,0,0,1-.085.462c-.008.054-.023.115-.023.123a.892.892,0,0,0,.162.393c.123.177.223.254.339.254.085,0,.139-.038.216-.154a1.761,1.761,0,0,1,.424-.485,3.061,3.061,0,0,1,1.84-.839.836.836,0,0,1,.932.839,1.492,1.492,0,0,1-.77,1.247,4.426,4.426,0,0,1-1.933.685l.023.123a5.652,5.652,0,0,0,1.748-.3c.963-.331,1.517-.932,1.517-1.64s-.608-1.2-1.471-1.2a4.826,4.826,0,0,0-2.51.955c.015-.516.069-1.155.123-1.563.015-.139.023-.208.023-.246a.616.616,0,0,0-.054-.246.763.763,0,0,1-.046-.223.3.3,0,0,1,.085-.208.759.759,0,0,1,.354-.139A6.584,6.584,0,0,1,96.6-4.751a2.6,2.6,0,0,1,.377.023c.1.015.139.023.162.023a.169.169,0,0,0,.185-.162.556.556,0,0,0-.169-.339.479.479,0,0,0-.316-.193c-.177-.038-.408-.1-.554-.146a1.586,1.586,0,0,1-.978-.678Zm8.609.878v-.747c.254-.069.346-.115.346-.177,0-.077-.131-.108-.893-.2.023.331.031.485.031.685v.439h-1.471a2.309,2.309,0,0,1-.57-.062l.054.293a2.392,2.392,0,0,1,.531-.054H103.3v1.178h-2.256A2.4,2.4,0,0,1,100.423-4l.038.293a2.538,2.538,0,0,1,.577-.046h2.911c-.254.216-.393.323-.716.57-.123-.054-.185-.085-.354-.162a3.293,3.293,0,0,1-.1.493,12.517,12.517,0,0,1-2.4,1.386l.038.123a9.251,9.251,0,0,0,2.241-1.047,8.466,8.466,0,0,1-.362,1.193.266.266,0,0,0-.023.1c0,.062.085.077.393.077.116,0,.146-.023.177-.123.108-.393.108-.393.131-.462h2.818a4.514,4.514,0,0,1-.339,1.34.354.354,0,0,1-.331.239,15.242,15.242,0,0,1-1.609-.154l-.023.131c1.032.246,1.086.277,1.124.647.616-.031.708-.046.878-.139a1.175,1.175,0,0,0,.5-.631,7.069,7.069,0,0,0,.346-1.294c.277-.1.323-.131.323-.185,0-.031-.023-.062-.085-.116l-.462-.354c-.131.146-.177.192-.316.339h-2.78c.054-.192.054-.192.154-.624a15.767,15.767,0,0,0,3.1-.4,2.209,2.209,0,0,0,.293.023c.069,0,.131-.031.131-.062,0-.046-.054-.085-.354-.285-.077-.046-.2-.123-.346-.223a4.968,4.968,0,0,1-1.4.524,12.928,12.928,0,0,1-1.378.277c.031-.123.046-.2.062-.239.624-.424.909-.639,1.309-.962h2.841c.054,0,.085-.015.085-.046,0-.015-.015-.039-.046-.077-.27-.246-.362-.331-.654-.593-.223.231-.293.3-.531.539h-1.486a15.084,15.084,0,0,0,1.656-1.717,1.887,1.887,0,0,0,.192.008c.131,0,.223-.038.223-.092,0-.069-.062-.1-.824-.416a6.977,6.977,0,0,1-.67.947c-.246-.239-.316-.308-.593-.547l-.416.462Zm1.478.177a10.232,10.232,0,0,1-1.14,1.178h-.339V-5.113Zm5.421-1.078a2.058,2.058,0,0,0,1.263.87c-.192.054-.793.239-1.386.431l.031.1c.747-.123,1.147-.193,1.209-.2a4.819,4.819,0,0,1,.639-.054.749.749,0,0,1,.139.008.677.677,0,0,0,.108.008.153.153,0,0,0,.154-.146.552.552,0,0,0-.185-.346.442.442,0,0,0-.331-.162,2.794,2.794,0,0,1-.562-.085,2.107,2.107,0,0,1-1-.493Zm-1.078,2.056a.365.365,0,0,0-.123.277,1.374,1.374,0,0,0,.139.493c.108.208.231.316.354.316a.644.644,0,0,0,.3-.116,5.981,5.981,0,0,1,1.809-.77c.054,0,.085.015.085.046,0,.046-.031.092-.162.27a26.363,26.363,0,0,1-1.886,2.079,8.5,8.5,0,0,1-1.117.962.24.24,0,0,0-.123.216c0,.239.146.524.277.524.054,0,.108-.046.185-.146a7.986,7.986,0,0,1,.793-.947,2.139,2.139,0,0,1,1.294-.762.443.443,0,0,1,.462.439,4.964,4.964,0,0,0,.1.593.911.911,0,0,0,.431.6,2.284,2.284,0,0,0,1.24.246c.67,0,.9-.062.9-.239,0-.092-.054-.162-.192-.269a.749.749,0,0,0-.37-.177.266.266,0,0,0-.1.023.737.737,0,0,1-.27.085,4.524,4.524,0,0,1-.477.031c-.539,0-.678-.092-.778-.539-.123-.508-.177-.647-.346-.8a.758.758,0,0,0-.508-.192,1.841,1.841,0,0,0-.862.27c.47-.508,1.278-1.3,1.54-1.517a1.573,1.573,0,0,1,.431-.308c.193-.077.223-.1.223-.192a.966.966,0,0,0-.631-.647c-.038,0-.062.008-.131.054a2.661,2.661,0,0,1-.724.27,5.044,5.044,0,0,1-1.324.362.35.35,0,0,1-.246-.092A.829.829,0,0,1,109.633-4.135ZM119.789-5.39a.324.324,0,0,0,.039-.015h.023a.008.008,0,0,1,.008-.008c.008,0,.023.015.023.015a.43.43,0,0,1-.077.123c-.608.785-.9,1.124-1.84,2.179a7.1,7.1,0,0,1-1.07,1.07.368.368,0,0,0-.162.27c0,.231.139.5.254.5.077,0,.131-.046.262-.208A3.637,3.637,0,0,1,119.7-2.9a1.709,1.709,0,0,1,.762.154,1.063,1.063,0,0,1,.477.955A1.516,1.516,0,0,1,120-.347a1.583,1.583,0,0,0-.339-.477,1.421,1.421,0,0,0-.978-.377c-.477,0-.832.277-.832.655,0,.47.485.77,1.24.77,1.394,0,2.418-.816,2.418-1.917a1.47,1.47,0,0,0-1.648-1.44,3.86,3.86,0,0,0-2.094.731l-.015-.015c.162-.162.162-.162.9-.955.362-.385.647-.67,1.132-1.155a2.145,2.145,0,0,1,.639-.516c.092-.046.131-.092.131-.146,0-.092-.054-.177-.231-.346-.192-.193-.316-.27-.416-.27a.184.184,0,0,0-.108.038.982.982,0,0,1-.477.239,8.389,8.389,0,0,1-1.455.331c-.254,0-.462-.2-.577-.562a.316.316,0,0,0-.069.2,1.1,1.1,0,0,0,.216.57c.146.216.3.323.439.323a.908.908,0,0,0,.316-.1c.531-.231,1.255-.516,1.555-.608ZM119.5-.162a2.045,2.045,0,0,1-.547.069c-.539,0-.878-.185-.878-.47,0-.239.192-.393.485-.393A1.008,1.008,0,0,1,119.5-.162Zm5.228-5.105a3.555,3.555,0,0,1,1.055.855c.331.408.331.408.416.408.116,0,.208-.169.208-.385,0-.454-.393-.693-1.625-.986ZM123.893-3.9a3.8,3.8,0,0,1,1.232,1.055c.116.146.162.177.239.177.116,0,.216-.169.216-.37a.549.549,0,0,0-.293-.508A4.066,4.066,0,0,0,123.939-4Zm5.9-.37a16.479,16.479,0,0,1-3.373,2.657,4.777,4.777,0,0,1-1.509.7c-.231,0-.416-.154-.585-.485a.269.269,0,0,0-.062.185A1.276,1.276,0,0,0,124.5-.6c.223.308.393.454.547.454a.259.259,0,0,0,.177-.077,1.717,1.717,0,0,1,.37-.262,15.177,15.177,0,0,0,2.672-1.9,10.6,10.6,0,0,0,1.632-1.8Zm2.395-.493c.423.593.685.755,1.263.755a15.96,15.96,0,0,0,2.094-.208c.393-.054.493-.092.493-.216,0-.085-.038-.146-.146-.231a.957.957,0,0,0-.423-.208.265.265,0,0,0-.123.039,5.8,5.8,0,0,1-2.118.431,1.114,1.114,0,0,1-.939-.431Zm-1.07,2.787c-.046.108-.046.108-.046.146a1.064,1.064,0,0,0,.216.524.886.886,0,0,0,.608.439.473.473,0,0,0,.239-.062,9.358,9.358,0,0,1,2.772-.447,8.507,8.507,0,0,1,1.794.169,1.711,1.711,0,0,0,.385.062c.131,0,.216-.069.216-.169,0-.192-.477-.585-.716-.585a.891.891,0,0,0-.208.031,4,4,0,0,1-1.04.1c-.947.046-1.617.1-2.749.216-.339.039-.539.054-.654.054A.82.82,0,0,1,131.116-1.979Zm8.47,2.233a4.766,4.766,0,0,0,1.193-1.032,6.082,6.082,0,0,0,1.109-2.2c.062-.2.069-.216.115-.347.832-.393,1.178-.57,1.817-.932a1.774,1.774,0,0,1,.377-.162c.231-.062.277-.092.277-.208,0-.131-.223-.393-.554-.647a.857.857,0,0,0-.408-.223.266.266,0,0,0-.1.023A4.679,4.679,0,0,1,142-5.244c-.293.031-.462.054-.531.062a15.3,15.3,0,0,1-1.856.2.746.746,0,0,1-.762-.462.355.355,0,0,0-.054.177,1.038,1.038,0,0,0,.146.416c.169.285.447.516.616.516a.457.457,0,0,0,.177-.038,5.178,5.178,0,0,1,.785-.269,14.776,14.776,0,0,1,2.657-.424c.362,0,.454.023.454.115,0,.054-.062.139-.239.308a9.388,9.388,0,0,1-1.378,1.1c-.054-.1-.131-.162-.331-.269a1.81,1.81,0,0,0-.593-.223.213.213,0,0,0-.177.077c.308.131.454.285.454.493a5.564,5.564,0,0,1-.462,1.679,5.119,5.119,0,0,1-1.394,1.94ZM150.8-3.188a19.811,19.811,0,0,1-.169,2.364c-.1.6-.185.724-.485.724-.262,0-.585-.031-1.717-.162l-.008.139a3.946,3.946,0,0,1,.916.216.4.4,0,0,1,.246.393c.909-.023,1.186-.123,1.34-.447A10.341,10.341,0,0,0,151.328-3c.216-.108.27-.146.27-.208,0-.031-.023-.062-.085-.115a3.764,3.764,0,0,0-.477-.339c-.139.123-.185.162-.323.293h-3.28a3.474,3.474,0,0,1-.662-.062l.054.293a4.16,4.16,0,0,1,.616-.054h.978a5.145,5.145,0,0,1-.4,1.586A4.355,4.355,0,0,1,145.946.477L146,.585A5.323,5.323,0,0,0,146.893.2a3.74,3.74,0,0,0,1.517-1.424,5.288,5.288,0,0,0,.585-1.964Zm-5.121.354a6.739,6.739,0,0,0,1.5-1.209,7.679,7.679,0,0,0,1.286-1.833c.285-.038.37-.069.37-.139,0-.054-.069-.085-.462-.223-.085-.023-.223-.069-.385-.131a5.958,5.958,0,0,1-.793,1.64,7.684,7.684,0,0,1-1.586,1.8Zm3.965-3.38a.972.972,0,0,1,.246.354,5.924,5.924,0,0,0,.932,1.5,6.479,6.479,0,0,0,1.463,1.24.823.823,0,0,1,.624-.531l-.008-.1a4.772,4.772,0,0,1-1.74-.893,4.071,4.071,0,0,1-1.178-1.5.481.481,0,0,1-.031-.193Zm8.385,4.266a3.167,3.167,0,0,0,.524,1.1A3.739,3.739,0,0,0,160.175.408a.588.588,0,0,1,.185-.354.489.489,0,0,1,.27-.169V-.208a2.968,2.968,0,0,1-1.063-.346A3.416,3.416,0,0,1,158.843-1a8.5,8.5,0,0,0,.878-.416l.146.008h.023c.085,0,.139-.031.139-.077,0-.023-.015-.046-.054-.069-.085-.046-.4-.223-.6-.323a2.9,2.9,0,0,1-.631.793,1.907,1.907,0,0,1-.57-.862h2.21a.076.076,0,0,0,.077-.069A.16.16,0,0,0,160.4-2.1c-.231-.193-.308-.246-.554-.439a5.1,5.1,0,0,0-.4.416h-.585v-.732h1.224a.066.066,0,0,0,.062-.062.112.112,0,0,0-.038-.062c-.208-.193-.277-.246-.5-.431-.154.162-.2.208-.346.377h-.4V-3.7h1.263c.054,0,.092-.023.092-.054s-.015-.046-.054-.077a4.08,4.08,0,0,0-.516-.439l-.339.393h-.447v-.331c.216-.054.262-.077.262-.131,0-.077-.115-.1-.724-.162a3.743,3.743,0,0,1,.023.516v.108h-.947v-.331c.2-.046.27-.077.27-.139,0-.077-.177-.115-.724-.146a2.945,2.945,0,0,1,.023.439v.177h-.716a2.2,2.2,0,0,1-.516-.062l.038.3a1.961,1.961,0,0,1,.493-.062h.7v.67h-.408a1.908,1.908,0,0,1-.539-.069l.046.3a2.414,2.414,0,0,1,.493-.054h.408v.732h-.724a2.059,2.059,0,0,1-.647-.069l.054.3a2.35,2.35,0,0,1,.6-.054h.878A5.653,5.653,0,0,1,155.44-.554l.062.1a7.935,7.935,0,0,0,1.255-.616V-.2a4.108,4.108,0,0,1-.839.092c.054.216.069.269.146.554.054.177.069.2.123.2s.092-.054.131-.277c.755-.262,1.486-.554,2.156-.847l-.046-.116c-.431.123-.724.2-1.186.293V-1.417c.216-.177.308-.254.608-.531ZM157.473-3.7h.947v.67h-.947Zm0,.847h.947v.732h-.947Zm.816-2.7V-6.06c.231-.054.316-.1.316-.169s-.139-.108-.832-.162a3.554,3.554,0,0,1,.015.424v.416h-1.224a2.7,2.7,0,0,1-.654-.062l.038.293a2.724,2.724,0,0,1,.616-.054h3.742a.083.083,0,0,0,.062-.069c0-.023-.031-.062-.062-.092-.254-.216-.331-.285-.6-.5-.177.208-.231.277-.408.485Zm-4.682-.154a2.282,2.282,0,0,1,.47-.046h1.548c.046,0,.077-.015.077-.046a.158.158,0,0,0-.038-.069c-.223-.208-.293-.277-.539-.477-.154.177-.2.231-.346.416h-.7a1.676,1.676,0,0,1-.516-.077ZM153.361-4.7a2.164,2.164,0,0,1,.531-.046h1.848c.077,0,.108-.015.108-.054a.209.209,0,0,0-.023-.062c-.27-.231-.354-.3-.639-.524-.169.2-.231.262-.408.462h-.886a1.981,1.981,0,0,1-.577-.069Zm.2,1.04A1.738,1.738,0,0,1,154-3.7h1.509c.062,0,.1-.023.1-.054s-.015-.046-.046-.077c-.231-.216-.3-.277-.547-.477-.154.185-.2.246-.346.431H154a1.784,1.784,0,0,1-.485-.062Zm0,1.047a2.424,2.424,0,0,1,.516-.046h1.471a.076.076,0,0,0,.077-.062.211.211,0,0,0-.031-.054c-.231-.208-.308-.27-.577-.477-.146.185-.193.246-.331.416h-.608a2.009,2.009,0,0,1-.562-.069Zm.57,2.741h.785V.362c0,.092.046.116.177.116.193,0,.27-.031.308-.116-.008-.323-.015-.631-.015-1.07v-.808l.123-.054c.077-.039.123-.085.123-.131q0-.046-.069-.092c-.169-.123-.231-.162-.416-.285-.131.123-.169.162-.285.285h-.678c-.231-.131-.3-.169-.539-.285.023.6.031.97.031,1.117,0,.6-.008.932-.031,1.455.031.062.069.077.193.077.193,0,.262-.031.293-.116Zm0-1.748h.785V-.046h-.785Zm4.412-3.519a4.988,4.988,0,0,1,1.409.878c.085.069.139.1.185.1.077,0,.116-.069.116-.185a.564.564,0,0,0-.193-.462,3.966,3.966,0,0,0-1.478-.416Zm-2.88,1.086a4.32,4.32,0,0,0,1.632-.808,1.887,1.887,0,0,0,.192.008c.116,0,.193-.038.193-.092s-.069-.1-.639-.331a2.518,2.518,0,0,1-.454.47,5.068,5.068,0,0,1-.978.655Zm7.623,1.363a6.935,6.935,0,0,1,.893.878,6.332,6.332,0,0,1,.747,1.132c.1.216.162.277.27.277.154,0,.262-.208.262-.508,0-.323-.146-.531-.662-.97.277-.177.416-.285.809-.585.27-.208.493-.377.655-.5.3-.216.5-.37.57-.424a1.576,1.576,0,0,1,.431-.285c.154-.054.154-.054.193-.069a.162.162,0,0,0,.092-.154c0-.1-.1-.246-.323-.477-.254-.262-.408-.37-.539-.37a.348.348,0,0,0-.193.054.483.483,0,0,1-.246.092c-.069.015-.462.069-1.186.162a23.465,23.465,0,0,1-2.549.277.843.843,0,0,1-.47-.092.938.938,0,0,1-.37-.385.38.38,0,0,0-.046.177,1.185,1.185,0,0,0,.27.585c.185.254.377.4.516.4a.488.488,0,0,0,.216-.062,5.776,5.776,0,0,1,1.517-.416,18.285,18.285,0,0,1,2.387-.347c.077,0,.123.023.123.062s-.062.123-.246.362a16.87,16.87,0,0,1-1.763,1.863,6.766,6.766,0,0,0-1.286-.778Zm6.291-2.356a3.99,3.99,0,0,1,1.255,1.132c.208.27.246.308.331.308.131,0,.216-.177.216-.431a.591.591,0,0,0-.262-.524,4.394,4.394,0,0,0-1.486-.577Zm5.405.277a12.18,12.18,0,0,1-2.071,2.056,11.171,11.171,0,0,1-1.84,1.27,1.914,1.914,0,0,1-.747.323.5.5,0,0,1-.308-.162,1.172,1.172,0,0,1-.277-.339.367.367,0,0,0-.038.154c0,.393.585,1.132.9,1.132.1,0,.146-.038.27-.185.054-.069.092-.1.454-.354a15.224,15.224,0,0,0,2.164-1.756A8.01,8.01,0,0,0,175.106-4.7Zm2.726-.5a3.556,3.556,0,0,1,1.055.855c.331.408.331.408.416.408.116,0,.208-.169.208-.385,0-.454-.393-.693-1.625-.986ZM176.869-3.9A3.8,3.8,0,0,1,178.1-2.849c.115.146.162.177.239.177.115,0,.216-.169.216-.37a.549.549,0,0,0-.293-.508A4.066,4.066,0,0,0,176.915-4Zm5.9-.37a16.479,16.479,0,0,1-3.373,2.657,4.777,4.777,0,0,1-1.509.7c-.231,0-.416-.154-.585-.485a.269.269,0,0,0-.062.185,1.276,1.276,0,0,0,.239.616c.223.308.393.454.547.454a.259.259,0,0,0,.177-.077,1.717,1.717,0,0,1,.37-.262,15.177,15.177,0,0,0,2.672-1.9,10.6,10.6,0,0,0,1.632-1.8Zm2.988.246a.819.819,0,0,0-.023.154.829.829,0,0,0,.208.47c.123.146.216.2.331.2a.416.416,0,0,0,.177-.038,12.515,12.515,0,0,1,2.21-.277c-.008.185-.054.77-.092,1.109-.785.062-.839.062-1.532.146a5.615,5.615,0,0,1-.678.062.537.537,0,0,1-.508-.3.236.236,0,0,0-.031.115c0,.216.339.631.516.631a.5.5,0,0,0,.154-.031A10.256,10.256,0,0,1,188.55-2.1c-.069.616-.116,1.063-.154,1.294-.654.062-1.432.139-1.763.185a2.435,2.435,0,0,1-.385.039.784.784,0,0,1-.616-.37.258.258,0,0,0-.031.108.6.6,0,0,0,.116.293c.169.269.37.423.539.423a.519.519,0,0,0,.177-.038,6.923,6.923,0,0,1,1.94-.246,3.388,3.388,0,0,1,.47.023A1.2,1.2,0,0,0,189-.385a.133.133,0,0,0,.139-.139q0-.15-.3-.323c.123-.808.2-1.355.246-1.625.062-.393.062-.393.092-.585a.337.337,0,0,1,.092-.239.138.138,0,0,0,.038-.1.51.51,0,0,0-.169-.293c-.162-.177-.285-.262-.377-.262a.233.233,0,0,0-.123.038c-.115.062-.115.062-.439.1-.839.085-1.5.139-1.833.139A.546.546,0,0,1,185.755-4.027Zm6.922-1.016a3.99,3.99,0,0,1,1.255,1.132c.208.27.246.308.331.308.131,0,.216-.177.216-.431a.591.591,0,0,0-.262-.524,4.394,4.394,0,0,0-1.486-.577Zm5.405.277a12.18,12.18,0,0,1-2.071,2.056,11.171,11.171,0,0,1-1.84,1.27,1.914,1.914,0,0,1-.747.323.5.5,0,0,1-.308-.162,1.172,1.172,0,0,1-.277-.339.367.367,0,0,0-.038.154c0,.393.585,1.132.9,1.132.1,0,.146-.038.27-.185.054-.069.092-.1.454-.354a15.224,15.224,0,0,0,2.164-1.756A8.01,8.01,0,0,0,198.206-4.7Z" transform="translate(97.145 18.188)"/>
      <path id="パス_5" data-name="パス 5" d="M6.042-.73c4.02,0,5.989-.243,7.526-.944a9.4,9.4,0,0,0,5.449-8.633,8.71,8.71,0,0,0-3.183-6.879c-1.942-1.646-4.181-2.347-7.392-2.347-.54,0-1.376,0-2.239.027-.782.027-1.43.027-1.888.027H1.456c1.052.567,1.268,1.214,1.268,3.642v11.33A7.789,7.789,0,0,1,2.481-2c-.135.459-.162.486-1.025,1.268ZM5.583-17.293a11.961,11.961,0,0,1,2.617-.3,7.6,7.6,0,0,1,5.719,2.158,8.1,8.1,0,0,1,1.969,5.422A6.779,6.779,0,0,1,13.11-4.237c-1.295.971-2.94,1.376-5.422,1.376a9.4,9.4,0,0,1-2.1-.189ZM35.123-.73h4.02c-1.025-.567-1.268-1.214-1.268-3.642V-15.837c0-2.428.243-3.075,1.268-3.642h-5.4c1.025.567,1.268,1.214,1.268,3.642v9.253a3.338,3.338,0,0,1-.593,2.266,5.04,5.04,0,0,1-4.1,1.969,4.663,4.663,0,0,1-3.615-1.565c-.782-.917-1-1.727-1-3.642v-8.282c0-2.428.243-3.075,1.268-3.642h-5.4c1.052.567,1.268,1.214,1.268,3.642v8.282c0,2.293.135,3.129.674,4.154,1,1.969,3.237,3.129,5.962,3.129A6.985,6.985,0,0,0,35.123-2.7ZM52.55-19.964c-6.124,0-10.764,4.289-10.764,9.954,0,5.449,4.586,9.739,10.386,9.739,5.881,0,10.521-4.4,10.521-9.954a9.934,9.934,0,0,0-2.886-6.933A10.676,10.676,0,0,0,52.55-19.964Zm-.4,2.05a6.588,6.588,0,0,1,5.368,2.482,8.948,8.948,0,0,1,1.942,5.665c0,4.424-2.913,7.473-7.176,7.473a6.353,6.353,0,0,1-4.991-2.131A9.2,9.2,0,0,1,45-10.468a7.916,7.916,0,0,1,1.969-5.341A7.487,7.487,0,0,1,52.145-17.914Zm31.967-1.4a15.362,15.362,0,0,0-4.343-.62c-4.316,0-7.095,1.969-7.095,5.045A4.476,4.476,0,0,0,74.158-11.6,13.108,13.108,0,0,0,78.1-9.335a14.383,14.383,0,0,1,3.642,2,2.813,2.813,0,0,1,.944,2.023c0,1.646-1.834,2.913-4.262,2.913a9.768,9.768,0,0,1-6.259-2.266l.863,3.534a13.6,13.6,0,0,0,5.018.89A8.249,8.249,0,0,0,84-2.348a5.456,5.456,0,0,0,1.753-3.858,3.883,3.883,0,0,0-1.538-3.1A18.9,18.9,0,0,0,80.066-11.6c-3.4-1.565-4.208-2.266-4.208-3.669,0-1.592,1.511-2.671,3.75-2.671a6.464,6.464,0,0,1,4.505,1.861Zm19.153.108a22.362,22.362,0,0,0-5.126-.728,9.683,9.683,0,0,0-10.089,9.873c0,5.908,4.289,9.793,10.791,9.793a10.6,10.6,0,0,0,4.424-.836l1.43-3.318a12.678,12.678,0,0,1-6.232,1.861c-4.02,0-7.176-3.507-7.176-7.985a6.6,6.6,0,0,1,6.8-6.96,10.04,10.04,0,0,1,5.18,1.565ZM110.738-9.9h2.536c1.241,0,1.78.189,2.239.782v-3.021a1.9,1.9,0,0,1-.971.189h-3.8v-5.314a16.827,16.827,0,0,1,2.94-.189c1.834,0,2.563.243,3.48,1.133V-19.64a2.528,2.528,0,0,1-1.079.162h-9.469c1.025.54,1.268,1.214,1.268,3.642V-4.4c0,2.455-.216,3.1-1.268,3.669h11.87V-4.4c-1.538,1.16-1.753,1.565-4.235,1.565a19.444,19.444,0,0,1-3.507-.3Zm14.244-5.557,9.981,12.652A7.666,7.666,0,0,0,138.875.188V-16.133c0-1.888.3-2.563,1.511-3.345h-5.1c1.187.782,1.511,1.457,1.511,3.345V-4.992L126.25-18.426a3.9,3.9,0,0,1-.674-1.052h-4.154c1.16.755,1.484,1.484,1.484,3.345V-4.075c0,1.888-.3,2.563-1.511,3.345h5.072c-1.16-.755-1.484-1.484-1.484-3.345ZM147.157-9.9h2.536c1.241,0,1.78.189,2.239.782v-3.021a1.9,1.9,0,0,1-.971.189h-3.8v-5.314a16.827,16.827,0,0,1,2.94-.189c1.834,0,2.563.243,3.48,1.133V-19.64a2.528,2.528,0,0,1-1.079.162h-9.469c1.025.54,1.268,1.214,1.268,3.642V-4.4c0,2.455-.216,3.1-1.268,3.669H154.9V-4.2c-1.538,1.16-1.753,1.371-4.235,1.371a19.444,19.444,0,0,1-3.507-.3Z" transform="translate(118.544 46.142)"/>
    </g>
  </g>
</svg>
