<svg xmlns="http://www.w3.org/2000/svg" width="303" height="48.981" viewBox="0 0 303 48.981">
  <g id="グループ_1" data-name="グループ 1" transform="translate(-724.5 -58)">
    <text id="いつまでも輝く為に_今から考えるシニア分譲マンション" data-name="いつまでも輝く為に、今から考えるシニア分譲マンション" transform="translate(724.5 67)" font-size="10" font-family="HiraMinProN-W3, Hiragino Mincho ProN" letter-spacing="0.175em"><tspan x="0" y="0">いつまでも輝く為に、今から考えるシニア分譲マンション</tspan></text>
    <path id="パス_5" data-name="パス 5" d="M7.988,7.43c5.725,0,8.529-.346,10.719-1.345A13.392,13.392,0,0,0,26.468-6.209a12.4,12.4,0,0,0-4.534-9.8c-2.766-2.344-5.955-3.343-10.527-3.343-.768,0-1.959,0-3.189.038-1.114.038-2.036.038-2.689.038H1.456c1.5.807,1.806,1.729,1.806,5.187V2.051a11.094,11.094,0,0,1-.346,3.573c-.192.653-.231.692-1.46,1.806ZM7.334-16.16a17.035,17.035,0,0,1,3.727-.423c3.419,0,6.3,1.076,8.145,3.074a11.531,11.531,0,0,1,2.8,7.723,9.655,9.655,0,0,1-3.957,8.222c-1.844,1.383-4.188,1.959-7.723,1.959a13.383,13.383,0,0,1-3-.269ZM49.4,7.43H55.13c-1.46-.807-1.806-1.729-1.806-5.187V-14.086c0-3.458.346-4.38,1.806-5.187H47.445c1.46.807,1.806,1.729,1.806,5.187V-.907a4.755,4.755,0,0,1-.845,3.227,7.179,7.179,0,0,1-5.84,2.8A6.64,6.64,0,0,1,37.418,2.9C36.3,1.59,36,.437,36-2.291v-11.8c0-3.458.346-4.38,1.806-5.187H30.118c1.5.807,1.806,1.729,1.806,5.187v11.8c0,3.266.192,4.457.961,5.917,1.422,2.8,4.61,4.457,8.491,4.457A9.949,9.949,0,0,0,49.4,4.625Zm24.82-27.394c-8.721,0-15.33,6.109-15.33,14.177,0,7.761,6.532,13.87,14.792,13.87,8.376,0,14.984-6.263,14.984-14.177a14.149,14.149,0,0,0-4.111-9.874A15.205,15.205,0,0,0,74.225-19.964Zm-.576,2.92a9.383,9.383,0,0,1,7.646,3.535A12.743,12.743,0,0,1,84.06-5.441C84.06.86,79.911,5.2,73.84,5.2a9.048,9.048,0,0,1-7.108-3.035A13.106,13.106,0,0,1,63.467-6.44a11.274,11.274,0,0,1,2.8-7.607A10.664,10.664,0,0,1,73.648-17.044Zm45.528-2a21.879,21.879,0,0,0-6.186-.884c-6.147,0-10.1,2.8-10.1,7.185A6.375,6.375,0,0,0,105-8.054c1.153,1.076,2.42,1.806,5.609,3.227,3.266,1.5,4.265,2.036,5.187,2.843A4.006,4.006,0,0,1,117.14.9c0,2.344-2.613,4.149-6.07,4.149a13.912,13.912,0,0,1-8.914-3.227l1.229,5.033a19.366,19.366,0,0,0,7.146,1.268c3.573,0,6.416-1,8.491-3a7.771,7.771,0,0,0,2.5-5.494,5.53,5.53,0,0,0-2.19-4.418c-1.229-1-2.536-1.691-5.917-3.266-4.841-2.228-5.994-3.227-5.994-5.225,0-2.267,2.152-3.8,5.34-3.8a9.207,9.207,0,0,1,6.416,2.651Zm27.279.154a31.849,31.849,0,0,0-7.3-1.037c-8.3,0-14.369,5.955-14.369,14.062,0,8.414,6.109,13.947,15.368,13.947a15.1,15.1,0,0,0,6.3-1.191l2.036-4.726c-3.535,1.883-6.07,2.651-8.875,2.651-5.725,0-10.22-4.995-10.22-11.373,0-5.8,4-9.913,9.682-9.913a14.3,14.3,0,0,1,7.377,2.228ZM157.1-5.633h3.612c1.767,0,2.536.269,3.189,1.114v-4.3a2.709,2.709,0,0,1-1.383.269H157.1v-7.569a23.966,23.966,0,0,1,4.188-.269c2.613,0,3.65.346,4.956,1.614V-19.5a3.6,3.6,0,0,1-1.537.231H151.22c1.46.768,1.806,1.729,1.806,5.187V2.2c0,3.5-.307,4.418-1.806,5.225h16.905V2.2c-2.19,1.652-2.5,2.228-6.032,2.228A27.692,27.692,0,0,1,157.1,4.01Zm20.286-7.915L191.6,4.472a10.919,10.919,0,0,0,5.571,4.265V-14.508c0-2.689.423-3.65,2.152-4.764h-7.262c1.691,1.114,2.152,2.075,2.152,4.764V1.359L179.19-17.774a5.556,5.556,0,0,1-.961-1.5h-5.917c1.652,1.076,2.113,2.113,2.113,4.764V2.666c0,2.689-.423,3.65-2.152,4.764H179.5c-1.652-1.076-2.113-2.113-2.113-4.764Zm31.582,7.915h3.612c1.767,0,2.536.269,3.189,1.114v-4.3a2.709,2.709,0,0,1-1.383.269h-5.417v-7.569a23.966,23.966,0,0,1,4.188-.269c2.613,0,3.65.346,4.956,1.614V-19.5a3.6,3.6,0,0,1-1.537.231H203.087c1.46.768,1.806,1.729,1.806,5.187V2.2c0,3.5-.307,4.418-1.806,5.225h16.905V2.48c-2.19,1.652-2.5,1.953-6.032,1.953a27.692,27.692,0,0,1-4.995-.423Z" transform="translate(765.044 98.245)"/>
  </g>
</svg>
