<svg xmlns="http://www.w3.org/2000/svg" width="23.322" height="23.328" viewBox="0 0 23.322 23.328">
  <g id="グループ_705" data-name="グループ 705" transform="translate(-197.58 -358.624)">
    <g id="グループ_90" data-name="グループ 90" transform="translate(174.258 358.624)">
      <g id="グループ_89" data-name="グループ 89">
        <g id="グループ_82" data-name="グループ 82">
          <rect id="長方形_35" data-name="長方形 35" width="23.322" height="23.328" transform="translate(23.322)" fill="#ff3301"/>
          <path id="パス_897" data-name="パス 897" d="M223.86,361.873a.123.123,0,0,0-.123.123v7.345h-7.5V362a.122.122,0,0,0-.123-.123H212.27a.123.123,0,0,0-.123.123v18.42a.123.123,0,0,0,.123.124h3.847a.123.123,0,0,0,.123-.124v-7.345h7.5v7.345a.124.124,0,0,0,.123.124h3.847a.123.123,0,0,0,.123-.124V362a.123.123,0,0,0-.123-.123H223.86" transform="translate(-184.982 -359.544)" fill="#fff"/>
        </g>
      </g>
    </g>
  </g>
</svg>
