<?xml version="1.0" encoding="UTF-8"?>
<svg id="_レイヤー_2" data-name="レイヤー 2" xmlns="http://www.w3.org/2000/svg" viewBox="0 0 565.84 123.84">
  <defs>
    <style>
      .cls-1 {
        stroke-width: 0px;
      }
    </style>
  </defs>
  <g id="header_footer" data-name="header/footer">
    <g>
      <g>
        <g>
          <path class="cls-1" d="m4.65,16.42c0-4.86.73-12.57-4.65-14.14v-.32h25.87c24.08,0,39.07,13.09,39.07,34.1s-15.95,35.38-39.6,35.38H0v-.32c5.28-3.58,4.65-8.66,4.65-14.89V16.42Zm10.77,46.68c2.54.52,5.07.74,7.71.74,15.73,0,29.77-8.24,29.77-26.51s-10.35-27.78-27.99-27.78c-3.16,0-6.33.43-9.5,1.17v52.38Z"/>
          <path class="cls-1" d="m124.61,64.46c-4.66,6.12-13.31,8.66-20.69,8.66-6.98,0-14.37-2.22-19.12-7.39-5.59-6.12-5.38-13.2-5.38-20.81v-28.19c0-4.76.74-12.47-4.64-14.46v-.32h20.06v.32c-5.28,2-4.64,9.7-4.64,14.46v28.19c0,14.04,5.92,20.59,16.78,20.59,5.92,0,11.94-2.42,15.41-7.39,2.33-3.16,2.23-5.81,2.23-9.61v-31.78c0-4.76.63-12.47-4.66-14.46v-.32h20.07l.11.32c-5.38,2-4.75,9.7-4.75,14.57v39.81c0,4.76-.63,12.46,4.75,14.46v.32h-15.52v-6.97Z"/>
          <path class="cls-1" d="m225.98,35.95c0,21.55-17.85,37.17-38.85,37.17s-38.55-15-38.55-36.63C148.58,16.42,166-.36,188.17.16c22.18-.11,37.81,16.79,37.81,35.79m-65.36-.42c0,14.79,10.45,29.99,27.03,29.99s26.29-11.72,26.29-27.46-9.81-30.3-26.52-30.3-26.81,11.83-26.81,27.78"/>
        </g>
        <path class="cls-1" d="m309.86,50.58c0,5.31-2.15,10.05-6.45,14.22-5.37,5.17-12.69,7.76-21.97,7.76-6.3,0-12.46-1.1-18.48-3.29l-3.18-13.01c7.09,5.57,14.78,8.35,23.06,8.35,4.44,0,8.16-1.02,11.18-3.08,3.02-2.06,4.53-4.61,4.53-7.66s-1.16-5.41-3.49-7.46c-1.98-1.71-6.48-4.17-13.46-7.35-7-3.19-11.81-5.96-14.46-8.35-3.65-3.31-5.47-7.35-5.47-12.12,0-5.63,2.37-10.14,7.1-13.51,4.74-3.38,11.09-5.07,19.04-5.07,5.23,0,10.57.77,16,2.29v11.93c-4.71-4.58-10.24-6.87-16.6-6.87-4.11,0-7.44.92-9.99,2.74-2.56,1.81-3.83,4.18-3.83,7.11,0,2.59,1,4.75,3.04,6.52,2.02,1.75,6.17,4.08,12.47,7,7.49,3.45,12.59,6.26,15.3,8.45,3.78,2.98,5.66,6.79,5.66,11.42Z"/>
        <path class="cls-1" d="m379.44,57.15l-5.27,12.22c-5.1,2.06-10.53,3.1-16.3,3.1-11.99,0-21.62-3.31-28.87-9.9-7.26-6.57-10.89-15.32-10.89-26.19s3.53-19.15,10.54-26.04c7.02-6.89,15.9-10.33,26.64-10.33,5.24,0,11.53.9,18.88,2.68v12.02c-6.7-3.84-13.05-5.76-19.08-5.76-7.36,0-13.37,2.4-18.04,7.2-4.68,4.8-7.01,10.95-7.01,18.44,0,8.22,2.55,15.16,7.66,20.87,5.09,5.7,11.36,8.55,18.78,8.55,6.69,0,14.35-2.29,22.96-6.86Z"/>
        <path class="cls-1" d="m510.16,1.69c-2.26,1.46-3.74,3.01-4.47,4.62-.73,1.63-1.09,4.19-1.09,7.71v60.13c-5.1-1.66-9.91-5.33-14.41-11.03l-36.77-46.62v41.95c0,3.44.38,6.01,1.14,7.7.76,1.68,2.2,3.22,4.33,4.62h-18.69c2.25-1.45,3.74-3,4.47-4.62.72-1.63,1.09-4.19,1.09-7.7V14.02c0-3.44-.38-6.01-1.14-7.71-.75-1.68-2.2-3.22-4.32-4.62h15.31c.13.4.95,1.69,2.49,3.87l38.86,49.49V14.02c0-3.44-.39-5.99-1.14-7.65-.77-1.65-2.24-3.21-4.42-4.67h18.78Z"/>
        <path class="cls-1" d="m432.79,57.59v13.73h-45.89c2.25-1.2,3.67-3.15,4.27-5.87.26-1.25.4-3.81.4-7.65V15.65c0-3.79-.14-6.3-.4-7.55-.6-2.71-2.02-4.67-4.27-5.86h40.51v11.62c-1.85-1.78-3.81-2.94-5.85-3.47-1.54-.45-3.85-.69-6.96-.69-4.37,0-9.64.24-12.5.69v19.58h15.68c1.39,0,2.59-.23,3.59-.7v11.13c-1.46-1.85-4.22-2.79-8.25-2.79h-11.01v24.95c4.44.73,7.58,1.09,11.76,1.09,8.35,0,13.64-2.02,18.94-6.06Z"/>
        <path class="cls-1" d="m565.84,57.59v13.73h-45.9c2.25-1.2,3.67-3.15,4.27-5.87.27-1.25.41-3.81.41-7.65V15.65c0-3.79-.14-6.3-.41-7.55-.6-2.71-2.01-4.67-4.27-5.86h40.52v11.62c-1.85-1.78-3.82-2.94-5.86-3.47-1.54-.45-3.85-.69-6.96-.69-4.37,0-9.64.24-12.48.69v19.58h15.66c1.39,0,2.58-.23,3.59-.7v11.13c-1.46-1.85-4.22-2.79-8.26-2.79h-10.99v24.95c4.43.73,7.56,1.09,11.74,1.09,8.34,0,13.63-2.02,18.94-6.06Z"/>
      </g>
      <g>
        <path class="cls-1" d="m208.43,109.65c-.33,0-.69-.03-1.98-.21-1.14-.15-2.19-.3-3.66-.3-.48,0-1.89.03-3.87.21,1.68,1.11,1.86,1.23,1.86,1.47,0,.21-.03.24-.51.69-.21.21-.33.48-.57,1.14-3.36,8.82-7.83,10.47-9.99,11.19l-.09-.24c4.86-3.66,7.14-11.28,7.14-12.48,0-.84-.15-1.02-.48-1.47-1.44.18-3.87.6-5.1,1.14-1.23.57-1.38.63-1.74.63-.9,0-2.88-1.8-2.88-3.78,0-.57.12-.96.24-1.32.93,1.74,1.98,2.01,3.18,2.01.9,0,6.27-.69,7.47-.81,1.2-.09,6.06-.51,6.87-.78,1.38-.42,1.53-.48,1.86-.48.54,0,3.33.87,3.33,2.34,0,.99-.9,1.05-1.08,1.05Zm-6.66-6.18c-1.89.03-3.93.3-6.87.66-.51.06-.99.12-1.5.12-1.59,0-2.55-2.01-2.55-3.06,0-.21.03-.36.15-.6.75,1.11,2.22,1.32,3.03,1.32,1.62,0,4.44-.27,6-.72,1.41-.42,1.56-.48,1.83-.48.78,0,2.61.42,2.61,1.53s-.81,1.17-2.7,1.23Zm7.77,2.64c-.39,0-.48-.09-1.32-1.08-1.53-1.77-2.52-2.43-3.03-2.73,2.1,0,5.28.51,5.28,2.73,0,.78-.45,1.08-.93,1.08Zm2.31-2.01c-.39,0-.54-.21-1.17-.96-1.26-1.56-1.83-1.95-3.36-2.88,2.31.09,5.4.45,5.4,2.67,0,.3-.09,1.17-.87,1.17Z"/>
        <path class="cls-1" d="m241.07,119.97c-.24,0-.39-.03-1.77-.42-.66-.18-1.74-.48-5.37-.48-3,0-5.97.42-8.82,1.38-.3.09-1.59.66-1.89.66-.39,0-2.7-1.53-2.7-3.24,0-.39.09-.75.18-1.14.42.54,1.23,1.59,2.82,1.59.54,0,3.84-.42,4.56-.51,1.56-.15,3.45-.3,3.9-.36.54-2.79.9-6.18,1.05-7.8-.72.09-3.15.6-4.56,1.11-.24.09-1.23.54-1.44.54-.6,0-2.1-1.53-2.1-2.79,0-.42.09-.72.18-1.05.45.63.93,1.29,2.22,1.29,1.11,0,4.62-.36,5.64-.84.21-.12,1.08-.75,1.29-.75.6,0,2.64,2.04,2.64,2.58q0,.24-.81.81c-.27.18-.3.33-.63,1.56-.21.81-1.08,4.44-1.29,5.19.57-.03,3.03-.12,3.51-.21.24-.03,1.29-.3,1.5-.3.69,0,2.76,1.5,2.76,2.46,0,.3-.27.72-.87.72Z"/>
        <path class="cls-1" d="m274.31,108.24c-.39,0-4.41-.45-5.22-.45-.93,0-1.53.03-1.98.06,0,.57.03,2.1.06,4.17.03,1.11.21,5.97.21,6.93,0,4.32-1.59,4.74-2.04,4.74-.66,0-.9-.45-1.47-1.65-.21-.45-.99-1.86-3.45-3.09l.06-.24c1.2.27,3.33.51,3.69.51.33,0,.48-.12.57-.48.15-.51.18-6.45.18-7.44v-.69c-2.91,4.56-7.35,7.95-12.51,9.57l-.15-.21c2.94-1.83,8.94-7.26,11.43-11.82-3.6.42-5.7,1.2-6,1.29-.57.21-.75.27-.99.27-.96,0-2.91-1.68-2.91-3.72,0-.54.12-.9.24-1.23.99,1.32,1.71,2.07,3.6,2.07,2.13,0,5.13-.24,7.23-.48-.09-2.22-.15-3.72-.27-4.47-.21-1.38-.84-1.59-2.37-2.13.96-.87,2.16-.87,2.25-.87,1.38,0,3.72,1.23,3.72,2.04,0,.36-.09.48-.51,1.23-.48.87-.54,3.27-.54,3.99,2.94-.39,3.27-.42,4.17-.78.51-.18.57-.21.78-.21.39,0,3.12.72,3.12,2.19,0,.57-.33.9-.9.9Z"/>
        <path class="cls-1" d="m307.58,108.63c-.57.15-.75.21-1.26.6-2.73,2.07-3.54,2.73-5.67,3.96l-.18-.15c.72-.9,2.58-3.66,3.3-5.64-2.49.69-5.16,1.56-7.71,2.4-.06.81-.21,3.66-.21,6.18,0,1.98.21,2.85,3.21,2.85,1.89,0,3.48-.33,4.8-.6.45-.09.66-.12.9-.12.81,0,2.01.3,2.55.72.3.24.42.6.42.96,0,1.53-2.37,1.83-5.82,1.83-8.7,0-8.67-1.71-8.49-10.98-1.5.54-2.94,1.23-4.35,2.01-.42.24-.66.33-.93.33-1.17,0-2.91-1.98-2.91-3.78,0-.75.15-1.26.3-1.65.75,1.32,1.32,2.16,2.76,2.16,1.2,0,3.96-.78,5.19-1.11,0-.99.06-5.82-.3-6.63-.42-.93-1.89-1.17-2.64-1.29,1.05-.99,2.34-1.11,2.67-1.11.93,0,3.96.57,3.96,1.74,0,.15-.36,1.38-.36,1.41-.27.87-.51,3.96-.6,5.13,2.55-.72,7.5-2.1,7.68-2.22.3-.18.84-.57,1.2-.84.09-.06.18-.12.36-.12.45,0,2.25,1.38,2.82,1.83.42.33.84.63.84,1.14,0,.57-.15.63-1.53.99Z"/>
        <path class="cls-1" d="m339.98,112.5c-.51,0-1.26-.06-1.38-.06-1.74-.12-5.73-.12-7.89-.12-.33,0-6.3.12-8.4.69-.81.21-.9.24-1.08.24-1.02,0-2.85-2.31-2.85-3.84,0-.69.45-1.62.63-1.98.99,2.34,1.53,2.46,4.89,2.46,1.86,0,12.36-.12,13.08-.36.21-.09.99-.3,1.2-.3,1.2,0,3.72.51,3.72,2.07,0,.75-.78,1.2-1.92,1.2Z"/>
        <path class="cls-1" d="m370.4,119.85c-.81,0-1.35-.66-1.68-1.08-1.92-2.43-2.22-2.85-3.84-4.35-4.8,5.19-9.48,7.23-13.74,7.95l-.06-.21c4.5-2.34,8.58-5.43,11.67-9.45-2.52-1.89-5.04-2.88-6.48-3.42,1.44.12,3.96.3,7.65,1.77,1.38-2.16,2.46-4.44,3.03-6.84-.75.18-5.16,1.23-5.34,1.29-1.71.42-2.04.57-3.39,1.26-.12.06-.3.15-.57.15-1.17,0-2.61-2.22-2.61-3.57,0-.93.21-1.29.39-1.68.78,1.32,1.32,2.07,3.15,2.07,1.14,0,8.19-.96,9-1.68.15-.12.75-.69.9-.81.09-.06.21-.09.33-.09.24,0,3,2.01,3,2.73,0,.42-.24.54-1.05.96-.3.18-.51.48-.81,1.23-.63,1.65-1.62,3.75-3.42,6.27,1.65.99,5.28,3.54,5.28,5.76,0,.87-.45,1.74-1.41,1.74Z"/>
      </g>
    </g>
  </g>
</svg>