<svg xmlns="http://www.w3.org/2000/svg" width="161.046" height="23.333" viewBox="0 0 161.046 23.333">
  <g id="グループ_758" data-name="グループ 758" transform="translate(-174.258 -358.624)">
    <g id="グループ_77" data-name="グループ 77" transform="translate(174.258 358.624)">
      <g id="グループ_74" data-name="グループ 74">
        <rect id="長方形_39" data-name="長方形 39" width="23.327" height="23.333" transform="translate(23.327)" fill="#ff3301"/>
        <rect id="長方形_40" data-name="長方形 40" width="23.327" height="23.333" fill="#ff9901"/>
        <path id="パス_472" data-name="パス 472" d="M223.863,361.873a.123.123,0,0,0-.123.123v7.347h-7.5V362a.123.123,0,0,0-.123-.123h-3.847a.122.122,0,0,0-.123.123V380.42a.123.123,0,0,0,.123.124h3.847a.123.123,0,0,0,.123-.124v-7.346h7.5v7.346a.124.124,0,0,0,.123.124h3.847a.124.124,0,0,0,.124-.124V362a.123.123,0,0,0-.124-.123h-3.847" transform="translate(-184.976 -359.543)" fill="#fff"/>
        <path id="パス_473" data-name="パス 473" d="M179.3,361.876a.02.02,0,0,0-.021.02V363h-1.114v-1.1a.02.02,0,0,0-.02-.02h-.619a.02.02,0,0,0-.019.02v2.963a.02.02,0,0,0,.019.019h.619a.02.02,0,0,0,.02-.019V363.55h1.114v1.309a.021.021,0,0,0,.021.019h.618a.02.02,0,0,0,.019-.019V361.9a.019.019,0,0,0-.019-.02H179.3" transform="translate(-175.178 -359.544)"/>
        <path id="パス_474" data-name="パス 474" d="M181.654,364.04a1.142,1.142,0,1,0,1.142-1.175,1.087,1.087,0,0,0-1.142,1.175m.633,0c0-.3.088-.648.508-.648s.508.353.508.648-.088.649-.508.649S182.287,364.337,182.287,364.04Z" transform="translate(-176.35 -359.824)"/>
        <path id="パス_475" data-name="パス 475" d="M185.475,364.04a1.142,1.142,0,1,0,1.141-1.175,1.087,1.087,0,0,0-1.141,1.175m.633,0c0-.3.089-.648.508-.648s.508.353.508.648-.088.649-.508.649S186.108,364.337,186.108,364.04Z" transform="translate(-177.431 -359.824)"/>
        <path id="パス_476" data-name="パス 476" d="M189.358,363.62c0,.508.5.607.9.687.249.049.464.093.464.224,0,.1-.09.207-.346.207-.309,0-.459-.1-.459-.3a.019.019,0,0,0-.019-.019H189.3a.017.017,0,0,0-.014.006.015.015,0,0,0-.006.014c.02.7.759.78,1.075.78.23,0,.982-.056.982-.775,0-.5-.507-.607-.914-.69-.247-.049-.46-.092-.46-.214,0-.053,0-.194.335-.194.3,0,.344.134.368.273a.021.021,0,0,0,.02.015h.565a.019.019,0,0,0,.014-.006.019.019,0,0,0,.005-.014c-.037-.495-.375-.745-1.005-.745-.669,0-.906.39-.906.755" transform="translate(-178.507 -359.824)"/>
        <path id="パス_477" data-name="パス 477" d="M192.991,362.947a.019.019,0,0,0-.02.019v2.2a.02.02,0,0,0,.02.019h.577a.02.02,0,0,0,.02-.019v-2.2a.019.019,0,0,0-.02-.019h-.577" transform="translate(-179.551 -359.847)"/>
        <path id="パス_478" data-name="パス 478" d="M192.991,361.836a.02.02,0,0,0-.02.02v.536a.019.019,0,0,0,.02.019h.577a.019.019,0,0,0,.02-.019v-.536a.02.02,0,0,0-.02-.02h-.577" transform="translate(-179.551 -359.533)"/>
        <path id="パス_479" data-name="パス 479" d="M194.628,363.995c0,.81.375,1.221,1.114,1.221a.984.984,0,0,0,.983-.717.017.017,0,0,0,0-.017.02.02,0,0,0-.016-.008h-.593a.018.018,0,0,0-.019.014.353.353,0,0,1-.352.226c-.43,0-.477-.325-.494-.5h1.483a.02.02,0,0,0,.02-.021v-.1c0-1.109-.734-1.229-1.051-1.229a1.045,1.045,0,0,0-1.072,1.13m1.064-.615a.419.419,0,0,1,.423.422h-.848C195.3,363.522,195.447,363.38,195.692,363.38Z" transform="translate(-180.02 -359.824)"/>
        <path id="パス_480" data-name="パス 480" d="M198.941,363.261v-.318a.019.019,0,0,0-.019-.019h-.553a.019.019,0,0,0-.019.019v2.2a.02.02,0,0,0,.019.019h.577a.02.02,0,0,0,.02-.019v-1.144a.445.445,0,0,1,.511-.5,1.323,1.323,0,0,1,.163.006.019.019,0,0,0,.016,0,.019.019,0,0,0,.006-.015v-.585a.019.019,0,0,0-.018-.02c-.037,0-.075-.009-.113-.009a.624.624,0,0,0-.591.4" transform="translate(-181.073 -359.824)"/>
        <path id="パス_481" data-name="パス 481" d="M200.739,363.62c0,.508.5.607.9.687.25.049.465.093.465.224,0,.1-.091.207-.348.207-.308,0-.458-.1-.458-.3a.02.02,0,0,0-.02-.019h-.594a.018.018,0,0,0-.014.006.016.016,0,0,0-.005.014c.019.7.759.78,1.075.78.23,0,.98-.056.98-.775,0-.5-.507-.607-.914-.69-.247-.049-.459-.092-.459-.214,0-.053,0-.194.335-.194.295,0,.344.134.368.273a.019.019,0,0,0,.019.015h.565a.017.017,0,0,0,.014-.006.019.019,0,0,0,.006-.014c-.037-.495-.374-.745-1.005-.745-.668,0-.906.39-.906.755" transform="translate(-181.726 -359.824)"/>
      </g>
      <g id="グループ_75" data-name="グループ 75" transform="translate(51.275 12.516)">
        <path id="パス_482" data-name="パス 482" d="M245.758,377.78h5.674a.691.691,0,0,0,.342-.159l.993.9a1.2,1.2,0,0,0-.362.5c-1.175,3-2.091,4.453-4.766,5.962l-1.107-.882a8.122,8.122,0,0,0,4.576-5.161h-5.351V377.78" transform="translate(-245.758 -376.513)"/>
        <rect id="長方形_41" data-name="長方形 41" width="7.122" height="1.132" transform="translate(8.227 4.095)"/>
        <rect id="長方形_42" data-name="長方形 42" width="7.121" height="1.132" transform="translate(35.149 4.095)"/>
        <path id="パス_483" data-name="パス 483" d="M276.933,376.076a4.609,4.609,0,0,1,1.065.766l-.44.554a4.962,4.962,0,0,0-1.048-.766l.423-.554m-.965.825a4.832,4.832,0,0,1,1.016.755l-.454.553a4.4,4.4,0,0,0-.985-.745Zm1.7,3.259a14.25,14.25,0,0,1-5.8,4.908c-.072.141-.121.273-.2.273s-.162-.163-.212-.264l-.523-1a12.992,12.992,0,0,0,5.934-4.911Zm-6.839-1.077a6.716,6.716,0,0,1,2.061,1.046l-.61.945a7.615,7.615,0,0,0-2-.973Zm1.036-2.231a6.2,6.2,0,0,1,2.021.885l-.582.976a6.75,6.75,0,0,0-1.983-.906Z" transform="translate(-252.693 -376.076)"/>
        <path id="パス_484" data-name="パス 484" d="M287.151,383.175a7.049,7.049,0,0,0,1-1.49l-1.911.392.785,3.9L286,386.21l-.765-3.931-1.86.392-.341-.873,2.041-.4-.351-1.811,1.026-.14a.1.1,0,0,1,.121.088.264.264,0,0,1-.121.191l.3,1.479,2.373-.442a.522.522,0,0,0,.293-.322l.8.574a12.538,12.538,0,0,1-1.5,2.494l-.876-.331" transform="translate(-256.303 -377.028)"/>
        <path id="パス_485" data-name="パス 485" d="M312.259,377.814a.959.959,0,0,0,.524-.223l.783.856a1.4,1.4,0,0,0-.543.6,12.45,12.45,0,0,1-1.177,2.254,19.173,19.173,0,0,1,2.664,2.493l-.893.947a16.025,16.025,0,0,0-2.455-2.516,9.778,9.778,0,0,1-3.429,2.586l-.895-.917a8.755,8.755,0,0,0,4.918-4.917h-3.831v-1.167h4.334" transform="translate(-263.035 -376.505)"/>
      </g>
      <g id="グループ_76" data-name="グループ 76" transform="translate(106.726 12.516)">
        <path id="パス_486" data-name="パス 486" d="M329.2,379.8a6.688,6.688,0,0,1-.622,2.892,7.564,7.564,0,0,1-2.331,2.813l-1.226-.754a5.9,5.9,0,0,0,2.351-2.43,5.513,5.513,0,0,0,.582-2.521h-2.11a11.52,11.52,0,0,1-1.587,2.049l-1.175-.653a9.892,9.892,0,0,0,2.954-4.8l1.145.412c.06.02.251.09.251.2,0,.07-.03.09-.131.12-.1.051-.11.06-.161.191-.161.392-.281.673-.622,1.346h5.163V379.8Z" transform="translate(-323.079 -376.168)"/>
        <path id="パス_487" data-name="パス 487" d="M342.726,382.11l-.934-.793a9.326,9.326,0,0,0,1.828-2.169h-6.289v-1.085h6.76a.609.609,0,0,0,.352-.222l.924.934A23.4,23.4,0,0,1,342.726,382.11Zm-.884-2.45c-.02.03-.141.131-.151.171-.021.02-.06.724-.081.854a6.207,6.207,0,0,1-2.572,4.52l-1.074-.633a5.278,5.278,0,0,0,2.511-5.153l1.176.06c.21.01.24.01.24.09C341.892,379.6,341.873,379.62,341.843,379.66Z" transform="translate(-327.111 -376.576)"/>
        <path id="パス_488" data-name="パス 488" d="M355.023,380.737a4.349,4.349,0,0,1-2.9,4.441l-.944-.844c1.768-.622,2.632-1.447,2.672-3.6h-3.355v-1.045h7.544v1.045Zm-3.175-2.491v-1.1h4.912v1.1Zm6.58.612a7,7,0,0,0-1.055-.754l.382-.563a5.56,5.56,0,0,1,1.054.754Zm.291-1.276a4.358,4.358,0,0,0-1.014-.683l.371-.542a4.609,4.609,0,0,1,1.015.683Z" transform="translate(-330.833 -376.156)"/>
        <path id="パス_489" data-name="パス 489" d="M370.128,380.045c-.12,2.913-.813,3.9-2.722,5.053l-.824-.784c1.768-.974,2.4-1.938,2.431-4.269h-1.9v2.25h-1.2v-2.25H364.03V378.91h1.889v-1.929l1.105.12c.231.03.3.051.3.141,0,.05-.211.2-.211.251v1.416h1.9c0-.914,0-1.5-.02-2.08l1.025.141c.211.03.321.08.321.16,0,.03,0,.051-.09.111-.1.08-.11.09-.11.231v1.436h1.677v1.135Zm1.075-3.074a5.648,5.648,0,0,1,1,.743l-.422.532a6.092,6.092,0,0,0-1.015-.743Zm.622-.894a5.094,5.094,0,0,1,1.015.723l-.422.533a5.252,5.252,0,0,0-1-.743Z" transform="translate(-334.662 -376.077)"/>
        <path id="パス_490" data-name="パス 490" d="M383.33,378.014c-.151.01-.17.03-.311.181a12.872,12.872,0,0,1-1.657,1.568v5.354h-1.256V380.7a18.084,18.084,0,0,1-2.531,1.426l-.874-.894a15.61,15.61,0,0,0,5.826-4.269l.874.722c.04.03.171.161.171.242S383.532,378,383.33,378.014Z" transform="translate(-338.246 -376.327)"/>
        <path id="パス_491" data-name="パス 491" d="M390.422,379.8a9.1,9.1,0,0,0-2.059-1.266l.612-.944a9.381,9.381,0,0,1,2.11,1.246Zm2.943,2.732a13.488,13.488,0,0,1-3.786,2.24c-.05.141-.07.312-.151.312-.061,0-.151-.06-.221-.191l-.7-1.206a9.4,9.4,0,0,0,3.726-1.738,13.976,13.976,0,0,0,2.944-3.074l.693,1.005A14.107,14.107,0,0,1,393.365,382.532Z" transform="translate(-341.545 -376.505)"/>
      </g>
    </g>
    <g id="グループ_78" data-name="グループ 78" transform="translate(225.688 361.509)">
      <path id="パス_492" data-name="パス 492" d="M245.973,366.922v-4.275h1.079a4.024,4.024,0,0,0,0,4.275Z" transform="translate(-245.973 -362.647)"/>
      <path id="パス_493" data-name="パス 493" d="M251.626,366.721a3.327,3.327,0,0,1-1.514-1.1v1.187H249.8V365.62a3.851,3.851,0,0,1-1.51,1.1l-.2-.245a3.29,3.29,0,0,0,1.475-1.045h-.946v-1.445H249.8v-.357h-1.7v-.283h1.7v-.465l.3.03c.027,0,.087.009.087.043s-.03.043-.078.069v.323h1.7v.283h-1.7v.357H251.3v1.445h-1.019a3.249,3.249,0,0,0,1.54,1.032Zm-1.827-2.477h-.874v.331h.874Zm0,.589h-.874v.344h.874Zm1.2-.589h-.882v.331h.882Zm0,.589h-.882v.344h.882Z" transform="translate(-246.571 -362.713)"/>
      <path id="パス_494" data-name="パス 494" d="M253.961,363.945v-.279h1.574v.279Zm1.105,2.86v-.262h-.641v.3h-.288v-1.467h1.221V366.8Zm-.92-3.44v-.28h1.234v.28Zm0,1.131v-.284h1.234v.284Zm0,.58V364.8h1.234v.279Zm.92.572h-.641v.628h.641Zm.447,1.028v-.288h.357V364.28l.356.043c.043,0,.082.017.082.043,0,.043-.06.069-.133.108v1.913h.46v-2.907h-.907v-.3h1.982v.3h-.774v1.247h.662v.3h-.662v1.355h.877v.288Z" transform="translate(-248.232 -362.771)"/>
      <path id="パス_495" data-name="パス 495" d="M259.937,363.839v-.3h2.374a.592.592,0,0,0,.194-.077l.322.279c-.108.108-.12.116-.146.181a3.414,3.414,0,0,1-1.148,2.042,3.583,3.583,0,0,1-.946.546l-.3-.293a3.031,3.031,0,0,0,1.269-.739,2.813,2.813,0,0,0,.77-1.634Zm2.743-.636a.422.422,0,1,1,.426.422A.426.426,0,0,1,262.68,363.2Zm.65,0a.224.224,0,0,0-.228-.228.23.23,0,1,0,0,.46A.226.226,0,0,0,263.33,363.2Z" transform="translate(-249.923 -362.686)"/>
      <path id="パス_496" data-name="パス 496" d="M265.253,364.691v-.314h2.542a.523.523,0,0,0,.237-.12l.257.323c-.1.086-.12.1-.146.155a5.636,5.636,0,0,1-.581,1.049,2.834,2.834,0,0,1-1.449.98l-.279-.28a2.3,2.3,0,0,0,1.277-.7,2.633,2.633,0,0,0,.65-1.1Zm2.52-.951h-2.052v-.313h2.052Z" transform="translate(-251.427 -362.868)"/>
      <path id="パス_497" data-name="パス 497" d="M271.415,366.663v-2.094a5.987,5.987,0,0,1-1.186.683l-.314-.28a4.2,4.2,0,0,0,1.415-.739,6.467,6.467,0,0,0,1.118-1.041l.293.25a.1.1,0,0,1,.047.077c0,.017,0,.035-.051.035a.64.64,0,0,1-.1-.013,9.338,9.338,0,0,1-.873.77v2.352Z" transform="translate(-252.745 -362.801)"/>
      <path id="パス_498" data-name="パス 498" d="M277.558,366.527a2.479,2.479,0,0,0-.245-.572c-.65.108-.774.129-1.9.318-.49.086-.507.086-.584.1-.069.1-.077.108-.1.108-.043,0-.056-.047-.065-.072l-.125-.4a2.753,2.753,0,0,0,.516-.022,20.739,20.739,0,0,0,.895-2.61l.4.1c.026.005.073.022.073.06s-.073.06-.133.087c-.06.151-.641,1.72-.856,2.326.585-.069,1.161-.155,1.738-.271a5.507,5.507,0,0,0-.5-.679l.314-.181a5.781,5.781,0,0,1,.929,1.543Z" transform="translate(-254.052 -362.854)"/>
      <path id="パス_499" data-name="パス 499" d="M279.8,366.647v-.306h1.634v-3.328l.318.022c.03,0,.086.013.086.052s-.03.052-.082.077v1.286h1.459v.3h-1.459v1.587h1.884v.306Z" transform="translate(-255.54 -362.751)"/>
      <path id="パス_500" data-name="パス 500" d="M286.57,364.287V365.4c.28-.1.361-.133.481-.189v.314c-.374.155-.757.31-1.143.438-.018.057-.035.1-.077.1s-.056-.056-.069-.112l-.077-.3a1.971,1.971,0,0,0,.572-.146v-1.23h-.516v-.28h.516v-.976l.306.034c.022,0,.1.009.1.056,0,.03-.022.047-.09.09v.8h.5v.28Zm1.54.666c-.06.095-.159.241-.185.275h1.548a5.293,5.293,0,0,1-.168,1.325c-.108.219-.306.219-.482.219h-.228l-.085-.356a1.431,1.431,0,0,0,.339.055c.073,0,.185,0,.232-.21a4.908,4.908,0,0,0,.077-.762h-.211a2.431,2.431,0,0,1-.942,1.342l-.314-.155a2.066,2.066,0,0,0,.95-1.187h-.279a1.977,1.977,0,0,1-.452.658,2.7,2.7,0,0,1-.8.537l-.249-.211a2.048,2.048,0,0,0,1.187-.985h-.323a5.871,5.871,0,0,1-.753.649l-.279-.193a2.91,2.91,0,0,0,1.079-1h-.8V364.7h2.6v.254Zm-.732-.52v-1.355h1.772v1.355Zm1.479-1.1H287.67v.284h1.187Zm0,.529H287.67v.3h1.187Z" transform="translate(-257.206 -362.756)"/>
      <path id="パス_501" data-name="パス 501" d="M292.709,362.647v4.275h-1.08a4.02,4.02,0,0,0,0-4.275Z" transform="translate(-258.887 -362.647)"/>
      <path id="パス_502" data-name="パス 502" d="M294.653,364.052v-.3h2.421a.546.546,0,0,0,.189-.09l.327.279c-.112.125-.125.138-.146.211a3.4,3.4,0,0,1-1.183,2.03,4.075,4.075,0,0,1-.959.546l-.3-.3a3.1,3.1,0,0,0,1.294-.736,2.765,2.765,0,0,0,.787-1.639Z" transform="translate(-259.743 -362.934)"/>
      <path id="パス_503" data-name="パス 503" d="M299.387,365.863v-.314H302.5v.314Z" transform="translate(-261.082 -363.468)"/>
      <path id="パス_504" data-name="パス 504" d="M304.425,364.193a4.771,4.771,0,0,1,.852.46l-.155.305a3.443,3.443,0,0,0-.839-.482Zm2.916.43a6.235,6.235,0,0,1-1.152,1.26,4.157,4.157,0,0,1-1.479.821l-.224-.327a3.5,3.5,0,0,0,1.385-.679,4.794,4.794,0,0,0,1.234-1.359Zm-2.443-1.415a3.95,3.95,0,0,1,.851.46l-.159.293a3.409,3.409,0,0,0-.838-.473Zm2.038.683a2.5,2.5,0,0,0-.413-.412l.211-.181a2.229,2.229,0,0,1,.413.417Zm.495-.279a2.621,2.621,0,0,0-.4-.413l.211-.181a2.417,2.417,0,0,1,.4.413Z" transform="translate(-262.466 -362.752)"/>
      <path id="パス_505" data-name="パス 505" d="M311.544,364.951a.242.242,0,0,0,.138-.112l.2.112a12.193,12.193,0,0,1-.538,1.152l-.249-.1a6.03,6.03,0,0,0,.417-.8l-1.032.224.336,1.7-.267.03-.327-1.69-.929.2-.056-.237.942-.2-.159-.8.206-.022c.108-.009.142-.009.142.026,0,.017-.06.077-.069.09l.138.645Z" transform="translate(-263.868 -363.149)"/>
      <path id="パス_506" data-name="パス 506" d="M313.565,365.863v-.314h3.113v.314Z" transform="translate(-265.092 -363.468)"/>
      <path id="パス_507" data-name="パス 507" d="M321.372,363.844c-.189.124-.2.133-.25.2a5.774,5.774,0,0,1-.6,1.041,6.046,6.046,0,0,1,1.165,1.234l-.292.245a3.441,3.441,0,0,0-.551-.736,4.263,4.263,0,0,0-.524-.473,4.072,4.072,0,0,1-1.57,1.119l-.258-.288a3.253,3.253,0,0,0,1.38-.835,3.636,3.636,0,0,0,.907-1.4h-1.793v-.3H320.9a.391.391,0,0,0,.2-.09Z" transform="translate(-266.485 -362.906)"/>
      <path id="パス_508" data-name="パス 508" d="M323.436,365.92a2.345,2.345,0,0,0,.524-.473,1.513,1.513,0,0,0,.314-.491l.31.147c.026.013.065.038.065.073s-.014.042-.138.055a6.406,6.406,0,0,1-.525.671,1.526,1.526,0,0,1-.249.232Zm1.6-1.454h-1.4v-.314h1.4V363.3l.361.043c.034,0,.1.013.1.052s-.03.052-.1.09v.666h1.286v.314H325.4v1.613c0,.46-.116.541-.787.524l-.133-.369c.073.008.275.034.4.034s.155-.027.155-.181Zm.955.435a4,4,0,0,1,.838.963l-.314.18a3.4,3.4,0,0,0-.774-.941Z" transform="translate(-267.884 -362.832)"/>
      <path id="パス_509" data-name="パス 509" d="M328.83,365.863v-.314h3.113v.314Z" transform="translate(-269.41 -363.468)"/>
      <path id="パス_510" data-name="パス 510" d="M333.714,366.249c.434-.241.929-.546.929-1.9,0-.262-.013-.516-.022-.679l.353.03c.017,0,.095.009.095.051,0,.022-.009.03-.09.09a5.262,5.262,0,0,1-.082,1.351,1.894,1.894,0,0,1-.9,1.307Zm1.948-2.666.344.026c.043,0,.082.017.082.043s-.013.034-.1.09v2.2a2.64,2.64,0,0,0,.727-.551,2.871,2.871,0,0,0,.494-.636l.224.258a3.559,3.559,0,0,1-.7.808,4.191,4.191,0,0,1-.865.594l-.2-.159Z" transform="translate(-270.791 -362.912)"/>
      <path id="パス_511" data-name="パス 511" d="M341.27,364.721a2.373,2.373,0,0,1-.331,1.213,1.788,1.788,0,0,1-.886.7l-.306-.28a1.463,1.463,0,0,0,.873-.593,1.815,1.815,0,0,0,.293-1.045h-1.535v-.314h3.294v.314Zm.808-1.132h-2.137v-.322h2.137Zm.706.448a3.583,3.583,0,0,0-.426-.323l.159-.223a4.271,4.271,0,0,1,.413.335Zm.159-.624a3.217,3.217,0,0,0-.417-.326l.146-.224a3.69,3.69,0,0,1,.426.336Z" transform="translate(-272.393 -362.708)"/>
      <path id="パス_512" data-name="パス 512" d="M345.986,365.451a5.947,5.947,0,0,1-.963.537l-.258-.224a3.507,3.507,0,0,0,1.2-.632,4.473,4.473,0,0,0,.856-.8l.2.185c.034.03.073.065.073.1s-.014.026-.044.026a.854.854,0,0,1-.1-.009,5.786,5.786,0,0,1-.688.607v1.913h-.28Z" transform="translate(-273.917 -363.124)"/>
      <path id="パス_513" data-name="パス 513" d="M351.762,364.82a6.346,6.346,0,0,1-2.821,1.659c0,.009-.052.112-.077.112s-.056-.052-.082-.107l-.146-.353a5.442,5.442,0,0,0,2.98-1.626Zm-2.263-.357a5.937,5.937,0,0,0-.709-.731l.25-.245a5.749,5.749,0,0,1,.748.752Z" transform="translate(-275.012 -362.885)"/>
      <path id="パス_514" data-name="パス 514" d="M355.97,363.685a.686.686,0,0,0,.168-.022l.189.245a.522.522,0,0,0-.211.258,4.232,4.232,0,0,1-1.071,1.823,3.523,3.523,0,0,1-.868.628l-.314-.257a3.268,3.268,0,0,0,1.281-.994,3.211,3.211,0,0,0,.645-1.393h-1.277a4.716,4.716,0,0,1-.852.921l-.28-.211a3.391,3.391,0,0,0,.787-.792,2.626,2.626,0,0,0,.391-.757l.331.12c.065.021.086.06.086.082s-.06.043-.138.056c-.073.155-.1.206-.146.293Zm-.111-.762a3.965,3.965,0,0,1,.344.413l-.224.168a1.642,1.642,0,0,0-.344-.413Zm.537-.09a3.634,3.634,0,0,1,.349.413l-.215.168a1.628,1.628,0,0,0-.336-.413Z" transform="translate(-276.354 -362.7)"/>
      <path id="パス_515" data-name="パス 515" d="M361.146,363.844c-.189.124-.2.133-.25.2a5.734,5.734,0,0,1-.6,1.041,6.084,6.084,0,0,1,1.165,1.234l-.293.245a3.44,3.44,0,0,0-.551-.736,4.16,4.16,0,0,0-.524-.473,4.061,4.061,0,0,1-1.57,1.119l-.258-.288a3.255,3.255,0,0,0,1.381-.835,3.645,3.645,0,0,0,.907-1.4H358.76v-.3h1.914a.389.389,0,0,0,.2-.09Z" transform="translate(-277.736 -362.906)"/>
      <path id="パス_516" data-name="パス 516" d="M367.7,363.685a.69.69,0,0,0,.168-.022l.189.245a.522.522,0,0,0-.211.258,4.246,4.246,0,0,1-1.071,1.823,3.513,3.513,0,0,1-.869.628l-.314-.257a3.263,3.263,0,0,0,1.282-.994,3.214,3.214,0,0,0,.645-1.393h-1.277a4.707,4.707,0,0,1-.851.921l-.28-.211a3.4,3.4,0,0,0,.787-.792,2.655,2.655,0,0,0,.392-.757l.331.12c.065.021.085.06.085.082s-.06.043-.137.056c-.073.155-.1.206-.146.293Zm-.112-.762a3.794,3.794,0,0,1,.344.413l-.223.168a1.649,1.649,0,0,0-.344-.413Zm.538-.09a3.615,3.615,0,0,1,.348.413l-.214.168a1.645,1.645,0,0,0-.336-.413Z" transform="translate(-279.672 -362.7)"/>
      <path id="パス_517" data-name="パス 517" d="M369.954,366.249c.435-.241.929-.546.929-1.9,0-.262-.013-.516-.022-.679l.353.03c.017,0,.095.009.095.051,0,.022-.009.03-.09.09a5.262,5.262,0,0,1-.082,1.351,1.894,1.894,0,0,1-.9,1.307Zm1.948-2.666.344.026c.043,0,.082.017.082.043s-.013.034-.1.09v2.2a2.64,2.64,0,0,0,.727-.551,2.85,2.85,0,0,0,.494-.636l.224.258a3.54,3.54,0,0,1-.7.808,4.19,4.19,0,0,1-.865.594l-.2-.159Z" transform="translate(-281.042 -362.912)"/>
      <path id="パス_518" data-name="パス 518" d="M375.618,365.863v-.314h3.114v.314Z" transform="translate(-282.644 -363.468)"/>
      <path id="パス_519" data-name="パス 519" d="M380.64,363.839v-.3h2.374a.592.592,0,0,0,.194-.077l.323.279c-.108.108-.12.116-.146.181a3.417,3.417,0,0,1-1.148,2.042,3.59,3.59,0,0,1-.947.546l-.3-.293a3.035,3.035,0,0,0,1.269-.739,2.811,2.811,0,0,0,.77-1.634Zm2.744-.636a.421.421,0,1,1,.426.422A.425.425,0,0,1,383.384,363.2Zm.65,0a.224.224,0,0,0-.228-.228.23.23,0,1,0,0,.46A.227.227,0,0,0,384.034,363.2Z" transform="translate(-284.065 -362.686)"/>
    </g>
  </g>
</svg>
