<svg xmlns="http://www.w3.org/2000/svg" width="604.895" height="79.999" viewBox="0 0 604.895 79.999">
  <g id="logo" transform="translate(-174.259 -236.985)">
    <g id="グループ_40" data-name="グループ 40" transform="translate(174.259 236.985)">
      <g id="グループ_37" data-name="グループ 37">
        <rect id="長方形_8" data-name="長方形 8" width="79.992" height="79.999" transform="translate(79.997)" fill="#ff3301"/>
        <rect id="長方形_9" data-name="長方形 9" width="79.992" height="79.999" fill="#ff9901"/>
        <path id="パス_195" data-name="パス 195" d="M252.323,240.236a.425.425,0,0,0-.421.421V265.84H226.186V240.657a.423.423,0,0,0-.418-.421h-13.2a.423.423,0,0,0-.418.421v63.157a.425.425,0,0,0,.418.428h13.2a.425.425,0,0,0,.418-.428V278.626H251.9v25.188a.427.427,0,0,0,.421.428h13.2a.426.426,0,0,0,.423-.428V240.657a.424.424,0,0,0-.423-.421h-13.2" transform="translate(-118.967 -232.242)" fill="#fff"/>
        <path id="パス_196" data-name="パス 196" d="M183.664,240.238a.068.068,0,0,0-.071.071v3.782h-3.824v-3.782a.067.067,0,0,0-.066-.071H177.58a.071.071,0,0,0-.069.071v10.157a.069.069,0,0,0,.069.061H179.7a.065.065,0,0,0,.066-.061v-4.493h3.824v4.493a.067.067,0,0,0,.071.061h2.117a.066.066,0,0,0,.069-.061V240.309a.068.068,0,0,0-.069-.071h-2.117" transform="translate(-169.513 -232.239)"/>
        <path id="パス_197" data-name="パス 197" d="M181.655,245.256a3.916,3.916,0,1,0,3.915-4.028,3.727,3.727,0,0,0-3.915,4.028m2.172,0c0-1.016.3-2.226,1.744-2.226s1.741,1.21,1.741,2.226-.3,2.226-1.741,2.226S183.827,246.27,183.827,245.256Z" transform="translate(-163.466 -230.794)"/>
        <path id="パス_198" data-name="パス 198" d="M185.474,245.256a3.917,3.917,0,1,0,3.915-4.028,3.729,3.729,0,0,0-3.915,4.028m2.174,0c0-1.016.3-2.226,1.741-2.226s1.741,1.21,1.741,2.226-.3,2.226-1.741,2.226S187.648,246.27,187.648,245.256Z" transform="translate(-157.893 -230.794)"/>
        <path id="パス_199" data-name="パス 199" d="M189.551,243.815c0,1.741,1.7,2.081,3.072,2.356.856.175,1.594.317,1.594.77,0,.327-.312.708-1.19.708-1.06,0-1.571-.334-1.571-1.033a.067.067,0,0,0-.069-.069h-2.034a.087.087,0,0,0-.052.017.075.075,0,0,0-.02.052c.071,2.408,2.6,2.668,3.686,2.668.794,0,3.367-.189,3.367-2.656,0-1.729-1.739-2.081-3.136-2.363-.846-.172-1.576-.322-1.576-.733,0-.184,0-.667,1.151-.667,1.011,0,1.178.46,1.262.932a.071.071,0,0,0,.064.059h1.938a.074.074,0,0,0,.052-.025.053.053,0,0,0,.017-.052c-.123-1.695-1.284-2.553-3.448-2.553-2.29,0-3.106,1.338-3.106,2.587" transform="translate(-152.338 -230.794)"/>
        <path id="パス_200" data-name="パス 200" d="M193.041,241.31a.063.063,0,0,0-.069.064V248.9a.064.064,0,0,0,.069.061h1.98a.067.067,0,0,0,.066-.061v-7.528a.066.066,0,0,0-.066-.064h-1.98" transform="translate(-146.951 -230.674)"/>
        <path id="パス_201" data-name="パス 201" d="M193.041,240.2a.066.066,0,0,0-.069.069v1.84a.07.07,0,0,0,.069.069h1.98a.074.074,0,0,0,.066-.069v-1.84a.068.068,0,0,0-.066-.069h-1.98" transform="translate(-146.951 -232.296)"/>
        <path id="パス_202" data-name="パス 202" d="M194.629,245.1c0,2.779,1.284,4.183,3.819,4.183a3.378,3.378,0,0,0,3.374-2.454.075.075,0,0,0-.012-.059.082.082,0,0,0-.057-.027h-2.036a.067.067,0,0,0-.066.052,1.206,1.206,0,0,1-1.2.772c-1.478,0-1.635-1.117-1.7-1.707h5.091a.065.065,0,0,0,.064-.069v-.352c0-3.8-2.518-4.213-3.6-4.213-3.5,0-3.674,3.227-3.674,3.873m3.647-2.11a1.434,1.434,0,0,1,1.446,1.446h-2.909C196.943,243.483,197.438,242.991,198.276,242.991Z" transform="translate(-144.533 -230.794)"/>
        <path id="パス_203" data-name="パス 203" d="M200.38,242.581v-1.087a.066.066,0,0,0-.069-.064h-1.9a.064.064,0,0,0-.066.064v7.528a.065.065,0,0,0,.066.061H200.4a.065.065,0,0,0,.066-.061V245.1a1.53,1.53,0,0,1,1.756-1.729,3.711,3.711,0,0,1,.556.027.092.092,0,0,0,.057-.012.076.076,0,0,0,.025-.057v-2a.078.078,0,0,0-.064-.071c-.125-.012-.256-.027-.386-.027a2.143,2.143,0,0,0-2.026,1.353" transform="translate(-139.104 -230.794)"/>
        <path id="パス_204" data-name="パス 204" d="M200.932,243.815c0,1.741,1.7,2.081,3.074,2.356.851.175,1.591.317,1.591.77,0,.327-.312.708-1.19.708-1.058,0-1.574-.334-1.574-1.033a.067.067,0,0,0-.066-.069H200.73a.1.1,0,0,0-.052.017.087.087,0,0,0-.017.052c.069,2.408,2.6,2.668,3.686,2.668.792,0,3.364-.189,3.364-2.656,0-1.729-1.741-2.081-3.136-2.363-.846-.172-1.574-.322-1.574-.733,0-.184,0-.667,1.148-.667,1.013,0,1.18.46,1.264.932a.071.071,0,0,0,.066.059h1.938a.068.068,0,0,0,.047-.025.06.06,0,0,0,.02-.052c-.123-1.695-1.284-2.553-3.445-2.553-2.292,0-3.109,1.338-3.109,2.587" transform="translate(-135.73 -230.794)"/>
      </g>
      <g id="グループ_39" data-name="グループ 39" transform="translate(175.837 42.803)">
        <path id="パス_205" data-name="パス 205" d="M245.758,256.485h19.455a2.265,2.265,0,0,0,1.171-.556l3.409,3.109a3.967,3.967,0,0,0-1.237,1.724c-4.033,10.277-7.174,15.275-16.352,20.451l-3.792-3.035c9.557-4.621,12.97-10.248,15.693-17.7H245.758v-3.994" transform="translate(-245.758 -252.144)"/>
        <rect id="長方形_10" data-name="長方形 10" width="24.42" height="3.874" transform="translate(28.214 14.04)"/>
        <rect id="長方形_11" data-name="長方形 11" width="24.42" height="3.874" transform="translate(120.534 14.04)"/>
        <rect id="長方形_12" data-name="長方形 12" width="24.422" height="3.874" transform="translate(314.491 14.04)"/>
        <rect id="長方形_13" data-name="長方形 13" width="24.418" height="3.874" transform="translate(221.036 14.04)"/>
        <path id="パス_206" data-name="パス 206" d="M293.105,254.39a15.639,15.639,0,0,1,3.659,2.617l-1.515,1.9a17.362,17.362,0,0,0-3.586-2.622l1.441-1.891m-3.31,2.818a16.156,16.156,0,0,1,3.482,2.592l-1.552,1.891a14.743,14.743,0,0,0-3.379-2.545Zm5.831,11.177c-4.21,6.761-11.106,12.346-19.9,16.829-.243.492-.418.934-.691.934-.3,0-.556-.546-.728-.893l-1.8-3.458c9.04-3.755,16.561-10.516,20.351-16.826ZM272.169,264.7a22.594,22.594,0,0,1,7.065,3.586l-2.093,3.244a25.69,25.69,0,0,0-6.869-3.342Zm3.556-7.663a21.316,21.316,0,0,1,6.93,3.045l-2,3.342a22.993,22.993,0,0,0-6.8-3.106Z" transform="translate(-209.983 -254.39)"/>
        <path id="パス_207" data-name="パス 207" d="M297.145,270.555a23.986,23.986,0,0,0,3.409-5.11L294,266.795l2.69,13.386-3.487.787-2.617-13.479-6.379,1.34-1.173-3,7-1.385-1.205-6.2,3.517-.485a.344.344,0,0,1,.408.305.88.88,0,0,1-.408.657l1.038,5.081,8.14-1.525a1.785,1.785,0,0,0,1-1.107l2.757,1.972a43.058,43.058,0,0,1-5.135,8.549l-3-1.134" transform="translate(-191.358 -249.486)"/>
        <path id="パス_208" data-name="パス 208" d="M325.427,256.659a3.239,3.239,0,0,0,1.8-.757l2.685,2.931a4.766,4.766,0,0,0-1.857,2.071,42.457,42.457,0,0,1-4.043,7.725,66.181,66.181,0,0,1,9.146,8.551l-3.069,3.249a54.783,54.783,0,0,0-8.416-8.625,33.383,33.383,0,0,1-11.763,8.858l-3.069-3.128c10.209-4.52,14.694-11.293,16.861-16.873H310.563v-4h14.864" transform="translate(-156.626 -252.184)"/>
        <g id="グループ_38" data-name="グループ 38" transform="translate(191.8 0.512)">
          <path id="パス_209" data-name="パス 209" d="M341.76,277.639v-1.2H323.748v-3.795H341.76V260.658H323.812v-3.822h22.045v20.8Z" transform="translate(-323.748 -251.332)"/>
          <path id="パス_210" data-name="パス 210" d="M357.676,272.059c-.443.135-.477.135-.583.275a30.249,30.249,0,0,1-5.888,6.854l-3.546-2.208a25.261,25.261,0,0,0,6.952-7.747l2.823,1.862c.14.071.657.408.657.652C358.091,271.956,357.882,272.022,357.676,272.059Zm6.446-5.752v13.152c0,3.209-.831,3.758-6.584,3.795l-1.308-4a14.943,14.943,0,0,0,2.722.271c1.1,0,1.279-.271,1.279-1.094V266.307H350.2v-3.544h10.029v-6.239l3.716.484c.548.069.927.172.927.484,0,.172-.135.275-.448.484-.133.069-.3.2-.3.376v4.409H374v3.544Zm8.266,12.085a26.251,26.251,0,0,0-5.445-7.164l2.649-2.27a31.951,31.951,0,0,1,5.824,6.992Zm2.132-17.321a3.237,3.237,0,1,1,3.17-3.232A3.206,3.206,0,0,1,374.519,261.071Zm0-5.2a1.965,1.965,0,0,0,0,3.93,1.965,1.965,0,0,0,0-3.93Z" transform="translate(-288.855 -254.598)"/>
          <path id="パス_211" data-name="パス 211" d="M364.562,280.9l-2.344-2.381V255.761l4.1.519c.241.029.927.133.927.48,0,.135-.034.207-.347.477-.512.416-.551.448-.551.588v17.284a24.952,24.952,0,0,0,8.477-3.891,47.419,47.419,0,0,0,8.226-7.088l2.1,3.787C379.952,273.7,371.826,278.559,364.562,280.9Z" transform="translate(-267.609 -252.901)"/>
          <path id="パス_212" data-name="パス 212" d="M392.671,269.641a23.88,23.88,0,0,0-6.684-3.34l1.97-3.445a20.631,20.631,0,0,1,6.849,3.551Zm10.4,6.134a52.182,52.182,0,0,1-11.812,7.434.553.553,0,0,0-.275.379c-.14.48-.209.617-.347.617-.344,0-.723-.649-.863-.927l-1.82-3.308c8.676-3.581,14.771-8.094,20.56-16.5l2.717,3.31A42.915,42.915,0,0,1,403.074,275.774Zm-6.679-13.986a21.612,21.612,0,0,0-6.687-3.335l1.967-3.45a21.422,21.422,0,0,1,6.679,3.34Z" transform="translate(-232.923 -254.007)"/>
          <path id="パス_213" data-name="パス 213" d="M413.569,277.8v-1.205H399.177v-2.968h14.392V269.08H399.661v-3h13.907v-4.547H399.384v-2.961h17.493V277.8Z" transform="translate(-213.675 -248.796)"/>
          <path id="パス_214" data-name="パス 214" d="M416.818,263.263a31.29,31.29,0,0,0-7.058-4.341l2.1-3.232a32.16,32.16,0,0,1,7.235,4.269Zm10.091,9.375a46.224,46.224,0,0,1-12.983,7.675c-.172.484-.239,1.065-.514,1.065-.209,0-.519-.207-.755-.654l-2.413-4.129a32.283,32.283,0,0,0,12.774-5.959A47.892,47.892,0,0,0,433.106,260.1l2.383,3.438A48.486,48.486,0,0,1,426.909,272.638Z" transform="translate(-198.231 -253.003)"/>
        </g>
      </g>
    </g>
    <g id="グループ_41" data-name="グループ 41" transform="translate(350.625 247.69)">
      <path id="パス_215" data-name="パス 215" d="M245.973,256v-14.66h3.7a13.8,13.8,0,0,0,0,14.66Z" transform="translate(-245.973 -241.338)"/>
      <path id="パス_216" data-name="パス 216" d="M260.224,254.741a11.376,11.376,0,0,1-5.192-3.76v4.07h-1.075v-4.085a13.18,13.18,0,0,1-5.177,3.775l-.694-.841a11.28,11.28,0,0,0,5.059-3.583H249.9v-4.953h4.055v-1.225h-5.826v-.974h5.826v-1.594l1.045.1c.091,0,.3.03.3.148s-.1.148-.268.239v1.1h5.841v.974h-5.841v1.225h4.085v4.953h-3.495a11.142,11.142,0,0,0,5.28,3.541Zm-6.266-8.494h-3v1.136h3Zm0,2.022h-3v1.178h3Zm4.1-2.022h-3.025v1.136h3.025Zm0,2.022h-3.025v1.178h3.025Z" transform="translate(-242.888 -240.996)"/>
      <path id="パス_217" data-name="パス 217" d="M253.961,244.727v-.959h5.4v.959Zm3.79,9.805v-.9h-2.2v1.033h-.986v-5.029h4.188v4.894Zm-3.155-11.8v-.959h4.232v.959Zm0,3.878v-.971h4.232v.971Zm0,1.992v-.959h4.232v.959Zm3.155,1.963h-2.2v2.152h2.2Zm1.535,3.524V253.1h1.225v-7.228l1.222.148c.148.015.28.059.28.15,0,.145-.207.234-.457.366V253.1h1.579v-9.97h-3.111V242.1h6.8v1.033h-2.654v4.277h2.27v1.048h-2.27V253.1h3.008v.989Z" transform="translate(-234.316 -240.699)"/>
      <path id="パス_218" data-name="パス 218" d="M259.937,245.09v-1.048h8.14a2.03,2.03,0,0,0,.664-.266l1.1.959c-.369.369-.413.4-.5.62-1.134,3.982-2.063,5.469-3.937,7a12.288,12.288,0,0,1-3.244,1.874l-1.033-1a10.421,10.421,0,0,0,4.351-2.536,9.653,9.653,0,0,0,2.641-5.6Zm9.407-2.184a1.446,1.446,0,1,1,1.461,1.446A1.459,1.459,0,0,1,269.344,242.906Zm2.228,0a.769.769,0,0,0-.782-.782.79.79,0,1,0,.015,1.579A.778.778,0,0,0,271.572,242.906Z" transform="translate(-225.595 -241.135)"/>
      <path id="パス_219" data-name="パス 219" d="M265.253,246.454v-1.077h8.716a1.791,1.791,0,0,0,.812-.413l.883,1.107c-.352.3-.413.354-.5.531a19.122,19.122,0,0,1-1.992,3.6,9.727,9.727,0,0,1-4.97,3.364l-.957-.959a7.9,7.9,0,0,0,4.378-2.39,9.014,9.014,0,0,0,2.228-3.76Zm8.642-3.259h-7.036v-1.077h7.036Z" transform="translate(-217.838 -240.2)"/>
      <path id="パス_220" data-name="パス 220" d="M275.06,253.787V246.6a20.563,20.563,0,0,1-4.068,2.346l-1.077-.959a14.423,14.423,0,0,0,4.852-2.538,22.076,22.076,0,0,0,3.834-3.568l1,.856a.354.354,0,0,1,.16.266c0,.059-.012.118-.175.118a1.924,1.924,0,0,1-.339-.044,31.315,31.315,0,0,1-3,2.639v8.069Z" transform="translate(-211.035 -240.541)"/>
      <path id="パス_221" data-name="パス 221" d="M284.9,252.866a8.5,8.5,0,0,0-.841-1.963c-2.228.369-2.654.443-6.52,1.092-1.68.3-1.739.3-2,.339-.236.339-.266.369-.354.369-.148,0-.192-.162-.221-.251l-.428-1.358a9.426,9.426,0,0,0,1.768-.074,70.993,70.993,0,0,0,3.069-8.952l1.372.354c.089.015.251.074.251.207s-.251.207-.457.3c-.207.516-2.2,5.9-2.936,7.978,2.007-.236,3.982-.531,5.959-.93a19.276,19.276,0,0,0-1.726-2.329l1.077-.62a19.835,19.835,0,0,1,3.185,5.295Z" transform="translate(-204.293 -240.27)"/>
      <path id="パス_222" data-name="パス 222" d="M279.8,254.168V253.12h5.6V241.7l1.092.074c.1,0,.3.044.3.177s-.1.177-.283.266v4.41h5v1.048h-5v5.442h6.461v1.048Z" transform="translate(-196.614 -240.804)"/>
      <path id="パス_223" data-name="パス 223" d="M288.721,246.028v3.836c.959-.354,1.239-.457,1.65-.649v1.077c-1.281.529-2.595,1.06-3.92,1.5-.061.192-.121.354-.266.354s-.192-.192-.236-.384l-.266-1.018a6.8,6.8,0,0,0,1.96-.5v-4.22h-1.768v-.957h1.768v-3.35l1.048.12c.074,0,.339.027.339.189,0,.1-.074.162-.31.31v2.73h1.709v.957Zm5.28,2.287c-.207.325-.546.826-.635.944h5.31a18.155,18.155,0,0,1-.576,4.542c-.369.75-1.048.75-1.653.75h-.782l-.293-1.222a4.769,4.769,0,0,0,1.163.192c.251,0,.635,0,.8-.723a16.85,16.85,0,0,0,.266-2.609h-.723a8.344,8.344,0,0,1-3.229,4.6l-1.077-.534a7.078,7.078,0,0,0,3.259-4.068h-.957a6.8,6.8,0,0,1-1.549,2.255,9.275,9.275,0,0,1-2.745,1.844l-.853-.723a7.033,7.033,0,0,0,4.07-3.377h-1.107a20.326,20.326,0,0,1-2.582,2.226l-.957-.664a9.972,9.972,0,0,0,3.7-3.436h-2.757v-.871H299v.871Zm-2.509-1.785v-4.646h6.077v4.646Zm5.074-3.76H292.5v.974h4.07Zm0,1.815H292.5v1.033h4.07Z" transform="translate(-188.023 -240.778)"/>
      <path id="パス_224" data-name="パス 224" d="M295.333,241.338V256h-3.7a13.786,13.786,0,0,0,0-14.66Z" transform="translate(-179.348 -241.338)"/>
      <path id="パス_225" data-name="パス 225" d="M294.653,243.692v-1.03h8.3a1.874,1.874,0,0,0,.649-.31l1.121.959c-.384.428-.428.472-.5.723-1.151,3.893-2.081,5.383-4.055,6.96a13.894,13.894,0,0,1-3.288,1.872l-1.033-1.03a10.639,10.639,0,0,0,4.439-2.521,9.488,9.488,0,0,0,2.7-5.622Z" transform="translate(-174.935 -239.858)"/>
      <path id="パス_226" data-name="パス 226" d="M299.387,245.318v-1.077h10.678v1.077Z" transform="translate(-168.026 -237.102)"/>
      <path id="パス_227" data-name="パス 227" d="M304.77,245.738a16.2,16.2,0,0,1,2.922,1.576l-.531,1.048a11.964,11.964,0,0,0-2.877-1.653Zm10,1.473a21.39,21.39,0,0,1-3.952,4.321,14.233,14.233,0,0,1-5.073,2.818l-.767-1.121a12.053,12.053,0,0,0,4.749-2.331,16.441,16.441,0,0,0,4.232-4.66Zm-8.376-4.852a13.443,13.443,0,0,1,2.919,1.579l-.546,1a11.683,11.683,0,0,0-2.875-1.621Zm6.989,2.346a8.579,8.579,0,0,0-1.417-1.417l.723-.62a7.661,7.661,0,0,1,1.417,1.431Zm1.7-.959a8.982,8.982,0,0,0-1.387-1.417l.723-.62a8.291,8.291,0,0,1,1.387,1.417Z" transform="translate(-160.882 -240.795)"/>
      <path id="パス_228" data-name="パス 228" d="M317.143,244.928a.83.83,0,0,0,.472-.384l.694.384a42.193,42.193,0,0,1-1.844,3.955l-.853-.342a20.506,20.506,0,0,0,1.429-2.727l-3.539.767,1.151,5.838-.915.1-1.121-5.794-3.185.694-.192-.812,3.229-.679-.544-2.73.706-.071c.369-.032.487-.032.487.089,0,.059-.207.266-.236.307l.472,2.213Z" transform="translate(-153.649 -238.748)"/>
      <path id="パス_229" data-name="パス 229" d="M313.565,245.318v-1.077h10.676v1.077Z" transform="translate(-147.337 -237.102)"/>
      <path id="パス_230" data-name="パス 230" d="M328.372,243.215c-.649.428-.679.457-.856.693a19.862,19.862,0,0,1-2.066,3.568,20.861,20.861,0,0,1,4,4.232l-1,.841a11.8,11.8,0,0,0-1.889-2.521,14.613,14.613,0,0,0-1.8-1.623,13.982,13.982,0,0,1-5.383,3.834l-.885-.989a11.174,11.174,0,0,0,4.734-2.86,12.487,12.487,0,0,0,3.111-4.793h-6.148v-1.033h6.561a1.362,1.362,0,0,0,.694-.31Z" transform="translate(-140.148 -239.998)"/>
      <path id="パス_231" data-name="パス 231" d="M323.436,250.973a7.974,7.974,0,0,0,1.8-1.623,5.187,5.187,0,0,0,1.077-1.68l1.062.5c.089.044.221.133.221.251s-.047.148-.472.192a22.249,22.249,0,0,1-1.8,2.3,5.371,5.371,0,0,1-.853.8Zm5.484-4.985h-4.793v-1.075h4.793v-2.922l1.24.148c.118.015.339.044.339.177s-.1.177-.339.31v2.287h4.409v1.075H330.16v5.531c0,1.579-.4,1.859-2.7,1.8L327,252.051c.251.029.944.118,1.385.118s.531-.089.531-.62Zm3.276,1.49a13.752,13.752,0,0,1,2.875,3.3l-1.077.62a11.7,11.7,0,0,0-2.654-3.229Z" transform="translate(-132.932 -240.384)"/>
      <path id="パス_232" data-name="パス 232" d="M328.83,245.318v-1.077h10.676v1.077Z" transform="translate(-125.06 -237.102)"/>
      <path id="パス_233" data-name="パス 233" d="M333.714,251.418c1.488-.826,3.185-1.874,3.185-6.5,0-.9-.044-1.771-.074-2.331l1.21.1c.059.015.325.029.325.177,0,.074-.029.1-.31.31a18.026,18.026,0,0,1-.28,4.631,6.508,6.508,0,0,1-3.1,4.483Zm6.679-9.144,1.18.089c.148.015.28.059.28.148s-.044.118-.354.31v7.55a9.028,9.028,0,0,0,2.494-1.886,9.847,9.847,0,0,0,1.694-2.184l.767.885a12.1,12.1,0,0,1-2.4,2.772,14.369,14.369,0,0,1-2.966,2.036l-.694-.546Z" transform="translate(-117.933 -239.972)"/>
      <path id="パス_234" data-name="パス 234" d="M345.866,247.926a8.133,8.133,0,0,1-1.136,4.159,6.106,6.106,0,0,1-3.037,2.417l-1.048-.957a5.009,5.009,0,0,0,2.993-2.036,6.218,6.218,0,0,0,1-3.583h-5.263v-1.077h11.3v1.077Zm2.772-3.878h-7.329v-1.107h7.329Zm2.42,1.532a12.53,12.53,0,0,0-1.461-1.1l.546-.767a15,15,0,0,1,1.417,1.148Zm.546-2.137a10.8,10.8,0,0,0-1.431-1.121l.5-.767a12.646,12.646,0,0,1,1.461,1.151Z" transform="translate(-109.668 -241.023)"/>
      <path id="パス_235" data-name="パス 235" d="M348.953,246.859a20.2,20.2,0,0,1-3.3,1.844l-.885-.767a12.087,12.087,0,0,0,4.129-2.169,15.259,15.259,0,0,0,2.936-2.745l.694.635c.116.1.251.224.251.339,0,.074-.047.091-.15.091a2.913,2.913,0,0,1-.354-.032,19.832,19.832,0,0,1-2.358,2.081V252.7h-.959Z" transform="translate(-101.807 -238.879)"/>
      <path id="パス_236" data-name="パス 236" d="M359.357,246.75c-1.653,1.653-3.453,3.45-9.675,5.693-.015.029-.177.384-.266.384-.118,0-.192-.177-.28-.369l-.5-1.21a18.623,18.623,0,0,0,10.221-5.575Zm-7.759-1.222a20.372,20.372,0,0,0-2.432-2.508l.856-.841a19.758,19.758,0,0,1,2.565,2.582Z" transform="translate(-96.159 -240.112)"/>
      <path id="パス_237" data-name="パス 237" d="M362.259,244.446a2.336,2.336,0,0,0,.576-.074l.649.839a1.8,1.8,0,0,0-.723.885c-1.193,3.2-1.975,4.589-3.672,6.254a12.083,12.083,0,0,1-2.978,2.154l-1.077-.885a11.218,11.218,0,0,0,4.395-3.406,11.022,11.022,0,0,0,2.211-4.778h-4.378a16.243,16.243,0,0,1-2.922,3.155l-.959-.723a11.661,11.661,0,0,0,2.7-2.713,9.039,9.039,0,0,0,1.34-2.6l1.136.413c.221.074.3.207.3.28,0,.118-.207.148-.472.192-.251.531-.339.708-.5,1Zm-.381-2.612a13.616,13.616,0,0,1,1.178,1.417l-.767.576a5.675,5.675,0,0,0-1.178-1.417Zm1.842-.31a12.484,12.484,0,0,1,1.2,1.417l-.738.575a5.583,5.583,0,0,0-1.151-1.417Z" transform="translate(-89.233 -241.067)"/>
      <path id="パス_238" data-name="パス 238" d="M368.146,243.215c-.649.428-.679.457-.856.693a19.723,19.723,0,0,1-2.063,3.568,21,21,0,0,1,4,4.232l-1,.841a11.8,11.8,0,0,0-1.889-2.521,14.257,14.257,0,0,0-1.8-1.623,13.946,13.946,0,0,1-5.383,3.834l-.885-.989a11.179,11.179,0,0,0,4.737-2.86,12.517,12.517,0,0,0,3.111-4.793h-6.151v-1.033h6.564a1.354,1.354,0,0,0,.691-.31Z" transform="translate(-82.106 -239.998)"/>
      <path id="パス_239" data-name="パス 239" d="M373.99,244.446a2.349,2.349,0,0,0,.576-.074l.649.839a1.8,1.8,0,0,0-.723.885c-1.2,3.2-1.977,4.589-3.672,6.254a12.054,12.054,0,0,1-2.981,2.154l-1.077-.885a11.2,11.2,0,0,0,4.395-3.406,11.032,11.032,0,0,0,2.213-4.778h-4.38a16.213,16.213,0,0,1-2.919,3.155l-.959-.723a11.709,11.709,0,0,0,2.7-2.713,9.138,9.138,0,0,0,1.343-2.6l1.136.413c.221.074.293.207.293.28,0,.118-.2.148-.47.192-.251.531-.339.708-.5,1Zm-.384-2.612a13.037,13.037,0,0,1,1.178,1.417l-.765.576a5.7,5.7,0,0,0-1.18-1.417Zm1.844-.31a12.412,12.412,0,0,1,1.193,1.417l-.735.575a5.638,5.638,0,0,0-1.151-1.417Z" transform="translate(-72.114 -241.067)"/>
      <path id="パス_240" data-name="パス 240" d="M369.954,251.418c1.49-.826,3.187-1.874,3.187-6.5,0-.9-.044-1.771-.076-2.331l1.21.1c.059.015.325.029.325.177,0,.074-.03.1-.31.31a18.033,18.033,0,0,1-.28,4.631,6.508,6.508,0,0,1-3.1,4.483Zm6.679-9.144,1.18.089c.148.015.28.059.28.148s-.044.118-.354.31v7.55a9.029,9.029,0,0,0,2.494-1.886,9.769,9.769,0,0,0,1.694-2.184l.767.885a12.033,12.033,0,0,1-2.4,2.772,14.366,14.366,0,0,1-2.966,2.036l-.693-.546Z" transform="translate(-65.049 -239.972)"/>
      <path id="パス_241" data-name="パス 241" d="M375.618,245.318v-1.077H386.3v1.077Z" transform="translate(-56.783 -237.102)"/>
      <path id="パス_242" data-name="パス 242" d="M380.64,245.09v-1.048h8.14a2.03,2.03,0,0,0,.664-.266l1.107.959c-.369.369-.413.4-.5.62-1.136,3.982-2.063,5.469-3.937,7a12.311,12.311,0,0,1-3.246,1.874l-1.03-1a10.436,10.436,0,0,0,4.35-2.536,9.648,9.648,0,0,0,2.639-5.6Zm9.409-2.184a1.445,1.445,0,1,1,1.461,1.446A1.457,1.457,0,0,1,390.049,242.906Zm2.228,0a.769.769,0,0,0-.782-.782.79.79,0,1,0,.015,1.579A.78.78,0,0,0,392.277,242.906Z" transform="translate(-49.454 -241.135)"/>
    </g>
  </g>
</svg>
