<svg xmlns="http://www.w3.org/2000/svg" width="552.154" height="79.999" viewBox="0 0 552.154 79.999">
  <g id="logo" transform="translate(-174.258 -358.624)">
    <g id="グループ_77" data-name="グループ 77" transform="translate(174.258 358.624)">
      <g id="グループ_74" data-name="グループ 74">
        <rect id="長方形_39" data-name="長方形 39" width="79.977" height="79.999" transform="translate(79.978)" fill="#ff3301"/>
        <rect id="長方形_40" data-name="長方形 40" width="79.978" height="79.999" fill="#ff9901"/>
        <path id="パス_472" data-name="パス 472" d="M252.314,361.873a.422.422,0,0,0-.423.421v25.19H226.183v-25.19a.421.421,0,0,0-.423-.421H212.568a.419.419,0,0,0-.42.421v63.167a.421.421,0,0,0,.42.425H225.76a.423.423,0,0,0,.423-.425V400.274h25.709v25.187a.425.425,0,0,0,.423.425h13.191a.426.426,0,0,0,.425-.425V362.293a.423.423,0,0,0-.425-.421H252.314" transform="translate(-118.987 -353.885)" fill="#fff"/>
        <path id="パス_473" data-name="パス 473" d="M183.66,361.876a.069.069,0,0,0-.071.069v3.777h-3.821v-3.777a.067.067,0,0,0-.069-.069h-2.122a.068.068,0,0,0-.066.069V372.1a.069.069,0,0,0,.066.066H179.7a.068.068,0,0,0,.069-.066v-4.487h3.821V372.1a.07.07,0,0,0,.071.066h2.119a.068.068,0,0,0,.066-.066V361.945a.067.067,0,0,0-.066-.069H183.66" transform="translate(-169.513 -353.88)"/>
        <path id="パス_474" data-name="パス 474" d="M181.654,366.892a3.916,3.916,0,1,0,3.914-4.027,3.727,3.727,0,0,0-3.914,4.027m2.171,0c0-1.013.3-2.223,1.743-2.223s1.743,1.21,1.743,2.223-.3,2.225-1.743,2.225S183.825,367.91,183.825,366.892Z" transform="translate(-163.47 -352.437)"/>
        <path id="パス_475" data-name="パス 475" d="M185.475,366.892a3.915,3.915,0,1,0,3.912-4.027,3.726,3.726,0,0,0-3.912,4.027m2.169,0c0-1.013.3-2.223,1.743-2.223s1.743,1.21,1.743,2.223-.3,2.225-1.743,2.225S187.644,367.91,187.644,366.892Z" transform="translate(-157.896 -352.437)"/>
        <path id="パス_476" data-name="パス 476" d="M189.548,365.454c0,1.741,1.706,2.08,3.073,2.355.853.17,1.591.32,1.591.767,0,.327-.31.711-1.188.711-1.06,0-1.574-.342-1.574-1.035a.066.066,0,0,0-.066-.066h-2.036a.06.06,0,0,0-.049.02.052.052,0,0,0-.02.047c.069,2.412,2.6,2.673,3.686,2.673.789,0,3.366-.192,3.366-2.658,0-1.731-1.738-2.083-3.135-2.365-.848-.17-1.576-.317-1.576-.733,0-.182,0-.666,1.148-.666,1.013,0,1.178.46,1.261.934a.072.072,0,0,0,.069.052h1.937a.067.067,0,0,0,.049-.02.064.064,0,0,0,.017-.049c-.125-1.7-1.286-2.555-3.447-2.555-2.294,0-3.108,1.338-3.108,2.589" transform="translate(-152.346 -352.437)"/>
        <path id="パス_477" data-name="パス 477" d="M193.04,362.947a.065.065,0,0,0-.069.064v7.529a.068.068,0,0,0,.069.066h1.979a.068.068,0,0,0,.069-.066v-7.529a.065.065,0,0,0-.069-.064H193.04" transform="translate(-146.961 -352.318)"/>
        <path id="パス_478" data-name="パス 478" d="M193.04,361.836a.067.067,0,0,0-.069.069v1.839a.066.066,0,0,0,.069.064h1.979a.066.066,0,0,0,.069-.064V361.9a.067.067,0,0,0-.069-.069H193.04" transform="translate(-146.961 -353.939)"/>
        <path id="パス_479" data-name="パス 479" d="M194.628,366.738c0,2.776,1.286,4.187,3.818,4.187a3.372,3.372,0,0,0,3.371-2.459.059.059,0,0,0-.01-.057.07.07,0,0,0-.057-.027h-2.033a.062.062,0,0,0-.064.047,1.209,1.209,0,0,1-1.207.775c-1.475,0-1.635-1.114-1.694-1.7h5.085a.069.069,0,0,0,.069-.071v-.352c0-3.8-2.518-4.214-3.6-4.214-3.5,0-3.676,3.226-3.676,3.873m3.646-2.107a1.438,1.438,0,0,1,1.451,1.446h-2.909C196.947,365.117,197.436,364.63,198.274,364.63Z" transform="translate(-144.544 -352.437)"/>
        <path id="パス_480" data-name="パス 480" d="M200.377,364.222V363.13a.066.066,0,0,0-.066-.064h-1.9a.064.064,0,0,0-.066.064v7.529a.068.068,0,0,0,.066.066h1.979a.07.07,0,0,0,.069-.066v-3.922a1.527,1.527,0,0,1,1.753-1.724,4.532,4.532,0,0,1,.558.022.064.064,0,0,0,.054-.015.067.067,0,0,0,.022-.052v-2.006a.066.066,0,0,0-.061-.069c-.125-.012-.256-.03-.386-.03a2.141,2.141,0,0,0-2.026,1.357" transform="translate(-139.116 -352.437)"/>
        <path id="パス_481" data-name="パス 481" d="M200.929,365.454c0,1.741,1.7,2.08,3.071,2.355.858.17,1.6.32,1.6.767,0,.327-.312.711-1.193.711-1.057,0-1.571-.342-1.571-1.035a.068.068,0,0,0-.069-.066h-2.036a.063.063,0,0,0-.049.02.056.056,0,0,0-.017.047c.066,2.412,2.6,2.673,3.686,2.673.789,0,3.361-.192,3.361-2.658,0-1.731-1.738-2.083-3.132-2.365-.846-.17-1.574-.317-1.574-.733,0-.182,0-.666,1.148-.666,1.011,0,1.178.46,1.261.934a.067.067,0,0,0,.066.052h1.938a.06.06,0,0,0,.049-.02.067.067,0,0,0,.02-.049c-.125-1.7-1.284-2.555-3.447-2.555-2.292,0-3.108,1.338-3.108,2.589" transform="translate(-135.744 -352.437)"/>
      </g>
      <g id="グループ_75" data-name="グループ 75" transform="translate(175.799 42.91)">
        <path id="パス_482" data-name="パス 482" d="M245.758,378.167h19.454a2.369,2.369,0,0,0,1.173-.546l3.405,3.1a4.12,4.12,0,0,0-1.242,1.726c-4.03,10.275-7.17,15.266-16.341,20.442l-3.794-3.024c9.557-4.62,12.965-10.248,15.689-17.693H245.758v-4.005" transform="translate(-245.758 -373.822)"/>
        <rect id="長方形_41" data-name="長方形 41" width="24.417" height="3.88" transform="translate(28.208 14.041)"/>
        <rect id="長方形_42" data-name="長方形 42" width="24.415" height="3.88" transform="translate(120.509 14.041)"/>
        <path id="パス_483" data-name="パス 483" d="M293.106,376.076a15.8,15.8,0,0,1,3.651,2.626l-1.51,1.9a17.017,17.017,0,0,0-3.592-2.626l1.451-1.9M289.8,378.9a16.566,16.566,0,0,1,3.482,2.589l-1.556,1.9a15.072,15.072,0,0,0-3.378-2.555Zm5.825,11.175c-4.209,6.762-11.1,12.348-19.9,16.828-.246.484-.415.937-.684.937-.312,0-.556-.558-.728-.9l-1.792-3.442c9.031-3.759,16.552-10.516,20.344-16.837Zm-23.449-3.693a23.027,23.027,0,0,1,7.066,3.587l-2.092,3.241a26.109,26.109,0,0,0-6.872-3.336Zm3.55-7.649a21.262,21.262,0,0,1,6.929,3.034l-1.994,3.346a23.143,23.143,0,0,0-6.8-3.105Z" transform="translate(-209.996 -376.076)"/>
        <path id="パス_484" data-name="パス 484" d="M297.14,392.243a24.167,24.167,0,0,0,3.415-5.109L294,388.478l2.692,13.388-3.486.782-2.623-13.479-6.378,1.345-1.17-2.992,7-1.382-1.2-6.211,3.516-.479a.345.345,0,0,1,.415.3.9.9,0,0,1-.415.656l1.038,5.072,8.136-1.517a1.791,1.791,0,0,0,1-1.1l2.756,1.967a42.987,42.987,0,0,1-5.134,8.549l-3-1.133" transform="translate(-191.378 -371.166)"/>
        <path id="パス_485" data-name="パス 485" d="M325.424,378.356a3.29,3.29,0,0,0,1.8-.765l2.685,2.936a4.788,4.788,0,0,0-1.861,2.068,42.688,42.688,0,0,1-4.035,7.728,65.738,65.738,0,0,1,9.134,8.549l-3.061,3.246a54.944,54.944,0,0,0-8.419-8.625,33.523,33.523,0,0,1-11.758,8.866l-3.068-3.142c10.209-4.519,14.7-11.286,16.862-16.86H310.565v-4h14.858" transform="translate(-156.658 -373.866)"/>
      </g>
      <g id="グループ_76" data-name="グループ 76" transform="translate(365.911 42.912)">
        <path id="パス_486" data-name="パス 486" d="M344.054,388.076a22.93,22.93,0,0,1-2.134,9.916,25.932,25.932,0,0,1-7.991,9.646l-4.2-2.584a20.244,20.244,0,0,0,8.06-8.333,18.9,18.9,0,0,0,2-8.645H332.55a39.5,39.5,0,0,1-5.441,7.025l-4.03-2.24A33.916,33.916,0,0,0,333.207,376.4l3.927,1.411c.2.069.861.31.861.689,0,.241-.1.31-.45.413-.344.175-.376.207-.551.656-.551,1.343-.964,2.306-2.134,4.615h17.7v3.892Z" transform="translate(-323.079 -375.607)"/>
        <path id="パス_487" data-name="パス 487" d="M355.827,392.478l-3.2-2.719a31.969,31.969,0,0,0,6.267-7.438H337.332V378.6h23.179a2.088,2.088,0,0,0,1.207-.76l3.167,3.2A80.234,80.234,0,0,1,355.827,392.478Zm-3.029-8.4c-.069.1-.484.447-.516.585-.071.069-.207,2.481-.278,2.928-1.17,9.85-6.99,14.155-8.817,15.5l-3.683-2.169c7.266-5.031,8.886-10.5,8.608-17.669l4.032.207c.72.034.824.034.824.31C352.967,383.87,352.9,383.939,352.8,384.076Z" transform="translate(-302.288 -373.504)"/>
        <path id="パス_488" data-name="パス 488" d="M366.026,391.373c-.172,8.163-3.307,12.227-9.953,15.225l-3.238-2.894c6.061-2.134,9.024-4.962,9.161-12.331h-11.5V387.79h25.866v3.582Zm-10.885-8.539v-3.757h16.842v3.757Zm22.559,2.1a24,24,0,0,0-3.617-2.584l1.31-1.93A19.063,19.063,0,0,1,379.008,383Zm1-4.374a14.938,14.938,0,0,0-3.477-2.343l1.274-1.859a15.8,15.8,0,0,1,3.479,2.341Z" transform="translate(-283.091 -375.669)"/>
        <path id="パス_489" data-name="パス 489" d="M384.937,389.681c-.413,9.987-2.788,13.361-9.333,17.324l-2.825-2.687c6.063-3.339,8.232-6.646,8.335-14.637h-6.508V397.4h-4.1v-7.716H364.03v-3.892h6.476v-6.614l3.789.413c.792.1,1.033.175,1.033.484,0,.172-.723.688-.723.861v4.856h6.508c0-3.135,0-5.131-.069-7.13l3.513.484c.723.1,1.1.273,1.1.548,0,.1,0,.175-.31.381-.344.275-.379.31-.379.792v4.925h5.751v3.892Zm3.686-10.538a19.362,19.362,0,0,1,3.445,2.547l-1.448,1.824a20.881,20.881,0,0,0-3.479-2.547Zm2.134-3.066a17.465,17.465,0,0,1,3.479,2.478l-1.446,1.827a18,18,0,0,0-3.445-2.547Z" transform="translate(-263.342 -376.077)"/>
        <path id="パス_490" data-name="パス 490" d="M399.43,380.574c-.516.034-.583.1-1.067.62a44.131,44.131,0,0,1-5.682,5.375v18.357h-4.305V389.77a61.991,61.991,0,0,1-8.677,4.89l-3-3.064a53.52,53.52,0,0,0,19.975-14.637l3,2.476c.138.1.585.553.585.829C400.258,380.506,400.121,380.54,399.43,380.574Z" transform="translate(-244.858 -374.789)"/>
        <path id="パス_491" data-name="パス 491" d="M395.422,385.167a31.217,31.217,0,0,0-7.059-4.34l2.1-3.238a32.163,32.163,0,0,1,7.234,4.273Zm10.091,9.368a46.245,46.245,0,0,1-12.982,7.681c-.172.482-.241,1.07-.516,1.07-.209,0-.519-.207-.757-.656l-2.412-4.133a32.216,32.216,0,0,0,12.776-5.96A47.916,47.916,0,0,0,411.714,382l2.375,3.447A48.366,48.366,0,0,1,405.513,394.535Z" transform="translate(-227.847 -373.871)"/>
      </g>
    </g>
    <g id="グループ_78" data-name="グループ 78" transform="translate(350.586 368.516)">
      <path id="パス_492" data-name="パス 492" d="M245.973,377.3V362.647h3.7a13.8,13.8,0,0,0,0,14.657Z" transform="translate(-245.973 -362.647)"/>
      <path id="パス_493" data-name="パス 493" d="M260.221,376.048a11.408,11.408,0,0,1-5.19-3.759v4.069h-1.074v-4.084a13.2,13.2,0,0,1-5.176,3.774l-.693-.841a11.278,11.278,0,0,0,5.058-3.582H249.9V366.67h4.054v-1.224h-5.825v-.971h5.825v-1.593l1.045.1c.091,0,.3.03.3.148s-.1.147-.268.236v1.106h5.84v.971h-5.84v1.224h4.084v4.954h-3.494a11.139,11.139,0,0,0,5.279,3.538Zm-6.265-8.492h-2.995v1.136h2.995Zm0,2.021h-2.995v1.178h2.995Zm4.1-2.021H255.03v1.136h3.024Zm0,2.021H255.03v1.178h3.024Z" transform="translate(-242.889 -362.306)"/>
      <path id="パス_494" data-name="パス 494" d="M253.961,366.033v-.957h5.4v.957Zm3.789,9.805v-.9h-2.2v1.033h-.986v-5.028h4.187v4.9ZM254.6,364.044v-.959h4.232v.959Zm0,3.877v-.974h4.232v.974Zm0,1.989v-.956h4.232v.956Zm3.155,1.962h-2.2v2.154h2.2Zm1.534,3.523v-.988h1.224v-7.224l1.222.148c.147.015.28.059.28.148,0,.148-.207.236-.457.369v6.56h1.579v-9.965h-3.11V363.41h6.8v1.033h-2.653v4.276h2.269v1.045h-2.269v4.645h3.007v.988Z" transform="translate(-234.321 -362.008)"/>
      <path id="パス_495" data-name="パス 495" d="M259.937,366.4v-1.045h8.138a2.029,2.029,0,0,0,.664-.266l1.1.956c-.369.369-.413.4-.5.62-1.133,3.981-2.063,5.471-3.936,7a12.286,12.286,0,0,1-3.243,1.874l-1.033-1a10.391,10.391,0,0,0,4.35-2.535,9.645,9.645,0,0,0,2.641-5.6Zm9.4-2.181a1.446,1.446,0,1,1,1.461,1.446A1.459,1.459,0,0,1,269.342,364.216Zm2.228,0a.768.768,0,0,0-.782-.782.788.788,0,1,0,.015,1.576A.776.776,0,0,0,271.569,364.216Z" transform="translate(-225.603 -362.446)"/>
      <path id="パス_496" data-name="パス 496" d="M265.253,367.762v-1.077h8.714a1.791,1.791,0,0,0,.811-.413l.883,1.106c-.352.3-.413.354-.5.531a19.325,19.325,0,0,1-1.992,3.6,9.716,9.716,0,0,1-4.969,3.361l-.956-.959a7.88,7.88,0,0,0,4.377-2.387,9.026,9.026,0,0,0,2.228-3.759Zm8.64-3.26h-7.034v-1.074h7.034Z" transform="translate(-217.848 -361.509)"/>
      <path id="パス_497" data-name="パス 497" d="M275.059,375.091v-7.18a20.526,20.526,0,0,1-4.067,2.343l-1.077-.959a14.4,14.4,0,0,0,4.851-2.535,22.172,22.172,0,0,0,3.833-3.568l1,.856a.354.354,0,0,1,.16.263c0,.059-.012.12-.175.12a2.193,2.193,0,0,1-.339-.044,32.007,32.007,0,0,1-2.995,2.638v8.065Z" transform="translate(-211.048 -361.851)"/>
      <path id="パス_498" data-name="パス 498" d="M284.9,374.173a8.505,8.505,0,0,0-.841-1.962c-2.228.369-2.653.443-6.518,1.092-1.679.3-1.738.3-2,.337-.236.339-.266.369-.354.369-.148,0-.192-.162-.221-.248l-.428-1.357a9.433,9.433,0,0,0,1.768-.074,71.118,71.118,0,0,0,3.069-8.95l1.372.352c.089.017.251.076.251.206s-.251.207-.457.3c-.207.516-2.2,5.9-2.936,7.976,2.006-.236,3.981-.531,5.957-.929a18.886,18.886,0,0,0-1.726-2.328l1.077-.62a19.818,19.818,0,0,1,3.184,5.291Z" transform="translate(-204.308 -361.579)"/>
      <path id="パス_499" data-name="パス 499" d="M279.8,375.471v-1.047h5.6V363.013l1.092.074c.1,0,.3.044.3.177s-.1.177-.283.266v4.409h5v1.045h-5v5.441h6.459v1.047Z" transform="translate(-196.633 -362.113)"/>
      <path id="パス_500" data-name="パス 500" d="M288.721,367.336v3.833c.959-.354,1.239-.457,1.65-.649V371.6c-1.281.531-2.594,1.062-3.919,1.5-.061.194-.121.357-.266.357s-.192-.192-.236-.384l-.266-1.018a6.763,6.763,0,0,0,1.96-.5v-4.217h-1.768v-.959h1.768v-3.346l1.047.118c.074,0,.339.03.339.192,0,.1-.074.162-.31.31v2.727h1.709v.959ZM294,369.62c-.207.325-.546.826-.634.944h5.308a18.15,18.15,0,0,1-.575,4.541c-.369.752-1.047.752-1.652.752h-.782l-.293-1.222a4.9,4.9,0,0,0,1.163.189c.251,0,.634,0,.8-.72a16.854,16.854,0,0,0,.266-2.611h-.723a8.334,8.334,0,0,1-3.228,4.6l-1.077-.531a7.083,7.083,0,0,0,3.258-4.069h-.956a6.78,6.78,0,0,1-1.549,2.257,9.254,9.254,0,0,1-2.744,1.842l-.853-.723a7.022,7.022,0,0,0,4.069-3.376h-1.106a20.134,20.134,0,0,1-2.582,2.225l-.956-.661a9.977,9.977,0,0,0,3.7-3.437h-2.756v-.87H299v.87Zm-2.508-1.783v-4.645h6.076v4.645Zm5.072-3.759h-4.069v.974h4.069Zm0,1.812h-4.069v1.033h4.069Z" transform="translate(-188.045 -362.087)"/>
      <path id="パス_501" data-name="パス 501" d="M295.332,362.647V377.3h-3.7a13.783,13.783,0,0,0,0-14.657Z" transform="translate(-179.373 -362.647)"/>
      <path id="パス_502" data-name="パス 502" d="M294.653,365v-1.03h8.3a1.876,1.876,0,0,0,.649-.31l1.121.956c-.384.428-.428.472-.5.723-1.151,3.892-2.08,5.382-4.054,6.961a13.976,13.976,0,0,1-3.287,1.871l-1.033-1.03a10.619,10.619,0,0,0,4.438-2.523,9.479,9.479,0,0,0,2.7-5.618Z" transform="translate(-174.962 -361.168)"/>
      <path id="パス_503" data-name="パス 503" d="M299.387,366.626v-1.077h10.676v1.077Z" transform="translate(-168.056 -358.414)"/>
      <path id="パス_504" data-name="パス 504" d="M304.77,367.044a16.371,16.371,0,0,1,2.921,1.578l-.531,1.047a11.8,11.8,0,0,0-2.877-1.652Zm10,1.475a21.385,21.385,0,0,1-3.951,4.32,14.253,14.253,0,0,1-5.072,2.815l-.767-1.121a12,12,0,0,0,4.748-2.328,16.436,16.436,0,0,0,4.232-4.659Zm-8.374-4.851a13.54,13.54,0,0,1,2.919,1.576l-.546,1a11.694,11.694,0,0,0-2.874-1.623Zm6.988,2.343a8.56,8.56,0,0,0-1.416-1.414l.723-.62a7.649,7.649,0,0,1,1.416,1.428Zm1.7-.957a8.987,8.987,0,0,0-1.387-1.416l.723-.62a8.284,8.284,0,0,1,1.387,1.416Z" transform="translate(-160.914 -362.104)"/>
      <path id="パス_505" data-name="パス 505" d="M317.141,366.238a.83.83,0,0,0,.472-.384l.693.384a41.839,41.839,0,0,1-1.844,3.951l-.853-.339a20.641,20.641,0,0,0,1.429-2.727l-3.538.767,1.151,5.837-.915.1-1.121-5.793-3.184.691-.192-.811,3.228-.679-.543-2.727.706-.074c.369-.03.487-.03.487.088,0,.059-.207.266-.236.31l.472,2.213Z" transform="translate(-153.684 -360.059)"/>
      <path id="パス_506" data-name="パス 506" d="M313.565,366.626v-1.077h10.673v1.077Z" transform="translate(-147.374 -358.414)"/>
      <path id="パス_507" data-name="パス 507" d="M328.37,364.525c-.649.425-.679.455-.856.691a19.8,19.8,0,0,1-2.065,3.57,20.73,20.73,0,0,1,4,4.232l-1,.841a11.8,11.8,0,0,0-1.888-2.523,14.617,14.617,0,0,0-1.8-1.623,13.96,13.96,0,0,1-5.382,3.836l-.885-.988a11.154,11.154,0,0,0,4.733-2.862,12.465,12.465,0,0,0,3.11-4.792h-6.147v-1.033h6.56a1.342,1.342,0,0,0,.693-.31Z" transform="translate(-140.188 -361.309)"/>
      <path id="パス_508" data-name="パス 508" d="M323.436,372.28a8.034,8.034,0,0,0,1.8-1.623,5.188,5.188,0,0,0,1.077-1.682l1.062.5c.089.044.221.13.221.251s-.047.145-.472.189a21.971,21.971,0,0,1-1.8,2.3,5.233,5.233,0,0,1-.853.794Zm5.483-4.984h-4.792V366.22h4.792V363.3l1.239.147c.118.015.339.044.339.177,0,.116-.1.177-.339.31v2.284h4.409V367.3h-4.409v5.53c0,1.576-.4,1.856-2.7,1.8L327,373.357c.251.027.944.118,1.384.118s.531-.091.531-.62Zm3.275,1.49a13.7,13.7,0,0,1,2.874,3.3l-1.077.617a11.678,11.678,0,0,0-2.653-3.226Z" transform="translate(-132.975 -361.693)"/>
      <path id="パス_509" data-name="パス 509" d="M328.83,366.626v-1.077H339.5v1.077Z" transform="translate(-125.106 -358.414)"/>
      <path id="パス_510" data-name="パス 510" d="M333.714,372.725c1.488-.826,3.184-1.874,3.184-6.5,0-.9-.044-1.768-.074-2.328l1.21.1c.059.012.325.029.325.175,0,.076-.03.1-.31.31a18.037,18.037,0,0,1-.28,4.632,6.5,6.5,0,0,1-3.1,4.48Zm6.678-9.142,1.18.088c.147.015.28.059.28.147s-.044.118-.354.31v7.548a9.049,9.049,0,0,0,2.493-1.888,9.848,9.848,0,0,0,1.694-2.181l.767.885a12.2,12.2,0,0,1-2.4,2.771,14.366,14.366,0,0,1-2.965,2.036l-.693-.546Z" transform="translate(-117.982 -361.282)"/>
      <path id="パス_511" data-name="パス 511" d="M345.864,369.234a8.137,8.137,0,0,1-1.136,4.158,6.132,6.132,0,0,1-3.036,2.417l-1.047-.959a5.014,5.014,0,0,0,2.992-2.033,6.221,6.221,0,0,0,1-3.582h-5.262v-1.077h11.293v1.077Zm2.771-3.88h-7.327v-1.1h7.327Zm2.419,1.534a12.278,12.278,0,0,0-1.461-1.107l.546-.765a14.62,14.62,0,0,1,1.416,1.148Zm.546-2.139a11.017,11.017,0,0,0-1.431-1.119l.5-.767a12.646,12.646,0,0,1,1.461,1.151Z" transform="translate(-109.719 -362.332)"/>
      <path id="パス_512" data-name="パス 512" d="M348.952,368.168a20.4,20.4,0,0,1-3.3,1.842l-.885-.767a12.021,12.021,0,0,0,4.128-2.166,15.337,15.337,0,0,0,2.936-2.744l.693.634c.116.1.251.221.251.339,0,.074-.047.089-.15.089a2.908,2.908,0,0,1-.354-.029,19.824,19.824,0,0,1-2.358,2.08V374h-.959Z" transform="translate(-101.861 -360.189)"/>
      <path id="パス_513" data-name="パス 513" d="M359.355,368.058c-1.652,1.65-3.452,3.45-9.673,5.689-.015.03-.177.384-.266.384-.118,0-.192-.177-.28-.366l-.5-1.21a18.66,18.66,0,0,0,10.218-5.574Zm-7.757-1.224a20.352,20.352,0,0,0-2.432-2.505l.856-.841a19.709,19.709,0,0,1,2.564,2.579Z" transform="translate(-96.216 -361.422)"/>
      <path id="パス_514" data-name="パス 514" d="M362.257,365.754a2.352,2.352,0,0,0,.575-.076l.649.841a1.79,1.79,0,0,0-.723.885c-1.192,3.2-1.974,4.586-3.671,6.25a12.076,12.076,0,0,1-2.977,2.154l-1.077-.883a11.2,11.2,0,0,0,4.394-3.408,11.007,11.007,0,0,0,2.21-4.777h-4.377a16.165,16.165,0,0,1-2.921,3.157l-.959-.723a11.628,11.628,0,0,0,2.7-2.714,9,9,0,0,0,1.34-2.594l1.136.413c.221.074.3.207.3.28,0,.118-.207.148-.472.192-.251.531-.339.706-.5,1Zm-.381-2.611a13.62,13.62,0,0,1,1.178,1.416l-.767.575a5.631,5.631,0,0,0-1.178-1.416Zm1.842-.31a12.464,12.464,0,0,1,1.195,1.416l-.738.575a5.582,5.582,0,0,0-1.151-1.416Z" transform="translate(-89.293 -362.376)"/>
      <path id="パス_515" data-name="パス 515" d="M368.144,364.525c-.649.425-.679.455-.856.691a19.658,19.658,0,0,1-2.063,3.57,20.862,20.862,0,0,1,4,4.232l-1,.841a11.8,11.8,0,0,0-1.888-2.523,14.258,14.258,0,0,0-1.8-1.623,13.923,13.923,0,0,1-5.382,3.836l-.885-.988A11.159,11.159,0,0,0,363,369.7a12.5,12.5,0,0,0,3.11-4.792h-6.149v-1.033h6.562a1.334,1.334,0,0,0,.691-.31Z" transform="translate(-82.168 -361.309)"/>
      <path id="パス_516" data-name="パス 516" d="M373.988,365.754a2.366,2.366,0,0,0,.575-.076l.649.841a1.789,1.789,0,0,0-.723.885c-1.195,3.2-1.977,4.586-3.671,6.25a12.049,12.049,0,0,1-2.98,2.154l-1.077-.883a11.186,11.186,0,0,0,4.394-3.408,11.017,11.017,0,0,0,2.213-4.777h-4.379a16.133,16.133,0,0,1-2.918,3.157l-.959-.723a11.675,11.675,0,0,0,2.7-2.714,9.1,9.1,0,0,0,1.342-2.594l1.136.413c.221.074.293.207.293.28,0,.118-.2.148-.47.192-.251.531-.339.706-.5,1Zm-.384-2.611a13.033,13.033,0,0,1,1.178,1.416l-.765.575a5.657,5.657,0,0,0-1.18-1.416Zm1.844-.31a12.406,12.406,0,0,1,1.192,1.416l-.735.575a5.635,5.635,0,0,0-1.151-1.416Z" transform="translate(-72.18 -362.376)"/>
      <path id="パス_517" data-name="パス 517" d="M369.954,372.725c1.49-.826,3.187-1.874,3.187-6.5,0-.9-.044-1.768-.076-2.328l1.21.1c.059.012.325.029.325.175,0,.076-.03.1-.31.31a18.038,18.038,0,0,1-.28,4.632,6.494,6.494,0,0,1-3.1,4.48Zm6.678-9.142,1.18.088c.147.015.28.059.28.147s-.044.118-.354.31v7.548a9.049,9.049,0,0,0,2.493-1.888,9.77,9.77,0,0,0,1.694-2.181l.767.885a12.134,12.134,0,0,1-2.4,2.771,14.365,14.365,0,0,1-2.965,2.036l-.693-.546Z" transform="translate(-65.117 -361.282)"/>
      <path id="パス_518" data-name="パス 518" d="M375.618,366.626v-1.077h10.676v1.077Z" transform="translate(-56.855 -358.414)"/>
      <path id="パス_519" data-name="パス 519" d="M380.64,366.4v-1.045h8.138a2.029,2.029,0,0,0,.664-.266l1.106.956c-.369.369-.413.4-.5.62-1.136,3.981-2.063,5.471-3.936,7a12.3,12.3,0,0,1-3.245,1.874l-1.03-1A10.406,10.406,0,0,0,386.184,372a9.639,9.639,0,0,0,2.638-5.6Zm9.407-2.181a1.445,1.445,0,1,1,1.461,1.446A1.458,1.458,0,0,1,390.047,364.216Zm2.228,0a.768.768,0,0,0-.782-.782.788.788,0,1,0,.015,1.576A.777.777,0,0,0,392.275,364.216Z" transform="translate(-49.529 -362.446)"/>
    </g>
  </g>
</svg>
