<?xml version="1.0" encoding="UTF-8"?>
<svg id="_レイヤー_2" data-name="レイヤー 2" xmlns="http://www.w3.org/2000/svg" viewBox="0 0 263.04 34.47">
  <g id="_レイヤー_1-2" data-name="レイヤー 1">
    <g>
      <g>
        <path d="m2.16,7.63c0-2.26.34-5.84-2.16-6.58v-.15h12.02c11.2,0,18.17,6.09,18.17,15.85s-7.41,16.45-18.41,16.45H0v-.15c2.45-1.66,2.16-4.02,2.16-6.92V7.63Zm5.01,21.7c1.18.24,2.36.34,3.59.34,7.31,0,13.84-3.83,13.84-12.32s-4.81-12.91-13.01-12.91c-1.47,0-2.94.2-4.42.54v24.35Z"/>
        <path d="m57.93,29.97c-2.17,2.85-6.19,4.03-9.62,4.03-3.24,0-6.68-1.03-8.89-3.43-2.6-2.85-2.5-6.14-2.5-9.67V7.78c0-2.21.34-5.8-2.16-6.72v-.15h9.32v.15c-2.46.93-2.16,4.51-2.16,6.72v13.1c0,6.53,2.75,9.57,7.8,9.57,2.75,0,5.55-1.12,7.17-3.44,1.08-1.47,1.04-2.7,1.04-4.47V7.78c0-2.21.29-5.8-2.17-6.72v-.15h9.33l.05.15c-2.5.93-2.21,4.51-2.21,6.77v18.5c0,2.21-.29,5.79,2.21,6.72v.15h-7.21v-3.24Z"/>
        <path d="m105.05,16.71c0,10.02-8.3,17.28-18.06,17.28s-17.92-6.97-17.92-17.03C69.07,7.63,77.17-.17,87.48.07c10.31-.05,17.58,7.81,17.58,16.64m-30.39-.19c0,6.87,4.86,13.94,12.57,13.94s12.22-5.45,12.22-12.77-4.56-14.09-12.33-14.09-12.46,5.5-12.46,12.91"/>
      </g>
      <path d="m144.05,23.52c0,2.47-1,4.67-3,6.61-2.49,2.41-5.9,3.61-10.21,3.61-2.93,0-5.79-.51-8.59-1.53l-1.48-6.05c3.3,2.59,6.87,3.88,10.72,3.88,2.06,0,3.8-.48,5.2-1.43,1.4-.96,2.11-2.14,2.11-3.56s-.54-2.51-1.62-3.47c-.92-.8-3.01-1.94-6.26-3.42-3.25-1.48-5.49-2.77-6.72-3.88-1.7-1.54-2.54-3.42-2.54-5.64,0-2.62,1.1-4.71,3.3-6.28,2.2-1.57,5.15-2.36,8.85-2.36,2.43,0,4.91.36,7.44,1.07v5.55c-2.19-2.13-4.76-3.19-7.72-3.19-1.91,0-3.46.43-4.64,1.27-1.19.84-1.78,1.94-1.78,3.3,0,1.2.47,2.21,1.41,3.03.94.81,2.87,1.9,5.8,3.25,3.48,1.61,5.85,2.91,7.11,3.93,1.76,1.39,2.63,3.16,2.63,5.31Z"/>
      <path d="m176.39,26.57l-2.45,5.68c-2.37.96-4.9,1.44-7.58,1.44-5.58,0-10.05-1.54-13.42-4.6-3.37-3.06-5.06-7.12-5.06-12.18s1.64-8.9,4.9-12.1c3.26-3.2,7.39-4.8,12.38-4.8,2.43,0,5.36.42,8.78,1.25v5.59c-3.11-1.79-6.07-2.68-8.87-2.68-3.42,0-6.21,1.12-8.38,3.35-2.17,2.23-3.26,5.09-3.26,8.57,0,3.82,1.19,7.05,3.56,9.7,2.37,2.65,5.28,3.98,8.73,3.98,3.11,0,6.67-1.06,10.67-3.19Z"/>
      <path d="m237.16.79c-1.05.68-1.74,1.4-2.08,2.15-.34.76-.51,1.95-.51,3.58v27.95c-2.37-.77-4.61-2.48-6.7-5.13l-17.09-21.67v19.5c0,1.6.18,2.79.53,3.58.35.78,1.02,1.5,2.01,2.15h-8.69c1.04-.68,1.74-1.4,2.08-2.15.33-.76.51-1.95.51-3.58V6.52c0-1.6-.18-2.79-.53-3.58-.35-.78-1.02-1.5-2.01-2.15h7.12c.06.19.44.79,1.16,1.8l18.06,23.01V6.52c0-1.6-.18-2.79-.53-3.56-.36-.77-1.04-1.49-2.06-2.17h8.73Z"/>
      <path d="m201.19,26.77v6.38h-21.33c1.04-.56,1.7-1.46,1.98-2.73.12-.58.19-1.77.19-3.56V7.27c0-1.76-.07-2.93-.19-3.51-.28-1.26-.94-2.17-1.98-2.73h18.83v5.4c-.86-.83-1.77-1.36-2.72-1.61-.72-.21-1.79-.32-3.24-.32-2.03,0-4.48.11-5.81.32v9.1h7.29c.64,0,1.2-.11,1.67-.33v5.18c-.68-.86-1.96-1.3-3.84-1.3h-5.12v11.6c2.07.34,3.52.51,5.47.51,3.88,0,6.34-.94,8.81-2.82Z"/>
      <path d="m263.04,26.77v6.38h-21.34c1.05-.56,1.71-1.46,1.98-2.73.12-.58.19-1.77.19-3.56V7.27c0-1.76-.07-2.93-.19-3.51-.28-1.26-.94-2.17-1.98-2.73h18.84v5.4c-.86-.83-1.78-1.36-2.72-1.61-.71-.21-1.79-.32-3.24-.32-2.03,0-4.48.11-5.8.32v9.1h7.28c.64,0,1.2-.11,1.67-.33v5.18c-.68-.86-1.96-1.3-3.84-1.3h-5.11v11.6c2.06.34,3.52.51,5.46.51,3.88,0,6.34-.94,8.8-2.82Z"/>
    </g>
  </g>
</svg>